<?xml version="1.0" encoding="utf-8"?>
<!-- Generator: Adobe Illustrator 27.5.0, SVG Export Plug-In . SVG Version: 6.00 Build 0)  -->
<svg version="1.1" id="레이어_1" xmlns="http://www.w3.org/2000/svg" xmlns:xlink="http://www.w3.org/1999/xlink" x="0px"
	 y="0px" viewBox="0 0 71.3 65.9" style="enable-background:new 0 0 71.3 65.9;" xml:space="preserve">
<style type="text/css">
	.st0{fill:none;stroke:#FFFFFF;stroke-miterlimit:10;}
	.st1{fill:none;stroke:#FFFFFF;stroke-width:2.5;stroke-miterlimit:10;}
	.st2{fill:#FFFFFF;}
	.st3{clip-path:url(#SVGID_00000085957857834540636680000014499327362540495528_);}
	.st4{fill:#FFFFFF;stroke:#FFFFFF;stroke-width:0.5;stroke-miterlimit:10;}
</style>
<path class="st0" d="M-230.4,60.7c0-1.8,0.3-3.7,0.9-5.5c0,0,1.1-4.1,4.1-7.9c-0.9-0.5-1.7-1-2.5-1.6c-1.7,1.2-4.9,3.9-6.4,8.2
	c-1.2,3.5-1.3,6.2-0.1,8c0.9,1.4,2.2,1.9,2.9,2.1C-231.3,62.9-231,61.8-230.4,60.7C-230.4,60.8-230.4,60.7-230.4,60.7z"/>
<path class="st0" d="M-202.4,55.2c0.6,1.7,0.8,3.5,0.9,5.1c0.5,0.9,0.9,1.9,1,3.3c0,0.1,0,0.3,0,0.4c0.8-0.2,2.1-0.7,2.9-2.1
	c1.2-1.8,1.1-4.5-0.1-8c-1.5-4.3-4.6-7-6.4-8.2c-0.8,0.6-1.7,1.2-2.6,1.7C-203.6,51-202.4,55-202.4,55.2z"/>
<path class="st0" d="M-215.9,46.1c-4.6,0-7.7-2-7.7-4.9c0-3,3.2-5,7.7-5s7.7,2.1,7.7,5C-208.2,44.1-211.3,46.1-215.9,46.1z"/>
<path class="st0" d="M-215.9,36.3c-4.4,0-7.5,2-7.5,4.8c0,3.2,3.8,4.7,7.5,4.7c4.5,0,7.5-1.9,7.5-4.7
	C-208.5,38.3-211.5,36.3-215.9,36.3z"/>
<path class="st1" d="M-234.4,53.8c1.5-4.3,4.6-7,6.4-8.2c0,0-0.1,0-0.1-0.1c-1.8,1.3-4.9,4-6.4,8.3c-1.3,3.6-1.3,6.3-0.1,8.2
	c0.9,1.4,2.3,2,3.1,2.2c0,0,0-0.1,0-0.1C-233.1,63.6-237.2,61.7-234.4,53.8z"/>
<path class="st1" d="M-234.4,61.9c-1.2-1.8-1.1-4.5,0.1-8c1.5-4.3,4.6-7,6.4-8.2c0,0-0.1-0.1-0.1-0.1c-1.8,1.3-4.9,4-6.4,8.2
	c-2.8,7.9,1.3,9.8,2.9,10.3c0,0,0-0.1,0-0.1C-232.2,63.8-233.5,63.2-234.4,61.9z"/>
<path class="st1" d="M-197.6,53.8c1.2,3.5,1.3,6.2,0.1,8c-0.9,1.3-2.2,1.9-2.9,2.1c0,0,0,0.1,0,0.1c1.6-0.4,5.7-2.3,2.9-10.3
	c-1.5-4.3-4.6-7-6.4-8.2c0,0-0.1,0.1-0.1,0.1C-202.2,46.9-199.1,49.6-197.6,53.8z"/>
<path class="st1" d="M-197.5,53.8c2.8,7.9-1.3,9.8-2.9,10.3c0,0,0,0.1,0,0.1c0.8-0.2,2.2-0.8,3.1-2.2c1.2-1.9,1.2-4.7-0.1-8.2
	c-1.5-4.3-4.6-7-6.4-8.3c0,0-0.1,0-0.1,0.1C-202.1,46.8-199,49.5-197.5,53.8z"/>
<path class="st1" d="M-223.9,57.1"/>
<path class="st1" d="M-201.8,60.2c-0.1-1.5-0.3-3.1-0.9-4.6l0,0c0,0-1.2-4.1-4.2-7.8c-2.5,1.2-5.6,1.8-9.1,1.8
	c-3.6,0-6.6-0.6-9.2-1.9c-3,3.7-4.1,7.8-4.1,7.9"/>
<path class="st1" d="M-229.4,55.2c0,0,1-4.1,4.1-7.9c0,0-0.1,0-0.1-0.1c-3,3.8-4.1,7.9-4.1,7.9c-0.6,1.9-0.9,3.8-0.9,5.5
	c0-0.1,0.1-0.1,0.1-0.2C-230.2,58.8-230,57-229.4,55.2z"/>
<path class="st1" d="M-202.5,55.2c0.6,1.6,0.8,3.3,0.9,4.9c0,0.1,0.1,0.1,0.1,0.2c-0.1-1.7-0.3-3.4-0.9-5.1c0-0.1-1.2-4.2-4.2-7.9
	c0,0-0.1,0-0.1,0.1C-203.6,51.1-202.5,55.2-202.5,55.2z"/>
<path class="st1" d="M-202.6,55.2L-202.6,55.2c0.5,1.6,0.8,3.1,0.9,4.6c0,0.1,0.1,0.2,0.1,0.2c-0.1-1.6-0.3-3.2-0.9-4.9
	c0,0-1.1-4.1-4.2-7.8c0,0-0.1,0-0.1,0.1C-203.8,51.1-202.6,55.2-202.6,55.2z"/>
<path class="st1" d="M-225.2,47.4c0,0-0.1,0-0.1-0.1c-3.1,3.8-4.1,7.9-4.1,7.9c-0.6,1.8-0.9,3.6-0.9,5.3c0-0.1,0.1-0.1,0.1-0.2
	c0.1-1.6,0.3-3.3,0.9-5.1C-229.2,55.2-228.2,51.1-225.2,47.4z"/>
<path class="st1" d="M-222.9,14.9c-1.7-1.9-4.2-3.2-7.1-3.2c-5.2,0-9.4,4.2-9.4,9.3c0,3.8,2.3,7.1,5.6,8.5
	C-233.1,23-228.8,17.4-222.9,14.9z"/>
<path class="st1" d="M-198.1,29.8c3.5-1.4,6-4.7,6-8.7c0-5.1-4.2-9.3-9.4-9.3c-2.9,0-5.4,1.3-7.2,3.3
	C-202.9,17.6-198.7,23.2-198.1,29.8z"/>
<path class="st1" d="M-215.9,13.7c2.5,0,4.8,0.5,6.9,1.4c0,0,0.1-0.1,0.1-0.1c-2.2-0.9-4.5-1.4-7-1.4c-2.4,0-4.6,0.5-6.7,1.3
	c0,0,0.1,0.1,0.1,0.1C-220.5,14.1-218.3,13.7-215.9,13.7z"/>
<path class="st1" d="M-206.6,47.3c0.9-0.5,1.8-1,2.6-1.7c0,0-0.1-0.1-0.1-0.1c-0.8,0.6-1.6,1.2-2.6,1.6
	C-206.7,47.2-206.6,47.3-206.6,47.3z"/>
<path class="st1" d="M-225.3,47.2c-0.9-0.5-1.7-1-2.5-1.6c0,0-0.1,0-0.1,0.1c0.8,0.6,1.6,1.2,2.5,1.6
	C-225.4,47.2-225.3,47.2-225.3,47.2z"/>
<path class="st1" d="M-198.1,31.4c0,5.7-1.8,10.8-5.8,14c0,0,0.1,0,0.1,0.1c0.6-0.5,1.1-0.9,1.6-1.5c2.8-3.1,4.2-7.4,4.2-12.6
	c0-0.5,0-0.9-0.1-1.4c0,0-0.1,0-0.1,0C-198.2,30.5-198.1,31-198.1,31.4z"/>
<path class="st1" d="M-233.8,31.4c0-0.5,0-1,0.1-1.4c0,0-0.1,0-0.1-0.1c0,0.5-0.1,1-0.1,1.5c0,5.2,1.5,9.6,4.2,12.6
	c0.5,0.5,1,1,1.6,1.5c0,0,0.1,0,0.1-0.1C-232,42.2-233.8,37.1-233.8,31.4z"/>
<path class="st1" d="M-227.9,45.5C-227.9,45.5-228,45.4-227.9,45.5c-0.1-0.1-0.2,0-0.2,0c0,0,0.1,0,0.1,0.1
	C-228,45.5-227.9,45.5-227.9,45.5z"/>
<path class="st1" d="M-227.8,45.6c0,0-0.1-0.1-0.1-0.1c0,0-0.1,0-0.1,0.1c0,0,0.1,0.1,0.1,0.1C-227.9,45.6-227.8,45.6-227.8,45.6z"
	/>
<path class="st1" d="M-204,45.5c0,0,0.1,0,0.1,0.1c0,0,0.1,0,0.1-0.1C-203.8,45.5-203.9,45.4-204,45.5
	C-203.9,45.4-204,45.5-204,45.5z"/>
<path class="st1" d="M-204,45.7c0,0,0.1-0.1,0.1-0.1c0,0-0.1,0-0.1-0.1c0,0-0.1,0.1-0.1,0.1C-204.1,45.6-204,45.6-204,45.7z"/>
<path class="st1" d="M-206.8,47.4c0,0-0.1-0.1-0.1-0.1c-2.4,1.2-5.4,1.8-9,1.8c-3.7,0-6.7-0.7-9.1-1.9c0,0-0.1,0.1-0.1,0.1
	c2.6,1.2,5.6,1.9,9.2,1.9C-212.4,49.3-209.4,48.6-206.8,47.4z"/>
<path class="st1" d="M-206.7,47.4c0,0,0.1,0,0.1-0.1c0,0-0.1-0.1-0.1-0.1c0,0-0.1,0-0.1,0.1C-206.8,47.3-206.7,47.3-206.7,47.4z"/>
<path class="st1" d="M-225.2,47.2c0,0-0.1,0-0.1-0.1c0,0-0.1,0.1-0.1,0.1c0,0,0.1,0,0.1,0.1C-225.3,47.3-225.2,47.2-225.2,47.2z"/>
<path class="st1" d="M-225.2,47.4c0,0,0.1-0.1,0.1-0.1c0,0-0.1,0-0.1-0.1c0,0-0.1,0.1-0.1,0.1C-225.2,47.3-225.2,47.4-225.2,47.4z"
	/>
<path class="st1" d="M-206.8,47.4c0,0,0.1,0,0.1-0.1c0,0-0.1-0.1-0.1-0.1c0,0-0.1,0-0.1,0.1C-206.9,47.3-206.9,47.4-206.8,47.4z"/>
<path class="st1" d="M-222.7,15c0,0,0.1,0,0.1,0c0,0-0.1-0.1-0.1-0.1C-222.7,14.9-222.8,14.9-222.7,15
	C-222.8,14.9-222.7,15-222.7,15z"/>
<path class="st1" d="M-233.7,29.8c0,0-0.1,0-0.1-0.1c0,0,0,0.1,0,0.1c0,0,0.1,0,0.1,0.1C-233.7,29.9-233.7,29.9-233.7,29.8z"/>
<path class="st1" d="M-233.8,29.6c0,0,0,0.1,0,0.1c0,0,0.1,0,0.1,0.1c0,0,0-0.1,0-0.1C-233.7,29.7-233.8,29.6-233.8,29.6z"/>
<path class="st1" d="M-222.8,15c0,0,0.1,0,0.1,0c0,0-0.1-0.1-0.1-0.1C-222.8,14.9-222.9,14.9-222.8,15C-222.9,15-222.9,15-222.8,15z
	"/>
<path class="st1" d="M-208.8,15.2c5.8,2.5,10,8.1,10.6,14.7c0,0,0.1,0,0.1,0"/>
<path class="st1" d="M-198.2,30c0,0,0,0.1,0,0.1c0,0,0.1,0,0.1,0c0,0,0-0.1,0-0.1C-198.1,29.9-198.2,29.9-198.2,30z"/>
<path class="st1" d="M-198.2,29.8c0,0,0,0.1,0,0.1c0,0,0.1,0,0.1,0c0,0,0-0.1,0-0.1C-198.1,29.8-198.2,29.8-198.2,29.8z"/>
<path class="st1" d="M-206.7,47.2c0.9-0.5,1.8-1,2.6-1.6c0,0-0.1,0-0.1-0.1C-205,46.1-205.8,46.7-206.7,47.2
	C-206.7,47.1-206.7,47.2-206.7,47.2z"/>
<path class="st1" d="M-225.2,47.1c-0.9-0.4-1.7-1-2.5-1.5c0,0-0.1,0-0.1,0.1C-227,46.2-226.2,46.7-225.2,47.1
	C-225.3,47.1-225.3,47.1-225.2,47.1z"/>
<path class="st1" d="M-233.6,31.4c0-0.5,0-0.9,0.1-1.4c0,0-0.1,0-0.1,0c0,0.5-0.1,1-0.1,1.4c0,5.7,1.8,10.8,5.8,14
	c0,0,0.1,0,0.1-0.1C-231.6,42.4-233.6,37.6-233.6,31.4z"/>
<path class="st1" d="M-198.3,31.4c0,6.2-2,11-5.7,14c0,0,0.1,0,0.1,0.1c4-3.2,5.8-8.3,5.8-14c0-0.4,0-0.9-0.1-1.3c0,0-0.1,0-0.1,0
	C-198.3,30.5-198.3,31-198.3,31.4z"/>
<path class="st1" d="M-227.9,45.4C-227.9,45.4-228,45.4-227.9,45.4c0,0.1,0,0.1,0,0.1C-227.9,45.5-227.9,45.5-227.9,45.4
	C-227.9,45.4-227.9,45.4-227.9,45.4z"/>
<path class="st1" d="M-227.7,45.5c0,0-0.1-0.1-0.1-0.1c0,0,0,0-0.1,0.1C-227.9,45.5-227.8,45.5-227.7,45.5
	C-227.8,45.6-227.7,45.5-227.7,45.5z"/>
<path class="st1" d="M-204.2,45.5C-204.2,45.5-204.1,45.6-204.2,45.5c0.1,0,0.2,0,0.2,0c0,0-0.1,0-0.1-0.1
	C-204.1,45.5-204.1,45.5-204.2,45.5z"/>
<path class="st1" d="M-204.1,45.4C-204,45.5-204,45.5-204.1,45.4c0.1,0,0.1,0,0.2,0C-203.9,45.4-203.9,45.4-204.1,45.4
	C-204,45.4-204,45.4-204.1,45.4z"/>
<path class="st1" d="M-206.9,47.3C-206.9,47.3-207,47.3-206.9,47.3c-2.6,1.1-5.6,1.7-9,1.7c-3.5,0-6.5-0.6-9.1-1.8
	c0,0,0,0.1-0.1,0.1c2.5,1.2,5.5,1.9,9.1,1.9C-212.3,49.1-209.4,48.5-206.9,47.3z"/>
<path class="st1" d="M-225.2,47.2C-225.2,47.2-225.1,47.2-225.2,47.2c0-0.1,0-0.1,0-0.1c0,0,0,0.1-0.1,0.1
	C-225.3,47.2-225.2,47.2-225.2,47.2z"/>
<path class="st1" d="M-206.8,47.3c0,0,0.1,0,0.1-0.1c0,0,0-0.1-0.1-0.1C-206.8,47.1-206.8,47.2-206.8,47.3
	C-206.9,47.2-206.8,47.2-206.8,47.3z"/>
<path class="st1" d="M-206.9,47.3c0,0,0.1,0,0.1-0.1c0,0,0-0.1-0.1-0.1C-206.9,47.2-207,47.2-206.9,47.3
	C-207,47.3-206.9,47.3-206.9,47.3z"/>
<path class="st1" d="M-225,47.2c0,0-0.1,0-0.1-0.1c0,0,0,0.1-0.1,0.1C-225.2,47.2-225.1,47.2-225,47.2
	C-225.1,47.2-225,47.2-225,47.2z"/>
<path class="st1" d="M-222.7,15.1c0,0-0.1-0.1-0.1-0.1c-5.9,2.5-10.2,8-10.8,14.6c0,0,0.1,0,0.1,0
	C-232.9,23.1-228.6,17.6-222.7,15.1z"/>
<path class="st1" d="M-233.6,29.9c0,0-0.1,0-0.1,0c0,0,0,0.1,0,0.1c0,0,0.1,0,0.1,0C-233.6,30-233.6,29.9-233.6,29.9z"/>
<path class="st1" d="M-222.5,15.1c0,0-0.1-0.1-0.1-0.1c0,0-0.1,0-0.1,0c0,0,0.1,0.1,0.1,0.1C-222.6,15.1-222.5,15.1-222.5,15.1z"/>
<path class="st1" d="M-233.5,29.7c0,0-0.1,0-0.1,0c0,0,0,0.1,0,0.1c0,0,0.1,0,0.1,0C-233.6,29.8-233.6,29.8-233.5,29.7z"/>
<path class="st1" d="M-222.7,15.1c0,0,0.1,0,0.1,0c0,0-0.1-0.1-0.1-0.1c0,0-0.1,0-0.1,0C-222.8,15.1-222.8,15.1-222.7,15.1z"/>
<path class="st1" d="M-198.3,30.1c0,0,0.1,0,0.1,0c0,0,0-0.1,0-0.1c0,0-0.1,0-0.1,0C-198.3,30-198.3,30.1-198.3,30.1z"/>
<path class="st1" d="M-198.3,29.9c0,0,0,0.1,0,0.1c0,0,0.1,0,0.1,0c0,0,0-0.1,0-0.1C-198.3,29.8-198.3,29.9-198.3,29.9z"/>
<path class="st1" d="M-215.9,36.1c-4.5,0-7.7,2.1-7.7,5c0,2.9,3.1,4.9,7.7,4.9c4.6,0,7.7-2,7.7-4.9
	C-208.2,38.2-211.4,36.1-215.9,36.1z M-215.9,45.8c-3.7,0-7.5-1.4-7.5-4.7c0-2.8,3.1-4.8,7.5-4.8s7.5,2,7.5,4.8
	C-208.5,43.9-211.5,45.8-215.9,45.8z"/>
<path class="st1" d="M-230.4,60.7C-230.4,60.7-230.4,60.8-230.4,60.7c-0.6,1.1-0.9,2.2-1,3.3c0,0,0.1,0,0.1,0c0.1-1.1,0.4-2.1,0.9-3
	C-230.4,60.9-230.4,60.8-230.4,60.7z"/>
<path class="st1" d="M-231.3,64.1c0,0-0.1,0-0.1,0c0,0,0,0.1,0,0.1c0,0,0.1,0,0.1,0C-231.3,64.2-231.3,64.2-231.3,64.1z"/>
<path class="st1" d="M-230.3,60.5c0,0.1-0.1,0.1-0.1,0.2c0,0.1,0,0.2,0,0.3c0-0.1,0.1-0.2,0.1-0.2
	C-230.3,60.7-230.3,60.6-230.3,60.5z"/>
<path class="st1" d="M-230.1,60.3c0,0.1-0.1,0.1-0.1,0.2c0,0.1,0,0.2,0,0.3c0-0.1,0.1-0.2,0.1-0.2
	C-230.2,60.4-230.1,60.4-230.1,60.3z"/>
<path class="st1" d="M-230.4,61c-0.5,0.9-0.8,2-0.9,3c0,0,0.1,0,0.1,0c0.1-0.9,0.4-1.9,0.8-2.7C-230.4,61.2-230.4,61.1-230.4,61z"/>
<path class="st1" d="M-231.2,64c0,0-0.1,0-0.1,0c0,0,0,0.1,0,0.1c0,0,0.1,0,0.1,0C-231.2,64.1-231.2,64.1-231.2,64z"/>
<path class="st1" d="M-231.2,64.1c0,0-0.1,0-0.1,0c0,0,0,0.1,0,0.1c0,0,0.1,0,0.1,0C-231.2,64.2-231.2,64.2-231.2,64.1z"/>
<path class="st1" d="M-230.4,61c0,0.1,0,0.2,0,0.3c0-0.1,0.1-0.2,0.1-0.3c0-0.1,0-0.2,0-0.2C-230.3,60.8-230.4,60.9-230.4,61z"/>
<path class="st1" d="M-230.3,61c0,0,0-0.1,0.1-0.1c0,0,0.1-0.1,0.1-0.1c0-0.1,0-0.2,0-0.3c0,0.1-0.1,0.2-0.1,0.2
	C-230.3,60.8-230.3,60.9-230.3,61z"/>
<path class="st1" d="M-201.5,60.3c0,0.1,0,0.2,0,0.3c0.4,0.8,0.8,1.8,0.9,3c0,0.1,0,0.3,0,0.4c0,0,0.1,0,0.1,0c0-0.1,0-0.2,0-0.4
	C-200.6,62.2-201,61.2-201.5,60.3z"/>
<path class="st1" d="M-200.5,64c0,0,0,0.1,0,0.1c0,0,0.1,0,0.1,0c0,0,0-0.1,0-0.1C-200.5,64-200.5,64-200.5,64z"/>
<path class="st1" d="M-201.6,60.3c0,0.1,0.1,0.2,0.1,0.2c0-0.1,0-0.2,0-0.3c0-0.1-0.1-0.2-0.1-0.2
	C-201.6,60.2-201.6,60.3-201.6,60.3z"/>
<path class="st1" d="M-201.6,60.1c0-0.1-0.1-0.2-0.1-0.2c0,0.1,0,0.2,0,0.2c0,0.1,0.1,0.2,0.1,0.2
	C-201.6,60.3-201.6,60.2-201.6,60.1z"/>
<path class="st1" d="M-201.5,60.6c0,0.1,0,0.2,0,0.3c0.4,0.8,0.7,1.7,0.8,2.8c0,0.1,0,0.3,0,0.4c0,0,0.1,0,0.1,0c0-0.1,0-0.3,0-0.4
	C-200.7,62.4-201.1,61.4-201.5,60.6z"/>
<path class="st1" d="M-200.7,64c0,0,0,0.1,0,0.1c0,0,0.1,0,0.1,0c0,0,0-0.1,0-0.1C-200.6,64-200.6,64-200.7,64z"/>
<path class="st1" d="M-201.6,60.6c0,0.1,0.1,0.2,0.1,0.2c0-0.1,0-0.2,0-0.3c0-0.1-0.1-0.2-0.1-0.2
	C-201.6,60.4-201.6,60.5-201.6,60.6z"/>
<path class="st1" d="M-201.6,60.3c0-0.1-0.1-0.2-0.1-0.2c0,0.1,0,0.2,0,0.3c0,0.1,0.1,0.1,0.1,0.2
	C-201.6,60.5-201.6,60.4-201.6,60.3z"/>
<g>
	<g>
		<path class="st2" d="M-232.2,28.9c0,0,0-0.1,0-0.1c0.1-0.2,0.2-0.3,0.3-0.3c0.1,0,0.2,0,0.4,0c0.3,0,0.4,0.2,0.4,0.5
			c0,0.2,0,0.4,0,0.5c0,1.2,0,2.5,0,3.7c0,0.1,0,0.1,0.1,0.1c0.2,0,0.4,0,0.6,0c0.3,0,0.5,0.2,0.5,0.6c0,0.3-0.2,0.5-0.5,0.5
			c-0.5,0-0.9,0-1.4,0c-0.2,0-0.4-0.1-0.5-0.3C-232.2,32.4-232.2,30.7-232.2,28.9z"/>
		<path class="st2" d="M-229.6,31.4c0-0.6,0-1.2,0-1.8c0-0.8,0.5-1.2,1.2-1.2c0.2,0,0.5,0,0.7,0.1c0.5,0.2,0.7,0.6,0.7,1.1
			c0,1.3,0,2.5,0,3.8c0,0.6-0.4,1.1-1.1,1.2c-0.2,0-0.5,0-0.7,0c-0.6-0.1-0.9-0.6-0.9-1.1C-229.6,32.7-229.6,32.1-229.6,31.4z
			 M-228.5,31.4c0,0.6,0,1.2,0,1.7c0,0,0,0.1,0,0.1c0,0.1,0.1,0.1,0.1,0.1c0.1,0,0.2-0.1,0.2-0.2c0-1.2,0-2.4,0-3.6c0,0,0,0,0,0
			c0-0.1-0.1-0.1-0.2-0.1c-0.1,0-0.1,0-0.2,0.1c0,0,0,0.1,0,0.1C-228.5,30.3-228.5,30.9-228.5,31.4z"/>
		<path class="st2" d="M-225.5,34.4c-0.1,0-0.1,0-0.2,0c-0.4,0-0.6-0.2-0.6-0.6c-0.1-1-0.2-2-0.3-3.1c-0.1-0.6-0.1-1.2-0.2-1.7
			c0-0.1,0-0.2,0-0.3c0-0.1,0.1-0.2,0.1-0.2c0.2-0.1,0.4-0.1,0.6,0c0.2,0.1,0.3,0.3,0.3,0.5c0.1,1.1,0.1,2.1,0.2,3.2
			c0,0.1,0,0.1,0,0.2c0,0,0,0.1,0.1,0.1c0.1,0,0-0.1,0.1-0.1c0-0.2,0-0.3,0-0.5c0-1,0.1-1.9,0.1-2.9c0-0.5,0.5-0.7,0.9-0.5
			c0.2,0.1,0.2,0.2,0.2,0.4c0,0.3,0,0.5-0.1,0.7c-0.1,0.5-0.1,1.1-0.2,1.6c-0.1,0.5-0.1,1.1-0.2,1.6c0,0.3-0.1,0.7-0.1,1
			c0,0.4-0.2,0.5-0.6,0.5C-225.3,34.4-225.4,34.4-225.5,34.4z"/>
		<path class="st2" d="M-221.8,30.6c0.3,0,0.5-0.2,0.5-0.5v-0.4c0-0.7-0.6-1.2-1.3-1.2c-0.7,0-1.3,0.6-1.3,1.2v1h0c0,0,0,0.1,0,0.1
			c0,0.1,0,0.1,0,0.1c0,0,0,0,0,0c0,0.4,0,0.1,0,0.5c0,0,0,0.1,0,0.2c0,0.1,0,0.2,0,0.2c0,0.4,0,0.1,0,0.5c0,0,0,0,0,0
			c0,0,0,0,0,0.1c0,0,0,0,0,0.1h0v1c0,0.7,0.6,1.2,1.3,1.2c0.7,0,1.3-0.6,1.3-1.2v-0.4c0-0.3-0.2-0.5-0.5-0.5
			c-0.3,0-0.5,0.2-0.5,0.5v0.4c0,0.1-0.1,0.2-0.2,0.2c-0.1,0-0.2-0.1-0.2-0.2v-0.1c0,0,0,0,0,0c0-0.1,0-0.9,0-1c0,0,0-0.1,0-0.1
			c0,0,0,0,0,0h0.8c0.3,0,0.5-0.2,0.5-0.5c0,0,0,0,0,0c0,0,0,0,0,0c0-0.3-0.2-0.5-0.5-0.5h-0.8c0,0,0,0,0,0c0,0,0-0.1,0-0.1
			c0-0.1,0-0.9,0-1c0,0,0,0,0,0v-0.1c0-0.1,0.1-0.2,0.2-0.2c0.1,0,0.2,0.1,0.2,0.2v0.4C-222.4,30.3-222.1,30.6-221.8,30.6z"/>
	</g>
	<g>
		<path class="st2" d="M-217.8,28.4c-0.3,0-0.5,0.1-0.7,0.2c-0.2-0.1-0.5-0.2-0.7-0.2l0,0c-0.7,0-1.3,0.6-1.3,1.3v4.3
			c0,0.3,0.3,0.6,0.6,0.6h0c0.3,0,0.6-0.3,0.6-0.6v-4.3c0-0.1,0.1-0.2,0.2-0.2c0.1,0,0.2,0.1,0.2,0.2c0,0,0,0,0,0v4.3
			c0,0.3,0.3,0.6,0.6,0.6c0,0,0,0,0,0c0,0,0,0,0,0l0,0c0.3,0,0.6-0.3,0.6-0.6v-4.3c0,0,0,0,0,0c0-0.1,0.1-0.2,0.2-0.2
			c0.1,0,0.2,0.1,0.2,0.2v4.3c0,0.3,0.3,0.6,0.6,0.6c0.3,0,0.6-0.3,0.6-0.6v-4.3C-216.6,29-217.1,28.4-217.8,28.4z"/>
		<path class="st2" d="M-214.2,30.6c0.3,0,0.5-0.2,0.5-0.5v-0.4c0-0.7-0.6-1.2-1.3-1.2c-0.7,0-1.3,0.6-1.3,1.2v1h0c0,0,0,0.1,0,0.1
			c0,0.1,0,0.1,0,0.1c0,0,0,0,0,0c0,0.4,0,0.1,0,0.5c0,0,0,0.1,0,0.2c0,0.1,0,0.2,0,0.2c0,0.4,0,0.1,0,0.5c0,0,0,0,0,0
			c0,0,0,0,0,0.1c0,0,0,0,0,0.1h0v1c0,0.7,0.6,1.2,1.3,1.2c0.7,0,1.3-0.6,1.3-1.2v-0.4c0-0.3-0.2-0.5-0.5-0.5s-0.5,0.2-0.5,0.5v0.4
			c0,0.1-0.1,0.2-0.2,0.2c-0.1,0-0.2-0.1-0.2-0.2v-0.1c0,0,0,0,0,0c0-0.1,0-0.9,0-1c0,0,0-0.1,0-0.1c0,0,0,0,0,0h0.8
			c0.3,0,0.5-0.2,0.5-0.5c0,0,0,0,0,0c0,0,0,0,0,0c0-0.3-0.2-0.5-0.5-0.5h-0.8c0,0,0,0,0,0c0,0,0-0.1,0-0.1c0-0.1,0-0.9,0-1
			c0,0,0,0,0,0v-0.1c0-0.1,0.1-0.2,0.2-0.2c0.1,0,0.2,0.1,0.2,0.2v0.4C-214.7,30.3-214.4,30.6-214.2,30.6z"/>
	</g>
	<g>
		<path class="st2" d="M-208,31.4c0-0.6,0-1.2,0-1.8c0-0.8,0.6-1.2,1.2-1.2c0.2,0,0.5,0,0.7,0.1c0.5,0.2,0.8,0.6,0.8,1.1
			c0,1.3,0,2.5,0,3.8c0,0.6-0.4,1.1-1.1,1.2c-0.2,0-0.5,0-0.7,0c-0.6-0.1-0.9-0.6-0.9-1.1C-208,32.7-208,32.1-208,31.4z
			 M-206.8,31.5c0,0.5,0,1,0,1.5c0,0.1,0,0.2,0,0.3c0,0.1,0.1,0.1,0.2,0.1c0.1,0,0.1,0,0.2-0.1c0,0,0-0.1,0-0.1c0-1.2,0-2.4,0-3.5
			c0,0,0-0.1,0-0.1c0-0.1-0.1-0.1-0.2-0.1c-0.1,0-0.1,0-0.2,0.1c0,0,0,0.1,0,0.1C-206.8,30.3-206.8,30.9-206.8,31.5z"/>
		<path class="st2" d="M-205,31.4c0-0.8,0-1.6,0-2.3c0-0.1,0-0.2,0-0.3c0.1-0.2,0.2-0.4,0.4-0.4c0.4,0,0.8-0.1,1.3,0
			c0.6,0.1,0.9,0.6,0.9,1.1c0,0.3,0,0.6,0,0.9c0,0.3-0.1,0.6-0.4,0.8c-0.1,0.1-0.1,0.1,0,0.1c0.2,0.2,0.4,0.5,0.4,0.8
			c0,0.5,0,1,0,1.5c0,0.1,0,0.1,0,0.2c-0.1,0.3-0.3,0.5-0.6,0.5c-0.3,0-0.5-0.2-0.5-0.5c0-0.6,0-1.1,0-1.7c0-0.2-0.1-0.2-0.2-0.2
			c-0.1,0-0.1,0-0.1,0.1c0,0.1,0,0.3,0,0.4c0,0.4,0,0.8,0,1.3c0,0.1,0,0.1,0,0.2c-0.1,0.3-0.3,0.5-0.6,0.4c-0.3,0-0.5-0.2-0.5-0.5
			c0-0.2,0-0.5,0-0.7C-205,32.6-205,32-205,31.4z M-203.5,30.2c0-0.1,0-0.1,0-0.2c0-0.1,0-0.3,0-0.4c0-0.1-0.1-0.2-0.2-0.1
			c-0.1,0-0.1,0.1-0.1,0.2c0,0.4,0,0.7,0,1.1c0,0.1,0.1,0.2,0.2,0.1c0.1,0,0.1-0.1,0.1-0.2C-203.5,30.6-203.5,30.4-203.5,30.2z"/>
		<path class="st2" d="M-209.6,28.4c-0.3,0-0.5,0.1-0.7,0.2c-0.2-0.1-0.5-0.2-0.7-0.2l0,0c-0.7,0-1.3,0.6-1.3,1.3v4.3
			c0,0.3,0.3,0.6,0.6,0.6h0c0.3,0,0.6-0.3,0.6-0.6v-4.3c0-0.1,0.1-0.2,0.2-0.2c0.1,0,0.2,0.1,0.2,0.2c0,0,0,0,0,0v4.3
			c0,0.3,0.3,0.6,0.6,0.6c0,0,0,0,0,0c0,0,0,0,0,0l0,0c0.3,0,0.6-0.3,0.6-0.6v-4.3c0,0,0,0,0,0c0-0.1,0.1-0.2,0.2-0.2
			c0.1,0,0.2,0.1,0.2,0.2v4.3c0,0.3,0.3,0.6,0.6,0.6c0.3,0,0.6-0.3,0.6-0.6v-4.3C-208.3,29-208.9,28.4-209.6,28.4z"/>
		<path class="st2" d="M-200,30.6c0.3,0,0.5-0.2,0.5-0.5v-0.4c0-0.7-0.6-1.2-1.3-1.2c-0.7,0-1.3,0.6-1.3,1.2v1h0c0,0,0,0.1,0,0.1
			c0,0.1,0,0.1,0,0.1c0,0,0,0,0,0c0,0.4,0,0.1,0,0.5c0,0,0,0.1,0,0.2c0,0.1,0,0.2,0,0.2c0,0.4,0,0.1,0,0.5c0,0,0,0,0,0
			c0,0,0,0,0,0.1c0,0,0,0,0,0.1h0v1c0,0.7,0.6,1.2,1.3,1.2c0.7,0,1.3-0.6,1.3-1.2v-0.4c0-0.3-0.2-0.5-0.5-0.5
			c-0.3,0-0.5,0.2-0.5,0.5v0.4c0,0.1-0.1,0.2-0.2,0.2c-0.1,0-0.2-0.1-0.2-0.2v-0.1c0,0,0,0,0,0c0-0.1,0-0.9,0-1c0,0,0-0.1,0-0.1
			c0,0,0,0,0,0h0.8c0.3,0,0.5-0.2,0.5-0.5c0,0,0,0,0,0c0,0,0,0,0,0c0-0.3-0.2-0.5-0.5-0.5h-0.8c0,0,0,0,0,0c0,0,0-0.1,0-0.1
			c0-0.1,0-0.9,0-1c0,0,0,0,0,0v-0.1c0-0.1,0.1-0.2,0.2-0.2c0.1,0,0.2,0.1,0.2,0.2v0.4C-200.6,30.3-200.3,30.6-200,30.6z"/>
	</g>
</g>
<g>
	<g>
		<path class="st1" d="M-226.3,71.8h5.5c1.6,0,3.2-0.9,3.9-2.3c0.7-1.3,1.1-3.1,0.8-5.6c-0.7-5.9-5.6-6.7-7.7-6.7
			c-6.4,0-9.4,7.9-6.2,12.8C-229.2,71.1-227.8,71.8-226.3,71.8z"/>
	</g>
	<g>
		<path class="st1" d="M-211,71.8h5.5c1.6,0,3.2-0.9,3.9-2.3c0.7-1.3,1.1-3.1,0.8-5.6c-0.7-5.9-5.6-6.7-7.7-6.7
			c-6.4,0-9.4,7.9-6.2,12.8C-213.8,71.1-212.4,71.8-211,71.8z"/>
	</g>
</g>
<path class="st2" d="M-214.2,38.2c-0.5-0.2-1.4-0.2-1.8-0.2c-0.4,0-1.2,0-1.8,0.2c-1.2,0.4,0.2,2,0.8,2.3c0.6,0.3,1.4,0.3,2,0
	C-214.3,40.2-213,38.6-214.2,38.2z"/>
<g>
	<path d="M838.4-12.4c0-1.1,0-2.3,0-2.3c0-6.9,0-12.6,0-19.5c0-2.3,0-2.3,2.3-3.4c3.4-1.1,6.9-3.4,8-8c1.1-6.9-2.3-12.6-9.2-14.9
		c-2.3-1.1-4.6-1.1-8-1.1c-5.7,0-10.3,0-16.1,0c-1.1,0-1.1,0-2.3,0c0-6.9,0-13.8,0-21.8c1.1,0,1.1,0,2.3,0c6.9,0,12.6,0,18.4,0
		c4.6,0,8-2.3,9.2-6.9c1.1-3.4,1.1-8-2.3-11.5c-1.1-1.1-2.3-2.3-3.4-2.3s-1.1-1.1-1.1-1.1c0-6.9,0-14.9,0-21.8v-1.1
		c9.2,0,17.2,3.4,24.1,9.2c8,6.9,11.5,14.9,10.3,25.2c-1.1,8-3.4,13.8-9.2,19.5l-1.1,1.1c2.3,2.3,5.7,4.6,8,8
		c9.2,12.6,9.2,29.8-1.1,41.3C860.2-16.9,848.7-12.4,838.4-12.4z"/>
	<path d="M932.5-10.1c-6.9-6.9-12.6-12.6-18.4-19.5l1.1-1.1c10.3-8,19.5-16.1,26.4-27.5c4.6-8,8-16.1,9.2-24.1
		c1.1-9.2-1.1-17.2-9.2-22.9l-1.1-1.1c0-8,0-16.1,0-24.1c2.3,0,4.6,1.1,6.9,1.1c16.1,3.4,28.7,18.4,31,34.4
		c1.1,11.5-1.1,21.8-4.6,32.1c-4.6,12.6-12.6,24.1-22.9,33.3C943.9-21.5,938.2-15.8,932.5-10.1z"/>
	<path d="M924.4-51.3c-24.1-3.4-36.7-19.5-36.7-40.1c0-22.9,16.1-36.7,36.7-39c0,1.1,0,1.1,0,2.3c0,6.9,0,13.8,0,21.8
		c0,1.1,0,2.3-1.1,2.3c-11.5,6.9-11.5,20.6,0,27.5c1.1,0,1.1,1.1,1.1,2.3C924.4-67.4,924.4-59.4,924.4-51.3L924.4-51.3z"/>
	<path d="M822.4-12.4c-14.9-2.3-27.5-8-35.6-21.8c6.9-4.6,12.6-9.2,18.4-13.8c3.4,3.4,6.9,6.9,11.5,9.2c1.1,1.1,3.4,1.1,4.6,2.3
		c1.1,0,1.1,1.1,1.1,1.1C822.4-27.3,822.4-20.4,822.4-12.4L822.4-12.4z"/>
	<path d="M805.2-93.8c-5.7-4.6-11.5-9.2-17.2-13.8c8-12.6,19.5-18.4,33.3-20.6c0,1.1,0,1.1,0,1.1c0,6.9,0,13.8,0,20.6
		c0,1.1,0,1.1-1.1,2.3C814.3-103,809.7-99.5,805.2-93.8C806.3-93.8,805.2-93.8,805.2-93.8z"/>
</g>
<g>
	<path class="st2" d="M61.1,65c-17,0-34.1,0-51.1,0c-0.6-0.4-0.8-1-0.8-1.7c0-11.8,0-23.6,0-35.4c0-0.2,0.1-0.5,0.1-0.7
		c1-2.5,2.1-5,3.1-7.5c0.2-0.4,0.3-0.9,0.3-1.3c0-2.7,0-5.4,0-8.1c0-0.6,0-1.1,0.1-1.7c0.6-3.3,3.3-5.4,6.7-5.4c10.3,0,20.7,0,31,0
		c0.5,0,1.1,0,1.6,0c3.3,0.1,6.2,2.9,6.3,6.2c0.1,3,0,6,0.1,9c0,0.4,0.1,0.8,0.2,1.2c0.9,2.2,1.8,4.5,2.8,6.7
		c0.4,0.9,0.5,1.7,0.5,2.7c0,11.5,0,22.9,0,34.4C62.1,64,61.9,64.6,61.1,65z M59.6,29c-16,0-31.9,0-47.8,0c0,11.2,0,22.3,0,33.5
		c16,0,31.9,0,47.8,0C59.6,51.3,59.6,40.2,59.6,29z M56.1,18c0-0.2,0-0.3,0-0.4c0-2.6,0-5.2,0-7.8c0-0.2,0-0.5-0.1-0.7
		c-0.4-2.1-2.1-3.4-4.3-3.4c-10.7,0-21.5,0-32.2,0c-0.3,0-0.6,0-0.8,0.1c-1.9,0.3-3.4,2-3.5,3.9c0,2.7,0,5.5,0,8.2
		c0,0.1,0,0.1,0.1,0.2C28.9,18,42.4,18,56.1,18z M59,26.4c-0.8-1.9-1.5-3.6-2.2-5.4c-0.2-0.4-0.3-0.5-0.8-0.5c-4.2,0-8.5,0-12.7,0
		c-9.3,0-18.5,0-27.8,0c-0.5,0-0.7,0.1-0.9,0.6c-0.6,1.5-1.3,3-1.9,4.6c-0.1,0.2-0.2,0.5-0.3,0.8C27.9,26.4,43.4,26.4,59,26.4z"/>
	<path class="st2" d="M35.6,7.4c2.1,0,4.1,0,6.2,0c1.9,0,3.2,0.9,4,2.6c0.7,1.6,0.5,3.2-0.6,4.6c-0.7,0.9-1.7,1.4-2.9,1.5
		c-0.3,0-0.6,0-0.8,0c-3.8,0-7.7,0-11.5,0c-2.4,0-4.1-1.3-4.7-3.4c-0.6-2.6,1.2-5.2,3.9-5.4C31.3,7.4,33.5,7.4,35.6,7.4
		C35.6,7.4,35.6,7.4,35.6,7.4z M35.6,9.9c-2,0-4,0-6,0c-1.2,0-2.1,0.8-2.1,1.9c0,1.1,0.9,2,2.1,2c4,0,8,0,11.9,0
		c1.3,0,2.1-0.8,2.1-2c0-1.1-0.9-1.9-2.1-1.9C39.6,9.9,37.6,9.9,35.6,9.9z"/>
</g>
<g>
	<defs>
		<rect id="SVGID_1_" x="21.6" y="30.7" width="28" height="33.7"/>
	</defs>
	<clipPath id="SVGID_00000057113422760376134260000001910308332298899854_">
		<use xlink:href="#SVGID_1_"  style="overflow:visible;"/>
	</clipPath>
	<g style="clip-path:url(#SVGID_00000057113422760376134260000001910308332298899854_);">
		<path class="st4" d="M31.5,43.8c0,0,0.7,0.3,1.5,0.3c0.4,0,0.9-0.1,1.3-0.4c0.2-0.1,0.2-0.4,0.1-0.6c-0.1-0.2-0.4-0.2-0.6-0.1
			c-0.7,0.5-1.9,0-1.9,0c-0.2-0.1-0.5,0-0.6,0.2C31.2,43.5,31.3,43.7,31.5,43.8z"/>
		<path class="st4" d="M37.7,43.8c0,0,0.7,0.3,1.5,0.3c0.4,0,0.9-0.1,1.3-0.4c0.2-0.1,0.2-0.4,0.1-0.6c-0.1-0.2-0.4-0.2-0.6-0.1
			c-0.7,0.5-1.9,0-1.9,0c-0.2-0.1-0.5,0-0.6,0.2C37.4,43.5,37.5,43.7,37.7,43.8z"/>
		<path class="st4" d="M35.6,45.8c0.2,0.1,0.4,0.2,0.7,0.2c0.2,0,0.5-0.1,0.7-0.2c0.5-0.2,0.8-0.7,0.8-1.2c0-0.8-0.6-1.4-1.4-1.4
			c-0.2,0-0.4,0.2-0.4,0.4c0,0.2,0.2,0.4,0.4,0.4c0.3,0,0.6,0.2,0.6,0.5c0,0.2-0.1,0.4-0.3,0.5c-0.1,0-0.3,0.1-0.5,0
			c-0.2-0.1-0.5-0.1-0.6,0.1C35.3,45.4,35.4,45.7,35.6,45.8z"/>
		<path class="st4" d="M46.3,60.6c0-0.1,0-0.2,0-0.4c0-0.9-0.2-1.7-0.6-2.2c-0.1-0.2-0.2-0.3-0.4-0.4l0.3-2.3l0,0
			c0-0.4-0.1-0.8-0.3-1.1c-0.2-0.3-0.6-0.4-0.9-0.4h-2.9v-3.7c0,0,0,0,0-0.1c0-0.4-0.2-0.8-0.5-1l-0.4-0.3c0.4-0.4,0.7-0.9,0.9-1.5
			c0.5-1.2,0.5-2.4,0.5-3.1v-3.9c0-0.6,0.1-1.3,0-1.7c-0.8-4.4-4.6-7-9.4-7c-5.3,0-9.6,4-9.6,9c0,1.6,0.4,3,1.1,4.1
			c0,0.2-0.1,0.3-0.1,0.5c0,0.8,0.2,1.4,0.6,1.9c0.3,0.3,0.7,0.6,1.2,0.6v0.6c0,0.2,0.2,0.4,0.4,0.4h1.4c0.7,0.9,1.8,1.5,2.4,1.7
			c0.8,0.3,0.8,0.8,0.8,1.7c0,0.1,0,0.1,0,0.2c0,0,0,0,0,0.1c0,0,0,0-0.1,0c-1.7,0.6-3.4,1.8-4.6,3.4c-0.6,0.8-1.1,1.8-1.5,2.8
			c-0.4,1-0.5,2.1-0.5,3.2V64c0,0.3,0.2,0.6,0.6,0.6c0.3,0,0.6-0.2,0.6-0.6v-2.2c0-4.2,3-7.4,5.9-8.4c0,0,0.1,0,0.1,0h5.1
			c0,0,0.1,0,0.1,0c0.4,0.2,0.9,0.3,1.3,0.6H37c-0.3,0-0.7,0.2-0.9,0.4c-0.2,0.3-0.4,0.7-0.3,1l0.6,5.4v0l0.6,5.5
			c0.1,0.7,0.6,1.2,1.3,1.2h4.9c0.6,0,1.2-0.5,1.3-1.2l0.2-2.2c0.4,0,0.8-0.2,1.1-0.5C46.3,63.2,46.3,62.1,46.3,60.6z M43.4,57.5
			c-0.4,0-0.7,0.2-0.9,0.5c0,0,0,0.1-0.1,0.1c-0.2,0.3-0.3,0.6-0.3,1c0,0.2,0.1,0.5,0.2,0.6c-0.1,0.2-0.1,0.4-0.1,0.6
			c0,0.3,0.1,0.5,0.2,0.8c0,0.1-0.1,0.3-0.1,0.4c0,0.3,0.1,0.6,0.2,0.8c0,0.1-0.1,0.3-0.1,0.4c0,0.5,0.2,0.9,0.5,1.1
			c0.1,0.1,0.3,0.2,0.5,0.3l-0.2,2.2c0,0.1-0.1,0.2-0.1,0.2h-4.9c-0.1,0-0.1-0.1-0.1-0.2l-0.3-3h1c0.3,0,0.5-0.2,0.5-0.5
			s-0.2-0.5-0.5-0.5h-1.1l-0.1-1h1.3c0.3,0,0.5-0.2,0.5-0.5s-0.2-0.5-0.5-0.5h-1.4l-0.1-1h1.6c0.3,0,0.5-0.2,0.5-0.5
			s-0.2-0.5-0.5-0.5h-1.7l-0.1-1H39c0.2,0,0.4-0.2,0.5-0.4c0,0,0-0.1,0-0.1c0-0.2-0.2-0.5-0.4-0.5c0,0-0.1,0-0.1,0h-2l-0.1-1
			c0-0.1,0-0.2,0.1-0.2c0,0,0.1,0,0.1,0h2h0.2h0.7l0,0h0.7l0,0h0.2h0.7h2.9c0,0,0.1,0,0.1,0c0,0,0.1,0.1,0.1,0.2l-0.2,2.1
			C43.9,57.5,43.7,57.5,43.4,57.5z M40.6,50C40.6,50.1,40.6,50.1,40.6,50C40.6,50.1,40.6,50.1,40.6,50c0.1,0.1,0.1,0.1,0.1,0.2
			c0,0,0,0,0,0v0v0c0,0,0,0,0,0V54h-0.7v-3.6l-0.6-0.5l-0.5-0.4l-0.5-0.4l-1.2-1h0c-0.1-0.1-0.2-0.2-0.2-0.3c0-0.1,0-0.1,0.1-0.2
			c0,0,0,0,0,0c0,0,0,0,0.1-0.1c0,0,0,0,0.1,0c0,0,0,0,0,0c0,0,0.1,0,0.1,0c0,0,0,0,0.1,0c0,0,0,0,0.1,0c0,0,0,0,0,0l0,0l1.5,1.2
			l0.5,0.4l0.5,0.4l0.6,0.5l0,0l0,0C40.5,50,40.5,50,40.6,50z M30.3,49.3c-0.5-0.2-1.5-0.8-2-1.5c-0.1-0.1-0.3-0.6-0.4-1
			c-0.1-0.1-0.2-0.3-0.3-0.3c-0.1-0.1-0.3-0.1-0.4,0c0,0-0.1,0-0.2,0.1c-0.2,0.1-0.4,0.1-0.7,0.1c-0.4,0-0.7-0.1-0.9-0.3
			c-0.2-0.2-0.4-0.6-0.3-1.1c0-0.7,0.5-1.2,1.2-1.2c0.2,0,0.4,0.1,0.6,0.2c0.1,0.1,0.3,0.1,0.5,0.1c0,0,0.1,0,0.1,0
			c0.1-0.1,0.2-0.1,0.3-0.2l0.3-0.6l2.1-4h10.7v1.3v3.5c0,1.2-0.2,2.8-1.3,4L38,46.9c0,0,0,0-0.1,0c-0.2-0.1-0.4-0.2-0.6-0.2
			c-0.4,0-0.8,0.2-1,0.5c-0.4,0.5-0.2,1.3,0.3,1.7l0.9,0.7c-0.2,0.1-0.5,0.3-0.7,0.6c-0.4,0.5-0.5,1.2-0.4,2.2h-4.5
			c0-0.1,0-0.1,0-0.2c0-0.5,0-1-0.2-1.5C31.4,50,31,49.6,30.3,49.3z M36.8,52.3L36.8,52.3L36.8,52.3L36.8,52.3z M36.8,52.3
			C36.8,52.3,36.8,52.3,36.8,52.3C36.8,52.3,36.8,52.3,36.8,52.3z M37.5,52.6L37.5,52.6c0-0.1,0-0.2-0.1-0.4c-0.1-0.7,0-1.2,0.2-1.5
			c0.2-0.2,0.4-0.3,0.7-0.4h0c0,0,0.1,0,0.1,0l0,0l0.6,0.5v2.7C38.6,53.2,38,52.9,37.5,52.6z M45.5,61.1c0,0.1,0,0.1,0,0.2
			s0,0.1,0,0.2c0,0.1,0,0.2,0,0.2s0,0.1,0,0.2c0,0,0,0.1,0,0.1c0,0,0,0.1,0,0.1c0,0,0,0,0,0.1c0,0,0,0.1,0,0.1c0,0,0,0,0,0.1
			c0,0.1,0,0.1,0,0.2c0,0,0,0,0,0.1c0,0,0,0.1,0,0.1c0,0,0,0,0,0.1c0,0,0,0.1,0,0.1c0,0,0,0,0,0c0,0,0,0.1,0,0.1c0,0,0,0,0,0.1
			c0,0,0,0.1-0.1,0.1c0,0,0,0,0,0.1c0,0-0.1,0.1-0.1,0.1c0,0-0.1,0.1-0.1,0.1c0,0-0.1,0-0.1,0.1c0,0-0.1,0-0.1,0c0,0,0,0,0,0
			c0,0,0,0,0,0c0,0-0.1,0-0.1,0c0,0-0.1,0-0.1,0l0,0l0,0c0,0,0,0,0,0l0,0l0,0c0,0,0,0,0,0l0,0c0,0,0,0,0,0l0,0c0,0,0,0,0,0l0,0
			c0,0,0,0,0,0l0,0c0,0,0,0,0,0l0,0c0,0,0,0,0,0l0,0c0,0,0,0,0,0l0,0c0,0,0,0,0,0c0,0,0,0,0,0s0,0,0,0l0,0h0c0,0,0,0,0,0l0,0
			c0,0,0,0-0.1,0l0,0c0,0,0,0-0.1,0c0,0,0,0,0,0s0,0-0.1,0c0,0,0,0,0,0s0,0-0.1,0l0,0c0,0,0,0-0.1,0l0,0h0c-0.1,0-0.1,0-0.2-0.1
			c0,0-0.1,0-0.1,0c-0.1,0-0.1-0.1-0.1-0.1c0,0,0-0.1-0.1-0.1c0-0.1-0.1-0.2-0.1-0.3c0,0,0,0,0,0v0c0,0,0,0,0,0v0c0,0,0,0,0,0h0.3
			h0.5c0,0,0,0,0,0c0.2,0,0.4-0.2,0.4-0.4c0-0.2-0.1-0.3-0.3-0.4c0,0-0.1,0-0.1,0h-0.4h-0.5c-0.1-0.1-0.1-0.2-0.1-0.3c0,0,0,0,0-0.1
			v0c0,0,0,0,0,0v0c0,0,0,0,0,0h0.6h0.4c0.1,0,0.2,0,0.2-0.1c0.1-0.1,0.2-0.2,0.2-0.3c0-0.1,0-0.2-0.1-0.3c-0.1-0.1-0.2-0.1-0.3-0.1
			h-0.3H43h0c0,0,0,0,0,0v0c0,0,0,0,0,0l0,0c0,0,0,0,0-0.1v0c0,0,0,0,0,0v0c0,0,0,0,0-0.1l0,0c0,0,0,0,0-0.1v0c0,0,0,0,0,0v0
			c0,0,0,0,0,0v0c0,0,0,0,0,0c0,0,0,0,0,0v0c0,0,0,0,0,0h0.9h0.2c0.2,0,0.3-0.1,0.4-0.3c0,0,0-0.1,0-0.1l0,0c0-0.2-0.2-0.4-0.4-0.4
			H44h-1c0,0-0.1,0-0.1,0l0,0c0,0,0,0,0,0c0,0,0,0,0,0c0,0,0,0,0,0v0c0,0,0,0,0,0v0c0,0,0,0,0,0v0c0,0,0,0,0-0.1c0,0,0,0,0-0.1
			c0-0.1,0-0.1,0-0.2c0,0,0,0,0-0.1c0,0,0,0,0-0.1c0,0,0,0,0,0c0,0,0-0.1,0.1-0.1c0,0,0.1,0,0.1-0.1c0,0,0.1,0,0.1,0
			c0,0,0.1,0,0.1,0c0,0,0.1,0,0.1,0c0,0,0,0,0.1,0h0c0,0,0,0,0,0h0c0,0,0,0,0.1,0h0c0,0,0,0,0,0h0c0,0,0,0,0.1,0l0,0c0,0,0,0,0.1,0
			h0c0,0,0,0,0,0c0,0,0,0,0,0s0,0,0.1,0h0c0,0,0,0,0,0h0c0,0,0,0,0,0l0,0c0,0,0,0,0,0h0c0,0,0,0,0,0c0,0,0,0,0,0c0,0,0,0,0,0
			s0,0,0,0h0c0,0,0,0,0,0h0c0,0,0,0,0,0c0,0,0,0,0,0s0,0,0,0h0h0h0h0h0h0c0,0,0,0,0,0l0,0c0,0,0,0,0.1,0l0,0c0,0,0,0,0,0l0,0h0
			c0,0,0,0,0.1,0s0,0,0,0c0,0,0.1,0,0.1,0c0,0,0,0,0,0l0,0c0,0,0,0,0.1,0s0,0,0.1,0l0,0c0,0,0,0,0,0c0,0,0,0,0,0s0,0,0.1,0.1
			c0,0,0,0,0,0c0,0,0,0.1,0.1,0.1c0,0,0,0,0,0c0,0,0.1,0.1,0.1,0.1l0,0c0,0,0,0.1,0.1,0.2c0,0,0,0.1,0,0.1c0,0,0,0.1,0,0.1
			c0,0,0,0.1,0,0.1c0.1,0.2,0.1,0.6,0.1,0.9c0,0.1,0,0.3,0,0.4c0,0.1,0,0.1,0,0.2s0,0.1,0,0.2C45.5,61,45.5,61.1,45.5,61.1z"/>
	</g>
</g>
</svg>
