<?xml version="1.0" encoding="utf-8"?>
<!-- Generator: Adobe Illustrator 27.5.0, SVG Export Plug-In . SVG Version: 6.00 Build 0)  -->
<svg version="1.1" id="레이어_1" xmlns="http://www.w3.org/2000/svg" xmlns:xlink="http://www.w3.org/1999/xlink" x="0px"
	 y="0px" viewBox="0 0 71.3 65.9" style="enable-background:new 0 0 71.3 65.9;" xml:space="preserve">
<style type="text/css">
	.st0{fill:none;}
	.st1{fill:none;stroke:#000000;stroke-width:2.5;stroke-miterlimit:10;}
</style>
<path class="st0" d="M20.9,53.4c0-1.8,0.3-3.7,0.9-5.5c0,0,1.1-4.1,4.1-7.9c-0.9-0.5-1.7-1-2.5-1.6c-1.7,1.2-4.9,3.9-6.4,8.2
	c-1.2,3.5-1.3,6.2-0.1,8c0.9,1.4,2.2,1.9,2.9,2.1C20,55.5,20.3,54.5,20.9,53.4C20.9,53.4,20.9,53.4,20.9,53.4z"/>
<path class="st0" d="M48.9,47.8c0.6,1.7,0.8,3.5,0.9,5.1c0.5,0.9,0.9,1.9,1,3.3c0,0.1,0,0.3,0,0.4c0.8-0.2,2.1-0.7,2.9-2.1
	c1.2-1.8,1.1-4.5-0.1-8c-1.5-4.3-4.6-7-6.4-8.2c-0.8,0.6-1.7,1.2-2.6,1.7C47.7,43.7,48.9,47.7,48.9,47.8z"/>
<path class="st0" d="M35.4,38.7c-4.6,0-7.7-2-7.7-4.9c0-3,3.2-5,7.7-5s7.7,2.1,7.7,5C43.1,36.8,40,38.7,35.4,38.7z"/>
<path class="st0" d="M35.3,29c-4.4,0-7.5,2-7.5,4.8c0,3.2,3.8,4.7,7.5,4.7c4.5,0,7.5-1.9,7.5-4.7C42.8,31,39.7,29,35.3,29z"/>
<path class="st1" d="M16.9,46.5c1.5-4.3,4.6-7,6.4-8.2c0,0-0.1,0-0.1-0.1c-1.8,1.3-4.9,4-6.4,8.3c-1.3,3.6-1.3,6.3-0.1,8.2
	c0.9,1.4,2.3,2,3.1,2.2c0,0,0-0.1,0-0.1C18.2,56.3,14.1,54.4,16.9,46.5z"/>
<path class="st1" d="M16.9,54.5c-1.2-1.8-1.1-4.5,0.1-8c1.5-4.3,4.6-7,6.4-8.2c0,0-0.1-0.1-0.1-0.1c-1.8,1.3-4.9,4-6.4,8.2
	c-2.8,7.9,1.3,9.8,2.9,10.3c0,0,0-0.1,0-0.1C19.1,56.4,17.8,55.9,16.9,54.5z"/>
<path class="st1" d="M53.7,46.5c1.2,3.5,1.3,6.2,0.1,8c-0.9,1.3-2.2,1.9-2.9,2.1c0,0,0,0.1,0,0.1c1.6-0.4,5.7-2.3,2.9-10.3
	c-1.5-4.3-4.6-7-6.4-8.2c0,0-0.1,0.1-0.1,0.1C49,39.6,52.2,42.3,53.7,46.5z"/>
<path class="st1" d="M53.8,46.5c2.8,7.9-1.3,9.8-2.9,10.3c0,0,0,0.1,0,0.1c0.8-0.2,2.2-0.8,3.1-2.2c1.2-1.9,1.2-4.7-0.1-8.2
	c-1.5-4.3-4.6-7-6.4-8.3c0,0-0.1,0-0.1,0.1C49.2,39.5,52.3,42.2,53.8,46.5z"/>
<path class="st1" d="M27.4,49.8"/>
<path class="st1" d="M49.5,52.9c-0.1-1.5-0.3-3.1-0.9-4.6l0,0c0,0-1.2-4.1-4.2-7.8c-2.5,1.2-5.6,1.8-9.1,1.8c-3.6,0-6.6-0.6-9.2-1.9
	c-3,3.7-4.1,7.8-4.1,7.9"/>
<path class="st1" d="M21.9,47.9c0,0,1-4.1,4.1-7.9c0,0-0.1,0-0.1-0.1c-3,3.8-4.1,7.9-4.1,7.9c-0.6,1.9-0.9,3.8-0.9,5.5
	c0-0.1,0.1-0.1,0.1-0.2C21,51.5,21.3,49.7,21.9,47.9z"/>
<path class="st1" d="M48.8,47.9c0.6,1.6,0.8,3.3,0.9,4.9c0,0.1,0.1,0.1,0.1,0.2c-0.1-1.7-0.3-3.4-0.9-5.1c0-0.1-1.2-4.2-4.2-7.9
	c0,0-0.1,0-0.1,0.1C47.6,43.8,48.8,47.9,48.8,47.9z"/>
<path class="st1" d="M48.7,47.9L48.7,47.9c0.5,1.6,0.8,3.1,0.9,4.6c0,0.1,0.1,0.2,0.1,0.2c-0.1-1.6-0.3-3.2-0.9-4.9
	c0,0-1.1-4.1-4.2-7.8c0,0-0.1,0-0.1,0.1C47.5,43.8,48.6,47.9,48.7,47.9z"/>
<path class="st1" d="M26.1,40c0,0-0.1,0-0.1-0.1c-3.1,3.8-4.1,7.9-4.1,7.9c-0.6,1.8-0.9,3.6-0.9,5.3c0-0.1,0.1-0.1,0.1-0.2
	c0.1-1.6,0.3-3.3,0.9-5.1C22,47.9,23.1,43.8,26.1,40z"/>
<path class="st1" d="M28.4,7.6c-1.7-1.9-4.2-3.2-7.1-3.2c-5.2,0-9.4,4.2-9.4,9.3c0,3.8,2.3,7.1,5.6,8.5
	C18.2,15.7,22.5,10.1,28.4,7.6z"/>
<path class="st1" d="M53.2,22.5c3.5-1.4,6-4.7,6-8.7c0-5.1-4.2-9.3-9.4-9.3c-2.9,0-5.4,1.3-7.2,3.3C48.4,10.3,52.6,15.9,53.2,22.5z"
	/>
<path class="st1" d="M35.3,6.3c2.5,0,4.8,0.5,6.9,1.4c0,0,0.1-0.1,0.1-0.1c-2.2-0.9-4.5-1.4-7-1.4c-2.4,0-4.6,0.5-6.7,1.3
	c0,0,0.1,0.1,0.1,0.1C30.8,6.8,33,6.3,35.3,6.3z"/>
<path class="st1" d="M44.7,40c0.9-0.5,1.8-1,2.6-1.7c0,0-0.1-0.1-0.1-0.1c-0.8,0.6-1.6,1.2-2.6,1.6C44.6,39.9,44.7,40,44.7,40z"/>
<path class="st1" d="M26,39.8c-0.9-0.5-1.7-1-2.5-1.6c0,0-0.1,0-0.1,0.1c0.8,0.6,1.6,1.2,2.5,1.6C25.9,39.9,26,39.9,26,39.8z"/>
<path class="st1" d="M53.2,24.1c0,5.7-1.8,10.8-5.8,14c0,0,0.1,0,0.1,0.1c0.6-0.5,1.1-0.9,1.6-1.5c2.8-3.1,4.2-7.4,4.2-12.6
	c0-0.5,0-0.9-0.1-1.4c0,0-0.1,0-0.1,0C53.1,23.2,53.2,23.6,53.2,24.1z"/>
<path class="st1" d="M17.5,24.1c0-0.5,0-1,0.1-1.4c0,0-0.1,0-0.1-0.1c0,0.5-0.1,1-0.1,1.5c0,5.2,1.5,9.6,4.2,12.6
	c0.5,0.5,1,1,1.6,1.5c0,0,0.1,0,0.1-0.1C19.3,34.9,17.5,29.8,17.5,24.1z"/>
<path class="st1" d="M23.4,38.2C23.4,38.1,23.3,38.1,23.4,38.2c-0.1-0.1-0.2,0-0.2,0c0,0,0.1,0,0.1,0.1
	C23.3,38.2,23.3,38.2,23.4,38.2z"/>
<path class="st1" d="M23.5,38.3c0,0-0.1-0.1-0.1-0.1c0,0-0.1,0-0.1,0.1c0,0,0.1,0.1,0.1,0.1C23.4,38.3,23.5,38.3,23.5,38.3z"/>
<path class="st1" d="M47.3,38.2c0,0,0.1,0,0.1,0.1c0,0,0.1,0,0.1-0.1C47.5,38.1,47.4,38.1,47.3,38.2C47.4,38.1,47.3,38.1,47.3,38.2z
	"/>
<path class="st1" d="M47.3,38.3c0,0,0.1-0.1,0.1-0.1c0,0-0.1,0-0.1-0.1c0,0-0.1,0.1-0.1,0.1C47.2,38.3,47.3,38.3,47.3,38.3z"/>
<path class="st1" d="M44.5,40.1c0,0-0.1-0.1-0.1-0.1c-2.4,1.2-5.4,1.8-9,1.8c-3.7,0-6.7-0.7-9.1-1.9c0,0-0.1,0.1-0.1,0.1
	c2.6,1.2,5.6,1.9,9.2,1.9C38.9,41.9,41.9,41.3,44.5,40.1z"/>
<path class="st1" d="M44.6,40c0,0,0.1,0,0.1-0.1c0,0-0.1-0.1-0.1-0.1c0,0-0.1,0-0.1,0.1C44.5,40,44.5,40,44.6,40z"/>
<path class="st1" d="M26.1,39.9c0,0-0.1,0-0.1-0.1c0,0-0.1,0.1-0.1,0.1c0,0,0.1,0,0.1,0.1C26,40,26.1,39.9,26.1,39.9z"/>
<path class="st1" d="M26.1,40c0,0,0.1-0.1,0.1-0.1c0,0-0.1,0-0.1-0.1c0,0-0.1,0.1-0.1,0.1C26,40,26.1,40,26.1,40z"/>
<path class="st1" d="M44.5,40.1c0,0,0.1,0,0.1-0.1c0,0-0.1-0.1-0.1-0.1c0,0-0.1,0-0.1,0.1C44.4,40,44.4,40.1,44.5,40.1z"/>
<path class="st1" d="M28.5,7.7C28.4,7.7,28.4,7.7,28.5,7.7c-6,2.4-10.3,8-11,14.6c0,0,0.1,0,0.1,0.1C18.3,15.7,22.5,10.2,28.5,7.7z"
	/>
<path class="st1" d="M28.6,7.7c0,0,0.1,0,0.1,0c0,0-0.1-0.1-0.1-0.1C28.6,7.5,28.5,7.6,28.6,7.7C28.5,7.6,28.6,7.6,28.6,7.7z"/>
<path class="st1" d="M17.6,22.5c0,0-0.1,0-0.1-0.1c0,0,0,0.1,0,0.1c0,0,0.1,0,0.1,0.1C17.6,22.6,17.6,22.5,17.6,22.5z"/>
<path class="st1" d="M17.5,22.3c0,0,0,0.1,0,0.1c0,0,0.1,0,0.1,0.1c0,0,0-0.1,0-0.1C17.6,22.3,17.5,22.3,17.5,22.3z"/>
<path class="st1" d="M28.5,7.7c0,0,0.1,0,0.1,0c0,0-0.1-0.1-0.1-0.1C28.5,7.6,28.4,7.6,28.5,7.7C28.4,7.7,28.4,7.7,28.5,7.7z"/>
<path class="st1" d="M42.5,7.8c5.8,2.5,10,8.1,10.6,14.7c0,0,0.1,0,0.1,0"/>
<path class="st1" d="M53.1,22.6c0,0,0,0.1,0,0.1c0,0,0.1,0,0.1,0c0,0,0-0.1,0-0.1C53.2,22.6,53.1,22.6,53.1,22.6z"/>
<path class="st1" d="M53.1,22.5c0,0,0,0.1,0,0.1c0,0,0.1,0,0.1,0c0,0,0-0.1,0-0.1C53.2,22.5,53.1,22.5,53.1,22.5z"/>
<path class="st1" d="M44.6,39.9c0.9-0.5,1.8-1,2.6-1.6c0,0-0.1,0-0.1-0.1C46.3,38.8,45.5,39.3,44.6,39.9
	C44.6,39.8,44.6,39.9,44.6,39.9z"/>
<path class="st1" d="M26.1,39.7c-0.9-0.4-1.7-1-2.5-1.5c0,0-0.1,0-0.1,0.1C24.2,38.8,25.1,39.4,26.1,39.7C26,39.8,26,39.8,26.1,39.7
	z"/>
<path class="st1" d="M17.7,24.1c0-0.5,0-0.9,0.1-1.4c0,0-0.1,0-0.1,0c0,0.5-0.1,1-0.1,1.4c0,5.7,1.8,10.8,5.8,14c0,0,0.1,0,0.1-0.1
	C19.7,35,17.7,30.3,17.7,24.1z"/>
<path class="st1" d="M53,24.1c0,6.2-2,11-5.7,14c0,0,0.1,0,0.1,0.1c4-3.2,5.8-8.3,5.8-14c0-0.4,0-0.9-0.1-1.3c0,0-0.1,0-0.1,0
	C53,23.2,53,23.6,53,24.1z"/>
<path class="st1" d="M23.4,38C23.3,38.1,23.3,38.1,23.4,38c0,0.1,0,0.1,0,0.1C23.4,38.2,23.4,38.1,23.4,38
	C23.4,38.1,23.4,38.1,23.4,38z"/>
<path class="st1" d="M23.6,38.2c0,0-0.1-0.1-0.1-0.1c0,0,0,0-0.1,0.1C23.4,38.2,23.5,38.2,23.6,38.2C23.5,38.2,23.5,38.2,23.6,38.2z
	"/>
<path class="st1" d="M47.1,38.2C47.1,38.2,47.2,38.2,47.1,38.2c0.1,0,0.2,0,0.2,0c0,0-0.1,0-0.1-0.1C47.2,38.1,47.1,38.2,47.1,38.2z
	"/>
<path class="st1" d="M47.2,38.1C47.2,38.1,47.3,38.2,47.2,38.1c0.1,0,0.1,0,0.2,0C47.4,38.1,47.3,38.1,47.2,38.1
	C47.3,38.1,47.3,38.1,47.2,38.1z"/>
<path class="st1" d="M44.4,40C44.3,40,44.3,39.9,44.4,40c-2.6,1.1-5.6,1.7-9,1.7c-3.5,0-6.5-0.6-9.1-1.8c0,0,0,0.1-0.1,0.1
	c2.5,1.2,5.5,1.9,9.1,1.9C38.9,41.8,41.9,41.1,44.4,40z"/>
<path class="st1" d="M26.1,39.9C26.1,39.9,26.1,39.8,26.1,39.9c0-0.1,0-0.1,0-0.1c0,0,0,0.1-0.1,0.1C26,39.9,26.1,39.9,26.1,39.9z"
	/>
<path class="st1" d="M44.5,39.9c0,0,0.1,0,0.1-0.1c0,0,0-0.1-0.1-0.1C44.5,39.8,44.5,39.8,44.5,39.9C44.4,39.9,44.5,39.9,44.5,39.9z
	"/>
<path class="st1" d="M44.4,40c0,0,0.1,0,0.1-0.1c0,0,0-0.1-0.1-0.1C44.4,39.9,44.3,39.9,44.4,40C44.3,39.9,44.3,40,44.4,40z"/>
<path class="st1" d="M26.3,39.9c0,0-0.1,0-0.1-0.1c0,0,0,0.1-0.1,0.1C26.1,39.9,26.2,39.9,26.3,39.9C26.2,39.9,26.3,39.9,26.3,39.9z
	"/>
<path class="st1" d="M28.5,7.8c0,0-0.1-0.1-0.1-0.1c-5.9,2.5-10.2,8-10.8,14.6c0,0,0.1,0,0.1,0C18.4,15.8,22.6,10.3,28.5,7.8z"/>
<path class="st1" d="M17.7,22.5c0,0-0.1,0-0.1,0c0,0,0,0.1,0,0.1c0,0,0.1,0,0.1,0C17.7,22.6,17.7,22.6,17.7,22.5z"/>
<path class="st1" d="M28.8,7.7c0,0-0.1-0.1-0.1-0.1c0,0-0.1,0-0.1,0c0,0,0.1,0.1,0.1,0.1C28.7,7.8,28.8,7.7,28.8,7.7z"/>
<path class="st1" d="M17.7,22.4c0,0-0.1,0-0.1,0c0,0,0,0.1,0,0.1c0,0,0.1,0,0.1,0C17.7,22.5,17.7,22.5,17.7,22.4z"/>
<path class="st1" d="M28.5,7.8c0,0,0.1,0,0.1,0c0,0-0.1-0.1-0.1-0.1c0,0-0.1,0-0.1,0C28.5,7.8,28.5,7.8,28.5,7.8z"/>
<path class="st1" d="M53,22.8c0,0,0.1,0,0.1,0c0,0,0-0.1,0-0.1c0,0-0.1,0-0.1,0C53,22.7,53,22.8,53,22.8z"/>
<path class="st1" d="M53,22.5c0,0,0,0.1,0,0.1c0,0,0.1,0,0.1,0c0,0,0-0.1,0-0.1C53,22.5,53,22.5,53,22.5z"/>
<path class="st1" d="M35.3,28.8c-4.5,0-7.7,2.1-7.7,5c0,2.9,3.1,4.9,7.7,4.9c4.6,0,7.7-2,7.7-4.9C43.1,30.8,39.9,28.8,35.3,28.8z
	 M35.4,38.5c-3.7,0-7.5-1.4-7.5-4.7c0-2.8,3.1-4.8,7.5-4.8s7.5,2,7.5,4.8C42.8,36.6,39.8,38.5,35.4,38.5z"/>
<path class="st1" d="M20.9,53.4C20.9,53.4,20.9,53.4,20.9,53.4c-0.6,1.1-0.9,2.2-1,3.3c0,0,0.1,0,0.1,0c0.1-1.1,0.4-2.1,0.9-3
	C20.9,53.6,20.9,53.5,20.9,53.4z"/>
<path class="st1" d="M20,56.8c0,0-0.1,0-0.1,0c0,0,0,0.1,0,0.1c0,0,0.1,0,0.1,0C19.9,56.9,19.9,56.8,20,56.8z"/>
<path class="st1" d="M21,53.2c0,0.1-0.1,0.1-0.1,0.2c0,0.1,0,0.2,0,0.3c0-0.1,0.1-0.2,0.1-0.2C21,53.4,21,53.3,21,53.2z"/>
<path class="st1" d="M21.1,53c0,0.1-0.1,0.1-0.1,0.2c0,0.1,0,0.2,0,0.3c0-0.1,0.1-0.2,0.1-0.2C21.1,53.1,21.1,53,21.1,53z"/>
<path class="st1" d="M20.9,53.7c-0.5,0.9-0.8,2-0.9,3c0,0,0.1,0,0.1,0c0.1-0.9,0.4-1.9,0.8-2.7C20.9,53.9,20.9,53.8,20.9,53.7z"/>
<path class="st1" d="M20.1,56.7c0,0-0.1,0-0.1,0c0,0,0,0.1,0,0.1c0,0,0.1,0,0.1,0C20.1,56.8,20.1,56.7,20.1,56.7z"/>
<path class="st1" d="M20.1,56.8c0,0-0.1,0-0.1,0c0,0,0,0.1,0,0.1c0,0,0.1,0,0.1,0C20,56.9,20.1,56.9,20.1,56.8z"/>
<path class="st1" d="M20.9,53.7c0,0.1,0,0.2,0,0.3c0-0.1,0.1-0.2,0.1-0.3c0-0.1,0-0.2,0-0.2C21,53.5,20.9,53.6,20.9,53.7z"/>
<path class="st1" d="M21,53.7c0,0,0-0.1,0.1-0.1c0,0,0.1-0.1,0.1-0.1c0-0.1,0-0.2,0-0.3c0,0.1-0.1,0.2-0.1,0.2
	C21,53.5,21,53.6,21,53.7z"/>
<path class="st1" d="M49.8,53c0,0.1,0,0.2,0,0.3c0.4,0.8,0.8,1.8,0.9,3c0,0.1,0,0.3,0,0.4c0,0,0.1,0,0.1,0c0-0.1,0-0.2,0-0.4
	C50.7,54.9,50.3,53.9,49.8,53z"/>
<path class="st1" d="M50.7,56.7c0,0,0,0.1,0,0.1c0,0,0.1,0,0.1,0c0,0,0-0.1,0-0.1C50.8,56.6,50.8,56.7,50.7,56.7z"/>
<path class="st1" d="M49.7,53c0,0.1,0.1,0.2,0.1,0.2c0-0.1,0-0.2,0-0.3c0-0.1-0.1-0.2-0.1-0.2C49.7,52.8,49.7,52.9,49.7,53z"/>
<path class="st1" d="M49.7,52.8c0-0.1-0.1-0.2-0.1-0.2c0,0.1,0,0.2,0,0.2c0,0.1,0.1,0.2,0.1,0.2C49.7,52.9,49.7,52.8,49.7,52.8z"/>
<path class="st1" d="M49.8,53.2c0,0.1,0,0.2,0,0.3c0.4,0.8,0.7,1.7,0.8,2.8c0,0.1,0,0.3,0,0.4c0,0,0.1,0,0.1,0c0-0.1,0-0.3,0-0.4
	C50.6,55.1,50.2,54.1,49.8,53.2z"/>
<path class="st1" d="M50.6,56.7c0,0,0,0.1,0,0.1c0,0,0.1,0,0.1,0c0,0,0-0.1,0-0.1C50.7,56.7,50.6,56.7,50.6,56.7z"/>
<path class="st1" d="M49.7,53.3c0,0.1,0.1,0.2,0.1,0.2c0-0.1,0-0.2,0-0.3c0-0.1-0.1-0.2-0.1-0.2C49.7,53.1,49.7,53.2,49.7,53.3z"/>
<path class="st1" d="M49.7,53c0-0.1-0.1-0.2-0.1-0.2c0,0.1,0,0.2,0,0.3c0,0.1,0.1,0.1,0.1,0.2C49.7,53.2,49.7,53.1,49.7,53z"/>
<g>
	<g>
		<path d="M19,21.6c0,0,0-0.1,0-0.1c0.1-0.2,0.2-0.3,0.3-0.3c0.1,0,0.2,0,0.4,0c0.3,0,0.4,0.2,0.4,0.5c0,0.2,0,0.4,0,0.5
			c0,1.2,0,2.5,0,3.7c0,0.1,0,0.1,0.1,0.1c0.2,0,0.4,0,0.6,0c0.3,0,0.5,0.2,0.5,0.6c0,0.3-0.2,0.5-0.5,0.5c-0.5,0-0.9,0-1.4,0
			c-0.2,0-0.4-0.1-0.5-0.3C19,25.1,19,23.3,19,21.6z"/>
		<path d="M21.6,24.1c0-0.6,0-1.2,0-1.8c0-0.8,0.5-1.2,1.2-1.2c0.2,0,0.5,0,0.7,0.1c0.5,0.2,0.7,0.6,0.7,1.1c0,1.3,0,2.5,0,3.8
			c0,0.6-0.4,1.1-1.1,1.2c-0.2,0-0.5,0-0.7,0C22,27,21.7,26.6,21.6,26C21.6,25.4,21.6,24.8,21.6,24.1z M22.8,24.1c0,0.6,0,1.2,0,1.7
			c0,0,0,0.1,0,0.1c0,0.1,0.1,0.1,0.1,0.1c0.1,0,0.2-0.1,0.2-0.2c0-1.2,0-2.4,0-3.6c0,0,0,0,0,0c0-0.1-0.1-0.1-0.2-0.1
			c-0.1,0-0.1,0-0.2,0.1c0,0,0,0.1,0,0.1C22.8,23,22.8,23.5,22.8,24.1z"/>
		<path d="M25.8,27.1c-0.1,0-0.1,0-0.2,0c-0.4,0-0.6-0.2-0.6-0.6c-0.1-1-0.2-2-0.3-3.1c-0.1-0.6-0.1-1.2-0.2-1.7c0-0.1,0-0.2,0-0.3
			c0-0.1,0.1-0.2,0.1-0.2c0.2-0.1,0.4-0.1,0.6,0c0.2,0.1,0.3,0.3,0.3,0.5c0.1,1.1,0.1,2.1,0.2,3.2c0,0.1,0,0.1,0,0.2
			c0,0,0,0.1,0.1,0.1c0.1,0,0-0.1,0.1-0.1c0-0.2,0-0.3,0-0.5c0-1,0.1-1.9,0.1-2.9c0-0.5,0.5-0.7,0.9-0.5c0.2,0.1,0.2,0.2,0.2,0.4
			c0,0.3,0,0.5-0.1,0.7C27,22.9,27,23.4,26.9,24c-0.1,0.5-0.1,1.1-0.2,1.6c0,0.3-0.1,0.7-0.1,1c0,0.4-0.2,0.5-0.6,0.5
			C25.9,27.1,25.9,27.1,25.8,27.1z"/>
		<path d="M29.5,23.3c0.3,0,0.5-0.2,0.5-0.5v-0.4c0-0.7-0.6-1.2-1.3-1.2c-0.7,0-1.3,0.6-1.3,1.2v1h0c0,0,0,0.1,0,0.1
			c0,0.1,0,0.1,0,0.1c0,0,0,0,0,0c0,0.4,0,0.1,0,0.5c0,0,0,0.1,0,0.2c0,0.1,0,0.2,0,0.2c0,0.4,0,0.1,0,0.5c0,0,0,0,0,0
			c0,0,0,0,0,0.1c0,0,0,0,0,0.1h0v1c0,0.7,0.6,1.2,1.3,1.2c0.7,0,1.3-0.6,1.3-1.2v-0.4c0-0.3-0.2-0.5-0.5-0.5
			c-0.3,0-0.5,0.2-0.5,0.5v0.4c0,0.1-0.1,0.2-0.2,0.2c-0.1,0-0.2-0.1-0.2-0.2v-0.1c0,0,0,0,0,0c0-0.1,0-0.9,0-1c0,0,0-0.1,0-0.1
			c0,0,0,0,0,0h0.8c0.3,0,0.5-0.2,0.5-0.5c0,0,0,0,0,0c0,0,0,0,0,0c0-0.3-0.2-0.5-0.5-0.5h-0.8c0,0,0,0,0,0c0,0,0-0.1,0-0.1
			c0-0.1,0-0.9,0-1c0,0,0,0,0,0v-0.1c0-0.1,0.1-0.2,0.2-0.2c0.1,0,0.2,0.1,0.2,0.2v0.4C28.9,23,29.2,23.3,29.5,23.3z"/>
	</g>
	<g>
		<path d="M33.4,21.1c-0.3,0-0.5,0.1-0.7,0.2c-0.2-0.1-0.5-0.2-0.7-0.2l0,0c-0.7,0-1.3,0.6-1.3,1.3v4.3c0,0.3,0.3,0.6,0.6,0.6h0
			c0.3,0,0.6-0.3,0.6-0.6v-4.3c0-0.1,0.1-0.2,0.2-0.2c0.1,0,0.2,0.1,0.2,0.2c0,0,0,0,0,0v4.3c0,0.3,0.3,0.6,0.6,0.6c0,0,0,0,0,0
			c0,0,0,0,0,0l0,0c0.3,0,0.6-0.3,0.6-0.6v-4.3c0,0,0,0,0,0c0-0.1,0.1-0.2,0.2-0.2c0.1,0,0.2,0.1,0.2,0.2v4.3c0,0.3,0.3,0.6,0.6,0.6
			c0.3,0,0.6-0.3,0.6-0.6v-4.3C34.7,21.6,34.2,21.1,33.4,21.1z"/>
		<path d="M37.1,23.3c0.3,0,0.5-0.2,0.5-0.5v-0.4c0-0.7-0.6-1.2-1.3-1.2c-0.7,0-1.3,0.6-1.3,1.2v1h0c0,0,0,0.1,0,0.1
			c0,0.1,0,0.1,0,0.1c0,0,0,0,0,0c0,0.4,0,0.1,0,0.5c0,0,0,0.1,0,0.2c0,0.1,0,0.2,0,0.2c0,0.4,0,0.1,0,0.5c0,0,0,0,0,0
			c0,0,0,0,0,0.1c0,0,0,0,0,0.1h0v1c0,0.7,0.6,1.2,1.3,1.2c0.7,0,1.3-0.6,1.3-1.2v-0.4c0-0.3-0.2-0.5-0.5-0.5s-0.5,0.2-0.5,0.5v0.4
			c0,0.1-0.1,0.2-0.2,0.2c-0.1,0-0.2-0.1-0.2-0.2v-0.1c0,0,0,0,0,0c0-0.1,0-0.9,0-1c0,0,0-0.1,0-0.1c0,0,0,0,0,0h0.8
			c0.3,0,0.5-0.2,0.5-0.5c0,0,0,0,0,0c0,0,0,0,0,0c0-0.3-0.2-0.5-0.5-0.5h-0.8c0,0,0,0,0,0c0,0,0-0.1,0-0.1c0-0.1,0-0.9,0-1
			c0,0,0,0,0,0v-0.1c0-0.1,0.1-0.2,0.2-0.2c0.1,0,0.2,0.1,0.2,0.2v0.4C36.6,23,36.8,23.3,37.1,23.3z"/>
	</g>
	<g>
		<path d="M43.3,24.1c0-0.6,0-1.2,0-1.8c0-0.8,0.6-1.2,1.2-1.2c0.2,0,0.5,0,0.7,0.1c0.5,0.2,0.8,0.6,0.8,1.1c0,1.3,0,2.5,0,3.8
			c0,0.6-0.4,1.1-1.1,1.2c-0.2,0-0.5,0-0.7,0c-0.6-0.1-0.9-0.6-0.9-1.1C43.3,25.4,43.3,24.8,43.3,24.1z M44.5,24.1c0,0.5,0,1,0,1.5
			c0,0.1,0,0.2,0,0.3c0,0.1,0.1,0.1,0.2,0.1c0.1,0,0.1,0,0.2-0.1c0,0,0-0.1,0-0.1c0-1.2,0-2.4,0-3.5c0,0,0-0.1,0-0.1
			c0-0.1-0.1-0.1-0.2-0.1c-0.1,0-0.1,0-0.2,0.1c0,0,0,0.1,0,0.1C44.5,23,44.5,23.6,44.5,24.1z"/>
		<path d="M46.3,24.1c0-0.8,0-1.6,0-2.3c0-0.1,0-0.2,0-0.3c0.1-0.2,0.2-0.4,0.4-0.4c0.4,0,0.8-0.1,1.3,0c0.6,0.1,0.9,0.6,0.9,1.1
			c0,0.3,0,0.6,0,0.9c0,0.3-0.1,0.6-0.4,0.8c-0.1,0.1-0.1,0.1,0,0.1c0.2,0.2,0.4,0.5,0.4,0.8c0,0.5,0,1,0,1.5c0,0.1,0,0.1,0,0.2
			c-0.1,0.3-0.3,0.5-0.6,0.5c-0.3,0-0.5-0.2-0.5-0.5c0-0.6,0-1.1,0-1.7c0-0.2-0.1-0.2-0.2-0.2c-0.1,0-0.1,0-0.1,0.1
			c0,0.1,0,0.3,0,0.4c0,0.4,0,0.8,0,1.3c0,0.1,0,0.1,0,0.2c-0.1,0.3-0.3,0.5-0.6,0.4c-0.3,0-0.5-0.2-0.5-0.5c0-0.2,0-0.5,0-0.7
			C46.3,25.3,46.3,24.7,46.3,24.1z M47.8,22.9c0-0.1,0-0.1,0-0.2c0-0.1,0-0.3,0-0.4c0-0.1-0.1-0.2-0.2-0.1c-0.1,0-0.1,0.1-0.1,0.2
			c0,0.4,0,0.7,0,1.1c0,0.1,0.1,0.2,0.2,0.1c0.1,0,0.1-0.1,0.1-0.2C47.8,23.3,47.8,23.1,47.8,22.9z"/>
		<path d="M41.7,21.1c-0.3,0-0.5,0.1-0.7,0.2c-0.2-0.1-0.5-0.2-0.7-0.2l0,0c-0.7,0-1.3,0.6-1.3,1.3v4.3c0,0.3,0.3,0.6,0.6,0.6h0
			c0.3,0,0.6-0.3,0.6-0.6v-4.3c0-0.1,0.1-0.2,0.2-0.2c0.1,0,0.2,0.1,0.2,0.2c0,0,0,0,0,0v4.3c0,0.3,0.3,0.6,0.6,0.6c0,0,0,0,0,0
			c0,0,0,0,0,0l0,0c0.3,0,0.6-0.3,0.6-0.6v-4.3c0,0,0,0,0,0c0-0.1,0.1-0.2,0.2-0.2c0.1,0,0.2,0.1,0.2,0.2v4.3c0,0.3,0.3,0.6,0.6,0.6
			c0.3,0,0.6-0.3,0.6-0.6v-4.3C43,21.6,42.4,21.1,41.7,21.1z"/>
		<path d="M51.2,23.3c0.3,0,0.5-0.2,0.5-0.5v-0.4c0-0.7-0.6-1.2-1.3-1.2c-0.7,0-1.3,0.6-1.3,1.2v1h0c0,0,0,0.1,0,0.1
			c0,0.1,0,0.1,0,0.1c0,0,0,0,0,0c0,0.4,0,0.1,0,0.5c0,0,0,0.1,0,0.2c0,0.1,0,0.2,0,0.2c0,0.4,0,0.1,0,0.5c0,0,0,0,0,0
			c0,0,0,0,0,0.1c0,0,0,0,0,0.1h0v1c0,0.7,0.6,1.2,1.3,1.2c0.7,0,1.3-0.6,1.3-1.2v-0.4c0-0.3-0.2-0.5-0.5-0.5
			c-0.3,0-0.5,0.2-0.5,0.5v0.4c0,0.1-0.1,0.2-0.2,0.2c-0.1,0-0.2-0.1-0.2-0.2v-0.1c0,0,0,0,0,0c0-0.1,0-0.9,0-1c0,0,0-0.1,0-0.1
			c0,0,0,0,0,0h0.8c0.3,0,0.5-0.2,0.5-0.5c0,0,0,0,0,0c0,0,0,0,0,0c0-0.3-0.2-0.5-0.5-0.5h-0.8c0,0,0,0,0,0c0,0,0-0.1,0-0.1
			c0-0.1,0-0.9,0-1c0,0,0,0,0,0v-0.1c0-0.1,0.1-0.2,0.2-0.2c0.1,0,0.2,0.1,0.2,0.2v0.4C50.7,23,51,23.3,51.2,23.3z"/>
	</g>
</g>
<g>
	<g>
		<path class="st1" d="M25,64.5h5.5c1.6,0,3.2-0.9,3.9-2.3c0.7-1.3,1.1-3.1,0.8-5.6c-0.7-5.9-5.6-6.7-7.7-6.7
			c-6.4,0-9.4,7.9-6.2,12.8C22.1,63.8,23.5,64.5,25,64.5z"/>
	</g>
	<g>
		<path class="st1" d="M40.3,64.5h5.5c1.6,0,3.2-0.9,3.9-2.3c0.7-1.3,1.1-3.1,0.8-5.6c-0.7-5.9-5.6-6.7-7.7-6.7
			c-6.4,0-9.4,7.9-6.2,12.8C37.5,63.8,38.9,64.5,40.3,64.5z"/>
	</g>
</g>
<path d="M37.1,30.9c-0.5-0.2-1.4-0.2-1.8-0.2c-0.4,0-1.2,0-1.8,0.2c-1.2,0.4,0.2,2,0.8,2.3c0.6,0.3,1.4,0.3,2,0
	C36.9,32.9,38.3,31.3,37.1,30.9z"/>
</svg>
