<?xml version="1.0" encoding="utf-8"?>
<!-- Generator: Adobe Illustrator 27.5.0, SVG Export Plug-In . SVG Version: 6.00 Build 0)  -->
<svg version="1.1" id="레이어_1" xmlns="http://www.w3.org/2000/svg" xmlns:xlink="http://www.w3.org/1999/xlink" x="0px"
	 y="0px" viewBox="0 0 71.3 65.9" style="enable-background:new 0 0 71.3 65.9;" xml:space="preserve">
<style type="text/css">
	.st0{stroke:#000000;stroke-width:0.5;stroke-miterlimit:10;}
</style>
<g>
	<path d="M31.7,38c0-0.1,0-0.2,0-0.2c0-0.6,0-1.1,0-1.7c0-0.2,0-0.2,0.2-0.3c0.3-0.1,0.6-0.3,0.7-0.7c0.1-0.6-0.2-1.1-0.8-1.3
		c-0.2-0.1-0.4-0.1-0.7-0.1c-0.5,0-0.9,0-1.4,0c-0.1,0-0.1,0-0.2,0c0-0.6,0-1.2,0-1.9c0.1,0,0.1,0,0.2,0c0.6,0,1.1,0,1.6,0
		c0.4,0,0.7-0.2,0.8-0.6c0.1-0.3,0.1-0.7-0.2-1c-0.1-0.1-0.2-0.2-0.3-0.2c-0.1,0-0.1-0.1-0.1-0.1c0-0.6,0-1.3,0-1.9v-0.1
		c0.8,0,1.5,0.3,2.1,0.8c0.7,0.6,1,1.3,0.9,2.2c-0.1,0.7-0.3,1.2-0.8,1.7l-0.1,0.1c0.2,0.2,0.5,0.4,0.7,0.7c0.8,1.1,0.8,2.6-0.1,3.7
		C33.7,37.6,32.6,38,31.7,38z"/>
	<path d="M40.1,38.2c-0.6-0.6-1.1-1.1-1.6-1.7l0.1-0.1c0.9-0.7,1.7-1.4,2.3-2.4c0.4-0.7,0.7-1.4,0.8-2.1c0.1-0.8-0.1-1.5-0.8-2
		l-0.1-0.1c0-0.7,0-1.4,0-2.1c0.2,0,0.4,0.1,0.6,0.1c1.4,0.3,2.5,1.6,2.7,3c0.1,1-0.1,1.9-0.4,2.8c-0.4,1.1-1.1,2.1-2,2.9
		C41.1,37.2,40.6,37.7,40.1,38.2z"/>
	<path d="M39.3,34.6c-2.1-0.3-3.3-1.7-3.3-3.6c0-2,1.4-3.3,3.3-3.5c0,0.1,0,0.1,0,0.2c0,0.6,0,1.2,0,1.9c0,0.1,0,0.2-0.1,0.2
		c-1,0.6-1,1.8,0,2.4c0.1,0,0.1,0.1,0.1,0.2C39.3,33.1,39.3,33.9,39.3,34.6L39.3,34.6z"/>
	<path d="M30.3,38c-1.3-0.2-2.4-0.7-3.1-1.9c0.6-0.4,1.1-0.8,1.6-1.2c0.3,0.3,0.6,0.6,1,0.8c0.1,0.1,0.3,0.1,0.4,0.2
		c0.1,0,0.1,0.1,0.1,0.1C30.3,36.7,30.3,37.3,30.3,38L30.3,38z"/>
	<path d="M28.8,30.8c-0.5-0.4-1-0.8-1.5-1.2c0.7-1.1,1.7-1.6,2.9-1.8c0,0.1,0,0.1,0,0.1c0,0.6,0,1.2,0,1.8c0,0.1,0,0.1-0.1,0.2
		C29.6,30,29.2,30.3,28.8,30.8C28.9,30.8,28.8,30.8,28.8,30.8z"/>
</g>
<g>
	<path class="st0" d="M39.7,12.6c1.6-5.6,1.9-6.7,3.5-12.2c0.8,0.2,1.6,0.4,2.4,0.7c-1.5,5.3-1.8,6.2-3.3,11.6c1.1,0,2.2,0,3.2,0
		c2.8,0,5.7,0,8.5,0c1.2,0,1.6,0.4,1.6,1.6c0,1.4,0,2.8,0,4.2c0,1.4-0.4,1.8-1.8,1.8c-0.2,0-0.5,0-0.8,0c-0.1,1.3-0.2,2.6-0.2,3.8
		c-0.3,6.2-0.6,12.3-1,18.5c0,0.5-0.3,1-0.6,1.4c-0.9,1-1.8,1.8-2.7,2.8c-0.2,0.3-0.4,0.7-0.4,1c-0.3,6.1-0.6,4-0.9,10.2
		c-0.1,1.1-0.1,2.1-0.2,3.2c-0.2,2.6-2.3,4.8-5,4.8c-4.3,0.1-8.7,0.1-13,0c-2.7,0-4.8-2.2-4.9-4.9c-0.4-7.2-0.7-6.1-1.1-13.2
		c0-0.4-0.2-0.8-0.5-1.1c-0.9-0.9-1.8-1.8-2.7-2.7c-0.3-0.3-0.5-0.9-0.6-1.3c-0.4-7.1-0.8-14.3-1.1-21.5c0-0.3-0.1-0.6-0.1-0.9
		c-0.5,0-0.9,0-1.3,0c-0.7,0-1.2-0.5-1.2-1.2c0-1.7,0-3.3,0-5c0-0.7,0.5-1.2,1.2-1.2c0.2,0,0.5,0,0.7,0c7.1,0,14.2,0,21.3,0
		C39.1,12.6,39.4,12.6,39.7,12.6z M20.7,20.2c0.4,7,0.7,14,1.1,20.9c0,0.8,0.3,1.4,0.9,2c0.8,0.8,1.6,1.5,2.4,2.4
		c0.3,0.3,0.5,0.9,0.6,1.3c0.4,7.4,0.7,6.5,1.1,13.9c0.1,1.8,1.1,2.8,2.9,2.8c4,0,8.1,0,12.1,0c1.8,0,2.8-1,2.9-2.8
		c0.4-7.4,0.7-6.5,1.1-13.9c0-0.4,0.3-1,0.6-1.3c0.9-1,1.8-1.8,2.7-2.7c0.3-0.3,0.5-0.7,0.5-1.1c0.3-5.6,0.6-11.2,0.9-16.8
		c0.1-1.5,0.2-3,0.2-4.5C40.6,20.2,30.7,20.2,20.7,20.2z M53.2,15.2c-11.7,0-23.4,0-35,0c0,0.8,0,1.6,0,2.4c11.7,0,23.4,0,35,0
		C53.2,16.8,53.2,16,53.2,15.2z"/>
</g>
</svg>
