<?xml version="1.0" encoding="utf-8"?>
<!-- Generator: Adobe Illustrator 27.5.0, SVG Export Plug-In . SVG Version: 6.00 Build 0)  -->
<svg version="1.1" id="레이어_1" xmlns="http://www.w3.org/2000/svg" xmlns:xlink="http://www.w3.org/1999/xlink" x="0px"
	 y="0px" viewBox="0 0 71.3 65.9" style="enable-background:new 0 0 71.3 65.9;" xml:space="preserve">
<style type="text/css">
	.st0{stroke:#000000;stroke-width:0.75;stroke-miterlimit:10;}
</style>
<g>
	<path class="st0" d="M67.6,24.4c-1.1-6.5-7-11.8-13.5-12.1c-1.1-0.1-2.2,0-3.3,0c0-0.4,0-0.8,0-1.2c0-1.2-0.4-1.7-1.7-1.7
		c-3.7,0-7.4,0-11.1,0H18.5c-0.2,0-0.4,0-0.6,0c-3.7,0-7.3,0-11,0c-1.2,0-1.6,0.4-1.6,1.6c0,5.5,0,11,0,16.6c0.1,7,2.8,12.8,8,17.4
		c0.4,0.4,0.9,0.7,1.5,1.2c-0.4,0-0.6,0-0.8,0c-3,0-6,0-9,0c-1,0-1.4,0.5-1.4,1.4c0,0.3,0,0.5,0.1,0.8c0.6,4.3,3.9,7.1,8.2,7.1
		c6.2,0,12.3,0,18.5,0c4.8,0,9.7,0,14.5,0c4.2,0,7.8-3.5,7.9-7.7c0-1.1-0.4-1.6-1.6-1.6c-3,0-6,0-8.9,0c-0.2,0-0.4,0-0.5,0
		c1.2-1.2,2.5-2.4,3.7-3.6c0.3-0.3,0.5-0.4,0.9-0.4c2.2,0,4.4,0,6.5,0c7.1,0,13-4.6,14.7-11.3c0.2-0.7,0.3-1.5,0.4-2.2
		c0-0.9,0-1.8,0-2.8C67.8,25.3,67.7,24.9,67.6,24.4z M50.9,21.2c0-0.5,0.2-0.7,0.7-0.8c3.9-0.8,7.6,1.8,8.2,5.9
		c0.6,3.7-2.3,7.3-6.1,7.6c-1.2,0.1-2.4,0-3.7,0C51.3,29.8,50.8,25.5,50.9,21.2z M50,48.7c-0.1,0.3-0.2,0.6-0.3,0.9
		c-1.1,2.2-2.8,3.4-5.3,3.4c-10.9,0-21.8,0-32.7,0c-0.6,0-1.3-0.1-1.9-0.3c-1.9-0.6-3.2-2-3.7-4C20.8,48.7,35.3,48.7,50,48.7z
		 M36.9,45.9c-0.4,0.2-0.8,0.3-1.2,0.3c-5.1,0-10.2,0-15.4,0c-0.4,0-0.8-0.1-1.1-0.3c-6.3-3.2-10.1-8.3-11.3-15.3
		c-0.2-1.2-0.2-2.4-0.2-3.6c0-4.7,0-9.5,0-14.2c0-0.3,0-0.5,0-0.8c13.5,0,27.1,0,40.7,0c0,0.2,0,0.4,0,0.6c0,5,0.1,9.9,0,14.9
		C48.2,35.8,44.3,42,36.9,45.9z M53.1,39.6c-1.7,0.1-3.4,0-5.2,0c-0.1,0-0.2,0-0.4,0c0.5-1,0.9-1.9,1.4-2.8c0.1-0.1,0.4-0.2,0.6-0.2
		c1.4,0,2.9,0,4.3-0.1c4.5-0.3,8.2-4.2,8.5-8.7c0.3-4.7-3-9-7.5-9.8c-1.3-0.2-2.6-0.1-3.9-0.2c0-0.8,0-1.8,0-2.8
		c1.2-0.3,2.4-0.3,3.7-0.1c6.2,0.8,10.8,6.1,10.8,12.4C65.3,34,60,39.4,53.1,39.6z"/>
	<g>
		<path d="M25.9,27.7l0.1-0.1c0.5-0.5,0.8-1.1,0.9-1.8c0.1-1-0.2-1.7-1-2.4c-0.7-0.5-1.4-0.9-2.3-0.9v0.1c0,0.7,0,1.4,0,2.1
			c0,0,0,0.1,0.1,0.1c0.1,0,0.2,0.1,0.3,0.2c0.3,0.3,0.3,0.8,0.2,1.1c-0.1,0.4-0.4,0.7-0.9,0.7c-0.5,0-1.1,0-1.7,0
			c-0.1,0-0.1,0-0.2,0c0,0.8,0,1.4,0,2.1c0.1,0,0.1,0,0.2,0c0.5,0,1,0,1.5,0c0.3,0,0.5,0,0.8,0.1c0.7,0.2,1,0.8,0.9,1.4
			c-0.1,0.4-0.4,0.7-0.8,0.8c-0.2,0.1-0.2,0.1-0.2,0.3c0,0.7,0,1.2,0,1.8c0,0,0,0.1,0,0.2c1,0,2.1-0.4,2.7-1.1c1-1.1,1-2.7,0.1-3.9
			C26.4,28.1,26.1,27.9,25.9,27.7z"/>
		<path d="M34.1,22.4c-0.2,0-0.4-0.1-0.7-0.1c0,0.8,0,1.5,0,2.3l0.1,0.1c0.8,0.5,1,1.3,0.9,2.2c-0.1,0.8-0.4,1.5-0.9,2.3
			c-0.7,1.1-1.5,1.8-2.5,2.6L31,31.8c0.5,0.7,1.1,1.2,1.7,1.8c0.5-0.5,1.1-1.1,1.7-1.8c1-0.9,1.7-2,2.2-3.1c0.3-1,0.5-1.9,0.4-3
			C36.8,24.1,35.6,22.7,34.1,22.4z"/>
		<path d="M32,27.6c0-0.1,0-0.2-0.1-0.2c-1.1-0.7-1.1-2,0-2.6c0.1,0,0.1-0.1,0.1-0.2c0-0.8,0-1.4,0-2.1c0-0.1,0-0.1,0-0.2
			c-2,0.2-3.5,1.5-3.5,3.7c0,2,1.2,3.5,3.5,3.8C32,29,32,28.2,32,27.6z"/>
		<path d="M22.2,31.2c-0.1-0.1-0.3-0.1-0.4-0.2c-0.4-0.2-0.8-0.5-1.1-0.9c-0.5,0.4-1.1,0.9-1.7,1.3c0.8,1.3,2,1.8,3.4,2.1
			c0-0.8,0-1.4,0-2.2C22.3,31.3,22.3,31.2,22.2,31.2z"/>
		<path d="M22.1,24.8c0.1-0.1,0.1-0.1,0.1-0.2c0-0.7,0-1.3,0-1.9c0,0,0,0,0-0.1c-1.3,0.2-2.4,0.8-3.1,2c0.5,0.4,1.1,0.9,1.6,1.3
			C21.1,25.2,21.6,24.9,22.1,24.8z"/>
	</g>
</g>
</svg>
