<?xml version="1.0" encoding="utf-8"?>
<!-- Generator: Adobe Illustrator 27.5.0, SVG Export Plug-In . SVG Version: 6.00 Build 0)  -->
<svg version="1.1" id="Layer_1" xmlns="http://www.w3.org/2000/svg" xmlns:xlink="http://www.w3.org/1999/xlink" x="0px" y="0px"
	 viewBox="0 0 221.5 36.9" style="enable-background:new 0 0 221.5 36.9;" xml:space="preserve">
<style type="text/css">
	.st0{fill:#392D30;}
</style>
<g>
	<g>
		<g>
			<path class="st0" d="M0,36V0h3.3v19.1L21.9,0h4.2L11.5,14.9L27.8,36h-4.1L9.3,17.1l-6,6.2V36H0z"/>
			<path class="st0" d="M48.2,32.2c-1.4,1.5-2.8,2.6-4.4,3.3c-1.6,0.7-3.3,1.1-5.2,1.1c-2.6,0-4.7-0.7-6.3-2.1
				c-1.6-1.4-2.3-3.2-2.3-5.5c0-1.5,0.4-2.8,1.1-3.9c0.7-1.1,1.7-2,3.1-2.6c1.5-0.7,4.1-1.2,7.7-1.5c0.7-0.1,1.2-0.1,1.6-0.1
				c0.2,0,0.5-0.1,0.9-0.2c2.5-0.5,3.7-1.6,3.7-3.2c0-2-0.5-3.5-1.5-4.3c-1-0.9-2.6-1.3-4.9-1.3c-2.3,0-4.1,0.5-5.3,1.5
				c-1.2,1-1.9,2.4-2,4.3l-3,0c0.1-2.6,1-4.6,2.9-6.1c1.8-1.5,4.3-2.3,7.4-2.3c3.1,0,5.5,0.7,7.1,2c1.6,1.3,2.4,3.3,2.4,5.9v14.2
				c0,1.1,0.1,1.7,0.4,2c0.3,0.3,0.8,0.4,1.5,0.4c0.2,0,0.4,0,0.6,0c0.2,0,0.3,0,0.5,0V36c-0.4,0.1-0.8,0.1-1.1,0.2
				c-0.4,0-0.7,0.1-1,0.1c-1.2,0-2.2-0.3-2.8-0.9c-0.6-0.6-0.9-1.5-0.9-2.7V32.2z M48,22.4c-0.8,0.3-1.8,0.5-3.1,0.7
				c-1.2,0.2-3.3,0.3-6,0.5c-1.9,0.5-3.4,1.2-4.3,2.1c-1,0.9-1.5,2-1.5,3.3c0,1.5,0.5,2.7,1.6,3.5c1,0.9,2.5,1.3,4.3,1.3
				c2.8,0,4.9-0.7,6.6-2.1c1.6-1.4,2.5-3.4,2.5-5.8V22.4z"/>
			<path class="st0" d="M58.1,36V0h3v22.6l13-12.6h3.8l-9.8,9.5l11,16.5h-3.4L66,21.5l-4.9,4.7V36H58.1z"/>
			<path class="st0" d="M99.2,32.2c-1.4,1.5-2.8,2.6-4.4,3.3c-1.6,0.7-3.3,1.1-5.2,1.1c-2.6,0-4.7-0.7-6.3-2.1
				c-1.6-1.4-2.3-3.2-2.3-5.5c0-1.5,0.4-2.8,1.1-3.9c0.7-1.1,1.7-2,3.1-2.6c1.5-0.7,4.1-1.2,7.7-1.5c0.7-0.1,1.2-0.1,1.6-0.1
				c0.2,0,0.5-0.1,0.9-0.2c2.5-0.5,3.7-1.6,3.7-3.2c0-2-0.5-3.5-1.5-4.3c-1-0.9-2.6-1.3-4.9-1.3c-2.3,0-4.1,0.5-5.3,1.5
				c-1.2,1-1.9,2.4-2,4.3l-3,0c0.1-2.6,1-4.6,2.9-6.1c1.8-1.5,4.3-2.3,7.4-2.3c3.1,0,5.5,0.7,7.1,2c1.6,1.3,2.4,3.3,2.4,5.9v14.2
				c0,1.1,0.1,1.7,0.4,2c0.3,0.3,0.7,0.4,1.5,0.4c0.2,0,0.4,0,0.6,0c0.2,0,0.3,0,0.5,0V36c-0.4,0.1-0.7,0.1-1.1,0.2
				c-0.4,0-0.7,0.1-1,0.1c-1.2,0-2.2-0.3-2.8-0.9c-0.6-0.6-0.9-1.5-0.9-2.7V32.2z M99,22.4c-0.8,0.3-1.8,0.5-3.1,0.7
				c-1.2,0.2-3.2,0.3-6,0.5c-1.9,0.5-3.4,1.2-4.3,2.1c-1,0.9-1.5,2-1.5,3.3c0,1.5,0.5,2.7,1.6,3.5c1.1,0.9,2.5,1.3,4.3,1.3
				c2.8,0,4.9-0.7,6.6-2.1c1.6-1.4,2.5-3.4,2.5-5.8V22.4z"/>
			<path class="st0" d="M107.8,23c0-4.3,1-7.7,3.1-10.1c2.1-2.4,5-3.6,8.8-3.6c3.8,0,6.7,1.2,8.8,3.6c2.1,2.4,3.1,5.8,3.1,10.1
				c0,4.3-1,7.7-3.1,10c-2.1,2.4-5,3.6-8.8,3.6c-3.8,0-6.7-1.2-8.8-3.6C108.9,30.7,107.8,27.4,107.8,23z M110.9,23
				c0,3.5,0.8,6.2,2.3,8.1c1.5,1.9,3.7,2.9,6.5,2.9c2.8,0,5-0.9,6.5-2.9c1.5-1.9,2.3-4.6,2.3-8.1c0-3.5-0.8-6.2-2.3-8.1
				c-1.5-1.9-3.7-2.9-6.5-2.9c-2.8,0-4.9,1-6.5,2.9C111.7,16.8,110.9,19.5,110.9,23z"/>
		</g>
		<g>
			<path class="st0" d="M139.5,36V6.4h-10.7V0h28.7v6.4h-10.6V36H139.5z"/>
			<path class="st0" d="M170.2,32.7c-0.9,1.4-2.1,2.4-3.5,3.2c-1.4,0.7-3.1,1.1-5.1,1.1c-2.6,0-4.6-0.7-5.9-2.2
				c-1.4-1.5-2.1-3.6-2.1-6.3c0-2.5,0.7-4.4,2.1-5.7c1.4-1.3,3.7-2.2,6.9-2.7c0.7-0.1,1.7-0.2,2.9-0.4c3-0.4,4.5-1.3,4.5-2.6
				c0-1.1-0.3-1.8-1-2.3c-0.7-0.5-1.8-0.7-3.3-0.7c-1.4,0-2.5,0.3-3.3,0.9c-0.8,0.6-1.1,1.4-1.1,2.4v0.4h-6.6v-0.5
				c0-2.7,1-4.9,2.9-6.4c1.9-1.6,4.6-2.3,8-2.3c3.7,0,6.6,0.6,8.5,1.9c2,1.3,3,3.1,3,5.6v15.1c0,1.1,0.1,1.9,0.3,2.5
				c0.2,0.5,0.6,1,1.1,1.2V36H171c-0.2-0.5-0.4-1-0.6-1.5C170.3,33.9,170.2,33.3,170.2,32.7z M170.1,22.9c-1.2,0.5-2.5,1-4,1.3
				c-1.5,0.3-2.3,0.5-2.3,0.5c-1.3,0.4-2.1,0.8-2.6,1.3c-0.5,0.5-0.7,1.3-0.7,2.2c0,1,0.3,1.8,1,2.3c0.6,0.6,1.5,0.9,2.6,0.9
				c1.9,0,3.4-0.5,4.5-1.6c1.1-1.1,1.6-2.6,1.6-4.4V22.9z"/>
			<path class="st0" d="M183.3,36V0h7.1v36H183.3z"/>
			<path class="st0" d="M197,36V0h6.9v18.9l8.5-9.5h8.5l-9.3,9.8l9.8,16.7h-8.5l-6.4-11.3l-2.7,2.9V36H197z"/>
		</g>
	</g>
</g>
</svg>
