<?xml version="1.0" encoding="utf-8"?>
<!-- Generator: Adobe Illustrator 27.0.1, SVG Export Plug-In . SVG Version: 6.00 Build 0)  -->
<svg version="1.1" id="_x3C_Layer_x3E_" xmlns="http://www.w3.org/2000/svg" xmlns:xlink="http://www.w3.org/1999/xlink" x="0px"
	 y="0px" viewBox="0 0 337.69 196.69" style="enable-background:new 0 0 337.69 196.69;" xml:space="preserve">
<style type="text/css">
	.st0{fill:#BCBECC;}
	.st1{fill:#9FA1B8;}
</style>
<path class="st0" d="M0,98.35L0,98.35c0,54.31,44.03,98.35,98.35,98.35l0,0c54.31,0,98.35-44.03,98.35-98.35l0,0
	C196.69,44.03,152.66,0,98.35,0l0,0C44.03,0,0,44.03,0,98.35z"/>
<path class="st1" d="M141,98.35L141,98.35c0,54.31,44.03,98.35,98.35,98.35l0,0c54.31,0,98.35-44.03,98.35-98.35l0,0
	C337.69,44.03,293.66,0,239.35,0l0,0C185.03,0,141,44.03,141,98.35z"/>
</svg>
