<?xml version="1.0" encoding="utf-8"?>
<!-- Generator: Adobe Illustrator 25.4.1, SVG Export Plug-In . SVG Version: 6.00 Build 0)  -->
<svg version="1.1" id="레이어_1" xmlns="http://www.w3.org/2000/svg" xmlns:xlink="http://www.w3.org/1999/xlink" x="0px"
	 y="0px" viewBox="0 0 1120 896.5" style="enable-background:new 0 0 1120 896.5;" xml:space="preserve">
<style type="text/css">
	.st0{opacity:8.000000e-02;}
	.st1{fill:#81C8EE;}
	.st2{fill:#E8E8E8;}
	.st3{fill:#F7F7F7;}
	.st4{fill:#A2ABB8;}
	.st5{fill:#BED9FD;}
	.st6{fill:#9EC8FC;}
	.st7{fill:#5392F9;}
	.st8{fill:#4981F8;}
</style>
<g class="st0">
	<path class="st1" d="M880.7,601.8l-92.1,15.8l-106.3-61.8l156.9-69.6l-156.8-69.6l106.3-61.8l92.1,15.8l8.5-50.1l-71-12.2l25-68.1
		l-47.3-17.6l-32.4,88.2l-106.3,61.8L675.6,201l-138.3,102V195.6l59.6-72.4l-38.8-32.4l-46,55.8l-46-55.8l-38.8,32.4l59.6,72.4
		v107.3L348.6,201l18.5,171.6l-106.3-61.8l-32.4-88.2l-47.3,17.6l25,68.1L135,320.5l8.5,50.1l92.1-15.8l106.3,61.8l-156.8,69.6
		l156.8,69.6l-106.3,61.8l-92.1-15.8l-8.5,50.1l71.1,12.2l-25,68.1l47.3,17.6l32.4-88.2l106.3-61.8l-18.5,171.5l138.3-101.9v107.3
		l-59.6,72.4l38.8,32.4l46.1-55.8l46.1,55.8l38.8-32.4l-59.7-72.4V669.4l138.3,102l-18.5-171.5l106.3,61.8l32.4,88.2l47.3-17.6
		l-25-68.1l71-12.2L880.7,601.8z M714.1,486.2l-85.9,38.1l-65.6-38.1l65.6-38.2L714.1,486.2z M613.1,310.1l-10.2,94l-65.6,38.1
		v-76.2L613.1,310.1z M411.2,310.1l75.7,55.8v76.3l-65.6-38.1L411.2,310.1z M310.2,486.2l85.8-38.1l65.6,38.1l-65.6,38.1
		L310.2,486.2z M411.2,662.2l10.2-93.9l65.6-38.1v76.3L411.2,662.2z M613.1,662.2l-75.8-55.8v-76.2l65.6,38.2L613.1,662.2z
		 M613.1,662.2"/>
</g>
<g>
	<path class="st2" d="M659.4,506.5c-49.3,0-89.4-40.2-89.4-89.6c0-28.8,14-55.9,37.1-72.7V113.6c0-28.5,22.1-51.7,50.3-52.7
		c0.7,0,1.3,0,2,0c28.8,0,52.3,23.5,52.3,52.4v231c23.1,16.7,37.1,43.9,37.1,72.7C748.8,466.3,708.7,506.5,659.4,506.5L659.4,506.5z
		 M659.4,506.5"/>
	<path class="st3" d="M659.4,469.8c-29.1,0-52.8-23.8-52.8-53c0-18.6,9.9-36.1,25.9-45.6c6.9-4.1,11.2-11.6,11.2-19.7v-238
		c0-8.5,6.6-15.8,15.1-16.1c8.9-0.3,16.3,6.9,16.3,15.8v238.4c0,8.1,4.2,15.6,11.2,19.7c16,9.5,25.9,27,25.9,45.6
		C712.3,446.1,688.6,469.8,659.4,469.8L659.4,469.8z M659.4,469.8"/>
	<path class="st4" d="M681.1,305.9h-16.6v13.5h16.6c3.7,0,6.7-3,6.7-6.7C687.8,308.9,684.8,305.9,681.1,305.9L681.1,305.9z
		 M681.1,305.9"/>
	<path class="st4" d="M681.1,283.1h-7.8c-3.7,0-6.7-3-6.7-6.7c0-3.7,3-6.7,6.7-6.7h7.8c3.7,0,6.7,3,6.7,6.7
		C687.8,280.1,684.8,283.1,681.1,283.1L681.1,283.1z M681.1,283.1"/>
	<path class="st4" d="M681.1,246.8h-7.8c-3.7,0-6.7-3-6.7-6.7c0-3.7,3-6.7,6.7-6.7h7.8c3.7,0,6.7,3,6.7,6.7
		C687.8,243.8,684.8,246.8,681.1,246.8L681.1,246.8z M681.1,246.8"/>
	<path class="st4" d="M681.1,210.6h-7.8c-3.7,0-6.7-3-6.7-6.7c0-3.7,3-6.7,6.7-6.7h7.8c3.7,0,6.7,3,6.7,6.7
		C687.8,207.6,684.8,210.6,681.1,210.6L681.1,210.6z M681.1,210.6"/>
	<path class="st4" d="M681.1,174.3h-7.8c-3.7,0-6.7-3-6.7-6.7c0-3.7,3-6.7,6.7-6.7h7.8c3.7,0,6.7,3,6.7,6.7
		C687.8,171.3,684.8,174.3,681.1,174.3L681.1,174.3z M681.1,174.3"/>
	<path class="st4" d="M681.1,138.1h-7.8c-3.7,0-6.7-3-6.7-6.7c0-3.7,3-6.7,6.7-6.7h7.8c3.7,0,6.7,3,6.7,6.7
		C687.8,135.1,684.8,138.1,681.1,138.1L681.1,138.1z M681.1,138.1"/>
	<path class="st5" d="M958.7,197.6h-18.8l8.2-8.2c2.6-2.6,2.6-6.9,0-9.5c-2.6-2.6-6.9-2.6-9.5,0l-17.7,17.7h-41.6l29.4-29.4h25
		c3.7,0,6.7-3,6.7-6.7c0-3.7-3-6.7-6.7-6.7h-11.6l13.3-13.3c2.6-2.6,2.6-6.9,0-9.5c-2.6-2.6-6.9-2.6-9.5,0l-13.3,13.3v-11.6
		c0-3.7-3-6.7-6.7-6.7c-3.7,0-6.7,3-6.7,6.7v25l-28.8,28.8v-40.3l17.7-17.7c2.6-2.6,2.6-6.9,0-9.5c-2.6-2.6-6.9-2.6-9.5,0l-8.2,8.2
		v-18.8c0-3.7-3-6.7-6.7-6.7c-3.7,0-6.7,3-6.7,6.7v18.8l-8.2-8.2c-2.6-2.6-6.9-2.6-9.5,0c-2.6,2.6-2.6,6.9,0,9.5l17.7,17.7v40.7
		l-27.5-27.5v-25c0-3.7-3-6.7-6.7-6.7c-3.7,0-6.7,3-6.7,6.7v11.6l-14.3-14.3c-2.6-2.6-6.9-2.6-9.5,0c-2.6,2.6-2.6,6.9,0,9.5
		l14.3,14.3h-11.6c-3.7,0-6.7,3-6.7,6.7c0,3.7,3,6.7,6.7,6.7h25l27.8,27.8h-38.9l-17.7-17.7c-2.6-2.6-6.9-2.6-9.5,0
		c-2.6,2.6-2.6,6.9,0,9.5l8.2,8.2h-20.2c-3.7,0-6.7,3-6.7,6.7c0,3.7,3,6.7,6.7,6.7h20.2l-8.2,8.2c-2.6,2.6-2.6,6.9,0,9.5
		c1.3,1.3,3,2,4.8,2c1.7,0,3.4-0.7,4.8-2l17.7-17.7h38l-26.9,26.9h-25c-3.7,0-6.7,3-6.7,6.7s3,6.7,6.7,6.7h11.6l-14.3,14.3
		c-2.6,2.6-2.6,6.9,0,9.5c1.3,1.3,3,2,4.8,2c1.7,0,3.4-0.7,4.8-2l14.3-14.3v11.6c0,3.7,3,6.7,6.7,6.7c3.7,0,6.7-3,6.7-6.7v-25
		l27.5-27.5v39.3l-17.7,17.7c-2.6,2.6-2.6,6.9,0,9.5c1.3,1.3,3,2,4.8,2s3.4-0.7,4.8-2l8.2-8.2v20.2c0,3.7,3,6.7,6.7,6.7
		c3.7,0,6.7-3,6.7-6.7v-20.2l8.2,8.2c1.3,1.3,3,2,4.8,2c1.7,0,3.4-0.7,4.8-2c2.6-2.6,2.6-6.9,0-9.5l-17.7-17.7v-38.9l28.8,28.8v25
		c0,3.7,3,6.7,6.7,6.7c3.7,0,6.7-3,6.7-6.7v-11.6l13.3,13.3c1.3,1.3,3,2,4.8,2c1.7,0,3.4-0.7,4.8-2c2.6-2.6,2.6-6.9,0-9.5L922.1,253
		h11.6c3.7,0,6.7-3,6.7-6.7c0-3.7-3-6.7-6.7-6.7h-25l-28.5-28.5h40.7l17.7,17.7c1.3,1.3,3,2,4.8,2c1.7,0,3.4-0.7,4.8-2
		c2.6-2.6,2.6-6.9,0-9.5l-8.2-8.2h18.8c3.7,0,6.7-3,6.7-6.7C965.4,200.6,962.4,197.6,958.7,197.6L958.7,197.6z M958.7,197.6"/>
	<path class="st6" d="M659.4,469.8c-29.1,0-52.8-23.8-52.8-53c0-18.6,9.9-36.1,25.9-45.6c6.9-4.1,11.2-11.6,11.2-19.7v-238
		c0-8.5,6.6-15.8,15.1-16.1c8.9-0.3,16.3,6.9,16.3,15.8v238.4c0,8.1,4.2,15.6,11.2,19.7c16,9.5,25.9,27,25.9,45.6
		C712.3,446.1,688.6,469.8,659.4,469.8L659.4,469.8z M659.4,469.8"/>
	<path class="st7" d="M686.3,371.3c-6.9-4.1-11.2-11.6-11.2-19.7v-39h-31.5v39c0,8.1-4.2,15.6-11.2,19.7c-16,9.5-25.9,27-25.9,45.6
		c0,29.2,23.7,53,52.8,53c29.1,0,52.8-23.8,52.8-53C712.3,398.3,702.3,380.8,686.3,371.3L686.3,371.3z M686.3,371.3"/>
	<path class="st8" d="M686.3,371.3c-6.9-4.1-11.2-11.6-11.2-19.7v-39h-26.9v39c0,8.1,4.2,15.6,11.2,19.7c16,9.5,25.9,27,25.9,45.6
		c0,24.5-16.7,45.2-39.4,51.2c4.3,1.1,8.8,1.7,13.5,1.7c29.1,0,52.8-23.8,52.8-53C712.3,398.3,702.3,380.8,686.3,371.3L686.3,371.3z
		 M686.3,371.3"/>
</g>
</svg>
