<?xml version="1.0" encoding="utf-8"?>
<!-- Generator: Adobe Illustrator 25.4.1, SVG Export Plug-In . SVG Version: 6.00 Build 0)  -->
<svg version="1.1" id="레이어_1" xmlns="http://www.w3.org/2000/svg" xmlns:xlink="http://www.w3.org/1999/xlink" x="0px"
	 y="0px" viewBox="0 0 453.7 289.7" style="enable-background:new 0 0 453.7 289.7;" xml:space="preserve">
<style type="text/css">
	.st0{opacity:8.000000e-02;}
	.st1{fill:#E7A644;}
	.st2{fill:#29A9A9;}
	.st3{fill:#FFFFFF;}
</style>
<g class="st0">
	<path class="st1" d="M72.6,180.7c0,0-15.5,11.6-12.8,32c2,15.3,27,34.9,50.4,46.3c24.6,12,73.2,22.8,120.8,22.8
		c47.6,0,75.4-6.5,104.9-18.4c29.5-11.9,61.7-28,61.8-54.9c0.1-22.4-14.7-27.3-14.7-27.3s2.9,20.5-13.5,32
		c-28.6,17.4-79.1,34.8-139.9,33.8c-65.1-1.1-107.2-11.6-136.9-32C70.8,200,71.7,186.7,72.6,180.7z"/>
	<polygon class="st2" points="89.6,184.5 89.6,101.2 103.4,101.2 103.4,134 130.4,134 130.4,101.2 144.2,101.2 144.2,184.5 
		130.4,184.5 130.4,148.1 103.4,148.1 103.4,184.5 	"/>
	<path class="st2" d="M212.6,184.5h-15l-6-18.9h-27.3l-5.6,18.9H144l26.6-83.4h14.6L212.6,184.5L212.6,184.5z M187.2,151.5
		l-9.4-30.9l-9.2,30.9H187.2z"/>
	<path class="st2" d="M256.1,153.9l13.4,5.2c-2.1,9.1-5.5,15.9-10.2,20.3c-4.8,4.4-10.8,6.6-18.1,6.6c-9.1,0-16.5-3.8-22.4-11.3
		c-5.8-7.6-8.8-17.9-8.8-31c0-13.9,2.9-24.6,8.8-32.3c5.9-7.7,13.6-11.5,23.2-11.5c8.3,0,15.1,3,20.4,9c3.1,3.6,5.4,8.7,7,15.4
		l-13.7,4c-0.8-4.3-2.5-7.7-5.1-10.2c-2.6-2.5-5.7-3.7-9.3-3.7c-5.1,0-9.2,2.2-12.3,6.7c-3.1,4.4-4.7,11.6-4.7,21.5
		c0,10.5,1.5,18,4.7,22.5c3.1,4.5,7.1,6.7,12.1,6.7c3.7,0,6.8-1.4,9.5-4.3C253.1,164.4,255,160,256.1,153.9z"/>
	<path class="st2" d="M317.6,153.9l13.4,5.2c-2.1,9.1-5.5,15.9-10.2,20.3c-4.8,4.4-10.8,6.6-18.1,6.6c-9.1,0-16.5-3.8-22.4-11.3
		c-5.8-7.6-8.8-17.9-8.8-31c0-13.9,2.9-24.6,8.8-32.3c5.9-7.7,13.6-11.5,23.1-11.5c8.3,0,15.1,3,20.4,9c3.1,3.6,5.4,8.7,7,15.4
		l-13.7,4c-0.8-4.3-2.5-7.7-5.1-10.2c-2.6-2.5-5.7-3.7-9.3-3.7c-5.1,0-9.2,2.2-12.3,6.7c-3.1,4.4-4.7,11.6-4.7,21.5
		c0,10.5,1.5,18,4.7,22.5c3.1,4.5,7.1,6.7,12.1,6.7c3.7,0,6.8-1.4,9.5-4.3C314.5,164.4,316.4,160,317.6,153.9z"/>
	<path class="st2" d="M335.3,184.5v-83.4h22.1c8.4,0,13.9,0.4,16.4,1.3c3.9,1.2,7.2,4,9.8,8.2c2.6,4.2,4,9.6,4,16.2
		c0,5.1-0.8,9.4-2.3,12.9c-1.5,3.5-3.5,6.2-5.8,8.2c-2.3,2-4.7,3.3-7.1,3.9c-3.3,0.8-8.1,1.2-14.3,1.2h-9v31.4H335.3L335.3,184.5z
		 M349.1,115.3v23.6h7.5c5.4,0,9.1-0.4,10.9-1.3c1.8-0.9,3.3-2.2,4.3-4.1c1-1.9,1.6-4,1.6-6.5c0-3-0.7-5.5-2.2-7.5
		c-1.4-2-3.3-3.2-5.5-3.7c-1.7-0.4-5-0.6-9.9-0.6H349.1z"/>
</g>
<g>
	
		<ellipse transform="matrix(0.9997 -2.497666e-02 2.497666e-02 0.9997 -2.2963 5.738)" class="st2" cx="228.5" cy="94.8" rx="81.9" ry="81.9"/>
	<g>
		<path class="st3" d="M291.4,138.8c8.8-12.5,13.9-27.6,13.9-44c0-42.4-34.4-76.7-76.7-76.7c-42.4,0-76.7,34.4-76.7,76.7
			c0,16.4,5.2,31.6,13.9,44H291.4z"/>
	</g>
	<path class="st1" d="M169.2,99.6c0,0-5.8,3.8-4.8,10.5c0.8,5,10.1,11.4,18.9,15.2c9.2,3.9,27.5,7.5,45.4,7.5
		c17.9,0,28.3-2.1,39.4-6c11.1-3.9,23.2-9.2,23.2-18c0-7.3-5.5-8.9-5.5-8.9s1.1,6.7-5.1,10.5c-10.7,5.7-29.7,11.4-52.5,11.1
		c-24.4-0.4-40.3-3.8-51.4-10.5C168.5,106,168.9,101.6,169.2,99.6z"/>
	<path class="st2" d="M179.8,43.1c0,1.4-0.1,2.6-0.3,3.8c0.4,1.1,0.9,2.1,1.5,2.9c0.6,0.8,1.3,1.5,2.1,2.1l-1.1,1.8
		c-0.7-0.5-1.3-1.1-1.9-1.8c-0.5-0.7-1-1.4-1.4-2.3c-0.4,1-0.9,1.9-1.4,2.6c-0.6,0.8-1.2,1.4-1.9,2l-1.2-1.7
		c0.7-0.6,1.2-1.2,1.7-1.8c0.5-0.6,0.9-1.3,1.2-2.1c0.3-0.8,0.5-1.6,0.6-2.5c0.1-0.9,0.2-1.9,0.1-3.1H179.8L179.8,43.1z M183.8,42.7
		h1.8v11.6h-1.8V42.7L183.8,42.7z M183.8,63.2v-5.8h-7.1v-2.3h8.9v8H183.8z"/>
	<path class="st2" d="M189.6,45.4v-2.2h9.5v2.2H189.6L189.6,45.4z M189.4,50.9v-2.2l1.8,0l-0.1-2.6h1.8l0.1,2.6h2.7l0.1-2.6h1.8
		l-0.1,2.6h1.8v2.2H189.4L189.4,50.9z M193.4,56.2v-1.7h-5.5v-2.2h12.8v2.2h-5.5v1.7h3.5v6.7h-8.8v-6.7H193.4L193.4,56.2z
		 M196.9,58.4h-5.3v2.2h5.3V58.4z"/>
	<path class="st2" d="M214.4,50.4h-2v6.8h-1.8V42.7h1.8v5.4h2V50.4L214.4,50.4z M212.7,62.7h-8.6v-6.3h1.8v4h6.8V62.7L212.7,62.7z
		 M202,48.8c0-0.8,0.1-1.5,0.3-2.1c0.2-0.7,0.4-1.2,0.7-1.7c0.3-0.5,0.7-0.9,1.1-1.1c0.4-0.3,0.9-0.4,1.4-0.4c0.6,0,1.1,0.1,1.6,0.4
		c0.5,0.3,0.8,0.7,1.2,1.1c0.3,0.5,0.6,1.1,0.7,1.7c0.2,0.7,0.2,1.4,0.2,2.1c0,0.7-0.1,1.4-0.2,2.1c-0.2,0.6-0.4,1.2-0.7,1.7
		c-0.3,0.5-0.7,0.9-1.2,1.1c-0.5,0.3-1,0.4-1.6,0.4c-0.5,0-1-0.1-1.4-0.4c-0.4-0.3-0.8-0.6-1.1-1.1c-0.3-0.5-0.5-1-0.7-1.7
		C202.1,50.3,202,49.6,202,48.8L202,48.8z M203.9,48.8c0,0.9,0.1,1.6,0.4,2.2c0.3,0.5,0.7,0.8,1.2,0.8c0.5,0,1-0.3,1.3-0.8
		c0.3-0.5,0.5-1.3,0.5-2.2c0-0.5,0-0.9-0.1-1.3c-0.1-0.4-0.2-0.7-0.4-1c-0.2-0.3-0.4-0.5-0.6-0.6c-0.2-0.1-0.5-0.2-0.7-0.2
		c-0.5,0-0.9,0.3-1.2,0.8C204,47.1,203.9,47.9,203.9,48.8z"/>
	<path class="st2" d="M222.7,50.3V48h2.1v-5.3h1.8v15h-1.8v-7.3H222.7L222.7,50.3z M227,62.7h-8.7v-6.1h1.8v3.8h6.9V62.7L227,62.7z
		 M216.4,43.9h2.2c0.7,0,1.3,0,2,0c0.7,0,1.3,0,2,0c-0.1,1.2-0.2,2.3-0.5,3.2c-0.2,1-0.5,1.9-0.9,2.7c0.4,0.7,0.9,1.4,1.4,2
		c0.5,0.6,1,1.1,1.5,1.4l-1.1,1.9c-1-0.8-2-2-2.8-3.5c-0.5,0.8-1,1.5-1.6,2.1c-0.6,0.6-1.2,1.2-1.9,1.7l-1.2-1.9
		c0.8-0.5,1.4-1.1,2-1.7c0.6-0.6,1.1-1.2,1.5-1.9c0.4-0.6,0.7-1.3,1-2c0.2-0.7,0.4-1.3,0.4-1.9c-0.4,0-0.8,0-1.2,0s-0.8,0-1.2,0
		h-1.5V43.9z"/>
	<path class="st2" d="M236.8,43.7c0,1.3-0.1,2.6-0.1,3.9c-0.1,1.3-0.2,2.5-0.4,3.7h-1.8c0.2-1.1,0.3-2.1,0.4-2.9
		c0.1-0.8,0.1-1.6,0.1-2.4h-5v-2.3H236.8L236.8,43.7z M238.2,58.5V42.7h1.8v6.8h1.9v2.3h-1.9v6.7H238.2L238.2,58.5z M233.6,48.6v4.1
		c0.7,0,1.4-0.1,2.1-0.2c0.7-0.1,1.4-0.2,2-0.3v2.2c-0.5,0.1-1.1,0.2-1.6,0.3c-0.6,0.1-1.2,0.1-1.8,0.2c-0.6,0.1-1.2,0.1-1.8,0.1
		c-0.6,0-1.2,0-1.7,0H229v-2.3h1.8c0.1,0,0.3,0,0.5,0c0.2,0,0.3,0,0.5,0v-4.1H233.6L233.6,48.6z M240.2,62.7h-9V57h1.8v3.4h7.1V62.7
		z"/>
	<path class="st2" d="M252.3,42.7h1.8v20.5h-1.8V42.7L252.3,42.7z M245.4,56.1h1.4c0.9,0,1.8-0.1,2.6-0.3c0.8-0.2,1.6-0.4,2.4-0.6
		v2.3c-0.3,0.1-0.7,0.3-1.1,0.4c-0.4,0.1-0.9,0.2-1.4,0.3c-0.5,0.1-1,0.1-1.5,0.2c-0.5,0.1-1,0.1-1.4,0.1h-2.8V50h4.3v-3.4h-4.3
		v-2.3h6.1v8h-4.3V56.1z"/>
	<path class="st2" d="M268,62.7h-8.9v-6.3h1.8v4h7.1V62.7L268,62.7z M267.8,57.2H266V42.7h1.8V57.2L267.8,57.2z M257,48.8
		c0-0.8,0.1-1.5,0.3-2.1c0.2-0.6,0.4-1.2,0.7-1.7c0.3-0.5,0.7-0.9,1.1-1.1c0.4-0.3,0.9-0.4,1.4-0.4c0.5,0,1,0.1,1.5,0.4
		c0.4,0.3,0.8,0.6,1.2,1.1c0.3,0.5,0.6,1,0.8,1.7c0.2,0.6,0.3,1.4,0.3,2.1c0,0.7-0.1,1.4-0.3,2.1c-0.2,0.6-0.4,1.2-0.8,1.7
		c-0.3,0.5-0.7,0.8-1.2,1.1c-0.4,0.3-0.9,0.4-1.5,0.4c-0.5,0-1-0.1-1.5-0.4c-0.4-0.3-0.8-0.6-1.1-1.1c-0.3-0.5-0.6-1-0.7-1.7
		C257,50.2,257,49.5,257,48.8L257,48.8z M258.8,48.8c0,0.9,0.2,1.6,0.5,2.1c0.3,0.5,0.7,0.8,1.3,0.8c0.5,0,1-0.3,1.3-0.8
		c0.3-0.5,0.5-1.2,0.5-2.1c0-1-0.2-1.7-0.5-2.2c-0.3-0.5-0.7-0.8-1.3-0.8c-0.5,0-1,0.3-1.3,0.8C259,47.1,258.8,47.8,258.8,48.8z"/>
	<path class="st2" d="M276.5,55.5c1.5,0,2.7,0.3,3.5,1c0.8,0.7,1.2,1.6,1.2,2.8c0,0.6-0.1,1.1-0.3,1.6c-0.2,0.5-0.5,0.9-0.9,1.2
		c-0.4,0.4-0.9,0.6-1.5,0.8c-0.6,0.2-1.2,0.3-2,0.3c-0.8,0-1.4-0.1-2-0.3c-0.6-0.2-1.1-0.5-1.5-0.8c-0.4-0.4-0.7-0.8-0.9-1.2
		s-0.3-1-0.3-1.6c0-1.2,0.4-2.1,1.2-2.8C273.8,55.9,275,55.5,276.5,55.5L276.5,55.5z M276.5,57.6c-0.5,0-1,0-1.3,0.1
		c-0.4,0.1-0.6,0.2-0.8,0.4c-0.2,0.2-0.4,0.3-0.5,0.6c-0.1,0.2-0.1,0.4-0.1,0.6c0,0.2,0,0.4,0.1,0.7c0.1,0.2,0.2,0.4,0.5,0.6
		c0.2,0.2,0.5,0.3,0.8,0.4c0.4,0.1,0.8,0.1,1.3,0.1c0.5,0,1,0,1.3-0.1c0.4-0.1,0.6-0.2,0.8-0.4c0.2-0.2,0.4-0.4,0.5-0.6
		c0.1-0.2,0.1-0.4,0.1-0.7c0-0.2,0-0.4-0.1-0.6c-0.1-0.2-0.2-0.4-0.5-0.6c-0.2-0.2-0.5-0.3-0.8-0.4C277.4,57.7,277,57.6,276.5,57.6
		L276.5,57.6z M272.1,43.2h4.4c0.6,0,1.2,0,1.7,0c0.6,0,1.1,0,1.8,0c0.3,0,0.4,0.3,0.3,0.8c-0.1,0.7-0.4,1.3-0.8,1.9
		c-0.4,0.6-0.8,1.2-1.3,1.8c0.6,0.3,1.2,0.6,1.8,0.9c0.6,0.2,1.3,0.5,2,0.6l-0.6,2.1c-0.8-0.2-1.7-0.6-2.4-0.9
		c-0.8-0.4-1.5-0.8-2.2-1.3c-0.7,0.5-1.5,1-2.3,1.4c-0.9,0.4-1.8,0.7-2.7,0.9l-0.7-2.1c1-0.2,1.8-0.5,2.6-0.8c0.8-0.3,1.4-0.6,2-1
		c0.6-0.3,1-0.7,1.4-1c0.4-0.4,0.6-0.7,0.8-1v0c-0.5,0-1,0.1-1.6,0.1c-0.5,0-1,0-1.6,0h-2.6V43.2L272.1,43.2z M270.1,52.1h12.8v2.2
		h-12.8V52.1z"/>
	<polygon class="st2" points="175.5,100.9 175.5,73.6 180.7,73.6 180.7,84.3 190.9,84.3 190.9,73.6 196.1,73.6 196.1,100.9 
		190.9,100.9 190.9,88.9 180.7,88.9 180.7,100.9 	"/>
	<path class="st2" d="M221.7,100.9h-5.6l-2.2-6.2h-10.3l-2.1,6.2H196l10-27.3h5.5L221.7,100.9L221.7,100.9z M212.2,90.1l-3.5-10.1
		l-3.5,10.1H212.2z"/>
	<path class="st2" d="M238.1,90.8l5,1.7c-0.8,3-2,5.2-3.8,6.6c-1.8,1.4-4.1,2.2-6.8,2.2c-3.4,0-6.2-1.2-8.4-3.7
		c-2.2-2.5-3.3-5.9-3.3-10.2c0-4.5,1.1-8.1,3.3-10.6c2.2-2.5,5.1-3.8,8.7-3.8c3.1,0,5.7,1,7.6,3c1.2,1.2,2,2.8,2.6,5l-5.1,1.3
		c-0.3-1.4-0.9-2.5-1.9-3.4c-1-0.8-2.1-1.2-3.5-1.2c-1.9,0-3.4,0.7-4.6,2.2c-1.2,1.5-1.8,3.8-1.8,7.1c0,3.5,0.6,5.9,1.8,7.4
		c1.2,1.5,2.7,2.2,4.5,2.2c1.4,0,2.6-0.5,3.6-1.4C237,94.3,237.7,92.8,238.1,90.8z"/>
	<path class="st2" d="M261.2,90.8l5,1.7c-0.8,3-2,5.2-3.8,6.6c-1.8,1.4-4.1,2.2-6.8,2.2c-3.4,0-6.2-1.2-8.4-3.7
		c-2.2-2.5-3.3-5.9-3.3-10.2c0-4.5,1.1-8.1,3.3-10.6c2.2-2.5,5.1-3.8,8.7-3.8c3.1,0,5.7,1,7.6,3c1.2,1.2,2,2.8,2.6,5l-5.1,1.3
		c-0.3-1.4-0.9-2.5-1.9-3.4c-1-0.8-2.1-1.2-3.5-1.2c-1.9,0-3.4,0.7-4.6,2.2c-1.2,1.5-1.8,3.8-1.8,7.1c0,3.5,0.6,5.9,1.8,7.4
		c1.2,1.5,2.7,2.2,4.5,2.2c1.4,0,2.6-0.5,3.6-1.4C260,94.3,260.7,92.8,261.2,90.8z"/>
	<path class="st2" d="M267.8,100.9V73.6h8.3c3.1,0,5.2,0.1,6.2,0.4c1.5,0.4,2.7,1.3,3.7,2.7c1,1.4,1.5,3.1,1.5,5.3
		c0,1.7-0.3,3.1-0.9,4.2c-0.6,1.1-1.3,2-2.2,2.7c-0.9,0.6-1.8,1.1-2.7,1.3c-1.2,0.3-3,0.4-5.4,0.4H273v10.3H267.8L267.8,100.9z
		 M273,78.2v7.7h2.8c2,0,3.4-0.1,4.1-0.4c0.7-0.3,1.2-0.7,1.6-1.3c0.4-0.6,0.6-1.3,0.6-2.1c0-1-0.3-1.8-0.8-2.5
		c-0.5-0.6-1.2-1-2.1-1.2c-0.6-0.1-1.9-0.2-3.7-0.2H273z"/>
	<path class="st3" d="M192.1,145.3c0,0.8-0.1,1.6-0.2,2.2c0.3,0.7,0.7,1.3,1.2,1.7c0.5,0.5,1,0.9,1.7,1.3l-0.9,1.1
		c-0.6-0.3-1.1-0.7-1.5-1.1c-0.4-0.4-0.8-0.8-1.1-1.3c-0.3,0.6-0.7,1.1-1.1,1.6c-0.5,0.5-1,0.8-1.5,1.2l-1-1c0.5-0.3,1-0.7,1.4-1.1
		c0.4-0.4,0.7-0.8,0.9-1.2c0.2-0.4,0.4-0.9,0.5-1.5c0.1-0.5,0.1-1.1,0.1-1.8H192.1L192.1,145.3z M195.3,145h1.5v6.9h-1.5V145
		L195.3,145z M195.3,157.1v-3.4h-5.7v-1.3h7.2v4.7H195.3z"/>
	<path class="st3" d="M199.3,146.6v-1.3h7.7v1.3H199.3L199.3,146.6z M199.2,149.8v-1.3l1.4,0l-0.1-1.5h1.5l0,1.5h2.2l0.1-1.5h1.5
		l-0.1,1.5h1.4v1.3H199.2L199.2,149.8z M202.4,153v-1H198v-1.3h10.3v1.3h-4.5v1h2.9v3.9h-7.1V153H202.4L202.4,153z M205.3,154.3H201
		v1.3h4.2V154.3z"/>
	<path class="st3" d="M213.6,148.8c0-0.5-0.1-1-0.4-1.3c-0.2-0.3-0.6-0.4-1-0.4c-0.4,0-0.8,0.1-1,0.4c-0.2,0.3-0.4,0.7-0.4,1.3
		c0,0.5,0.1,1,0.4,1.3c0.2,0.3,0.6,0.5,1,0.5c0.4,0,0.8-0.2,1-0.5C213.4,149.8,213.6,149.4,213.6,148.8L213.6,148.8z M217.8,157.1
		h-1.5V145h1.5V157.1L217.8,157.1z M208.6,153.3h1.9c0.4,0,0.8,0,1.3,0c0.5,0,0.9,0,1.4-0.1c0.5,0,1-0.1,1.4-0.1
		c0.5,0,0.9-0.1,1.4-0.2v1.3c-0.4,0.1-0.9,0.1-1.3,0.2c-0.5,0-0.9,0.1-1.4,0.1c-0.5,0-1,0.1-1.4,0.1c-0.5,0-0.9,0-1.4,0h-1.9V153.3
		L208.6,153.3z M215.1,148.8c0,0.4-0.1,0.8-0.2,1.2c-0.1,0.4-0.3,0.7-0.6,1c-0.2,0.3-0.5,0.5-0.9,0.7c-0.4,0.2-0.8,0.2-1.2,0.2
		c-0.4,0-0.9-0.1-1.2-0.2c-0.4-0.2-0.7-0.4-0.9-0.7c-0.2-0.3-0.4-0.6-0.6-1c-0.1-0.4-0.2-0.8-0.2-1.2c0-0.4,0.1-0.8,0.2-1.2
		s0.3-0.7,0.6-1c0.2-0.3,0.5-0.5,0.9-0.7c0.4-0.2,0.8-0.2,1.2-0.2c0.4,0,0.9,0.1,1.2,0.2c0.4,0.2,0.7,0.4,0.9,0.7
		c0.2,0.3,0.4,0.6,0.6,1C215,148,215.1,148.4,215.1,148.8z"/>
	<path class="st3" d="M227.5,146.5h1.6v1.3h-1.6v1.1h1.6v1.3h-1.6v1.8H226v-7h1.5V146.5L227.5,146.5z M226,157.1v-3.3h-5.6v-1.3h7
		v4.6H226L226,157.1z M219.1,148.4c0-0.4,0.1-0.8,0.2-1.2c0.1-0.4,0.3-0.7,0.6-1c0.3-0.3,0.6-0.5,0.9-0.7c0.3-0.2,0.7-0.2,1.1-0.2
		c0.4,0,0.8,0.1,1.2,0.2c0.3,0.2,0.7,0.4,0.9,0.7c0.3,0.3,0.4,0.6,0.6,1c0.1,0.4,0.2,0.8,0.2,1.2c0,0.4-0.1,0.8-0.2,1.2
		c-0.1,0.4-0.3,0.7-0.6,1c-0.3,0.3-0.6,0.5-0.9,0.6c-0.4,0.2-0.7,0.2-1.2,0.2c-0.4,0-0.8-0.1-1.1-0.2c-0.3-0.2-0.6-0.4-0.9-0.6
		c-0.3-0.3-0.4-0.6-0.6-1C219.1,149.2,219.1,148.8,219.1,148.4L219.1,148.4z M220.5,148.4c0,0.5,0.1,0.9,0.4,1.2
		c0.3,0.3,0.6,0.5,1,0.5c0.4,0,0.8-0.2,1-0.5c0.3-0.3,0.4-0.7,0.4-1.2c0-0.5-0.1-0.9-0.4-1.2c-0.3-0.3-0.6-0.5-1-0.5
		c-0.4,0-0.8,0.2-1,0.5C220.7,147.4,220.5,147.8,220.5,148.4z"/>
	<path class="st3" d="M230.5,146.6v-1.3h7.7v1.3H230.5L230.5,146.6z M230.4,149.8v-1.3l1.4,0l-0.1-1.5h1.5l0,1.5h2.2l0.1-1.5h1.5
		l-0.1,1.5h1.4v1.3H230.4L230.4,149.8z M233.5,153v-1h-4.4v-1.3h10.3v1.3H235v1h2.9v3.9h-7.1V153H233.5L233.5,153z M236.4,154.3
		h-4.2v1.3h4.2V154.3z"/>
	<path class="st3" d="M249.9,149.6h-1.6v4h-1.5V145h1.5v3.2h1.6V149.6L249.9,149.6z M248.5,156.9h-6.9v-3.7h1.5v2.4h5.5V156.9
		L248.5,156.9z M239.8,148.6c0-0.5,0.1-0.9,0.2-1.3c0.1-0.4,0.3-0.7,0.6-1c0.2-0.3,0.5-0.5,0.9-0.7c0.4-0.2,0.7-0.2,1.2-0.2
		c0.5,0,0.9,0.1,1.3,0.2c0.4,0.2,0.7,0.4,0.9,0.7c0.3,0.3,0.4,0.6,0.6,1c0.1,0.4,0.2,0.8,0.2,1.3c0,0.4-0.1,0.8-0.2,1.2
		c-0.1,0.4-0.3,0.7-0.6,1c-0.3,0.3-0.6,0.5-0.9,0.7s-0.8,0.2-1.3,0.2c-0.4,0-0.8-0.1-1.2-0.2c-0.3-0.2-0.6-0.4-0.9-0.7
		c-0.2-0.3-0.4-0.6-0.6-1C239.9,149.5,239.8,149.1,239.8,148.6L239.8,148.6z M241.3,148.6c0,0.5,0.1,1,0.3,1.3
		c0.2,0.3,0.6,0.5,1,0.5c0.4,0,0.8-0.2,1.1-0.5c0.3-0.3,0.4-0.7,0.4-1.3c0-0.3,0-0.5-0.1-0.8c-0.1-0.2-0.2-0.4-0.3-0.6
		c-0.1-0.2-0.3-0.3-0.5-0.4c-0.2-0.1-0.4-0.1-0.6-0.1c-0.4,0-0.8,0.2-1,0.5C241.5,147.6,241.3,148.1,241.3,148.6z"/>
	<path class="st3" d="M255.9,149.5v-1.4h1.7V145h1.5v8.9h-1.5v-4.3H255.9L255.9,149.5z M259.3,156.9h-7.1v-3.6h1.5v2.2h5.6V156.9
		L259.3,156.9z M250.7,145.7h1.7c0.5,0,1.1,0,1.6,0c0.5,0,1.1,0,1.6,0c-0.1,0.7-0.2,1.3-0.4,1.9c-0.2,0.6-0.4,1.1-0.7,1.6
		c0.3,0.4,0.7,0.8,1.1,1.2c0.4,0.4,0.8,0.6,1.2,0.9l-0.9,1.1c-0.8-0.5-1.6-1.2-2.3-2.1c-0.4,0.5-0.8,0.9-1.3,1.3
		c-0.5,0.4-1,0.7-1.6,1l-0.9-1.2c0.6-0.3,1.1-0.6,1.6-1c0.5-0.4,0.9-0.7,1.2-1.1c0.3-0.4,0.6-0.8,0.8-1.2c0.2-0.4,0.3-0.8,0.4-1.1
		c-0.3,0-0.7,0-1,0c-0.3,0-0.6,0-1,0h-1.3V145.7z"/>
	<path class="st3" d="M266.3,151.2v-1.4h1.7V145h1.5v12.1H268v-5.9H266.3L266.3,151.2z M261.8,146.8v-1.4h3.6v1.4H261.8L261.8,146.8
		z M265.1,150.9c0.3,0.5,0.7,1,1.1,1.4c0.4,0.4,0.8,0.8,1.3,1.1l-1,1.2c-0.4-0.4-0.8-0.8-1.2-1.1c-0.3-0.4-0.7-0.8-1-1.2
		c-0.4,0.6-0.9,1.1-1.4,1.5c-0.5,0.4-1.1,0.8-1.6,1.2l-0.9-1.1c0.5-0.3,1-0.7,1.5-1.1c0.5-0.4,0.9-0.8,1.3-1.3
		c0.4-0.4,0.7-0.9,0.9-1.4c0.2-0.5,0.4-0.9,0.4-1.3c-0.4,0-0.8,0-1.1,0c-0.4,0-0.7,0-1.1,0h-1.2v-1.4h1.9c0.6,0,1.1,0,1.7,0
		c0.6,0,1.1,0,1.7,0c-0.1,0.6-0.2,1.3-0.4,1.8C265.6,149.9,265.3,150.4,265.1,150.9z"/>
</g>
</svg>
