<?xml version="1.0" encoding="utf-8"?>
<!-- Generator: Adobe Illustrator 25.4.1, SVG Export Plug-In . SVG Version: 6.00 Build 0)  -->
<svg version="1.1" xmlns="http://www.w3.org/2000/svg" xmlns:xlink="http://www.w3.org/1999/xlink" x="0px" y="0px"
	 viewBox="0 0 1135.1 1187.3" style="enable-background:new 0 0 1135.1 1187.3;" xml:space="preserve">
<style type="text/css">
	.st0{opacity:0.9;fill:#5B5B5B;}
	.st1{fill-rule:evenodd;clip-rule:evenodd;fill:#FFFFFF;}
	.st2{fill:#FFFFFF;}
	.st3{font-family:'NotoSansKR-Medium-KSCpc-EUC-H';}
	.st4{font-size:43px;}
	.st5{opacity:0.8;fill:#5B5B5B;}
	.st6{opacity:0.7;fill:#5B5B5B;}
	.st7{opacity:0.6;fill:#5B5B5B;}
	.st8{opacity:0.5;fill:#5B5B5B;}
	.st9{font-size:37px;}
	.st10{fill:#5B5B5B;}
</style>
<g id="레이어_1">
	<polygon class="st0" points="672.2,31.7 771.4,202.8 672.8,374.2 475,374.5 375.9,203.5 474.4,32 	"/>
	<path class="st1" d="M634.5,220.4c-5.7,5.9-15.7,9.4-26.7,9.4s-21-3.5-26.7-9.4c-3-3.1-4.6-6.7-4.6-10.5v-51.2
		c0-11.2,13.8-19.9,31.3-19.9c17.6,0,31.3,8.8,31.3,19.9v51.2C639.1,213.7,637.5,217.3,634.5,220.4z M607.8,144.4
		c-13.9,0-25.6,6.5-25.6,14.2c0,7.7,11.7,14.2,25.6,14.2c13.9,0,25.6-6.5,25.6-14.2C633.4,150.9,621.7,144.4,607.8,144.4z
		 M633.4,170.2c-5,5.1-14.9,8.4-25.6,8.4c-10.7,0-20-3.3-25.6-8.4v5.5c0,2.8,1,5.6,4,6.8c3.6,4.5,12.2,7.5,21.6,7.5
		c9.8,0,19.6-2.9,22.6-7.3c2-1.3,3-4.1,3-6.9V170.2z M633.4,187.2c-5.8,5.3-15.2,8.4-25.6,8.4c-10.4,0-19.8-3.2-25.6-8.4v5.6
		c0,2.7,1,5.5,4,8c3.6,3.3,12.2,6.2,21.6,6.2c9.8,0,19.6-2.9,22.6-7.4c2-1.3,3-4.1,3-6.8V187.2z M633.4,204.3
		c-5.8,5.3-15.2,8.4-25.6,8.4c-10.4,0-19.8-3.2-25.6-8.4v5.6c0,2.6,1,5.4,4,6.8c3.6,4.5,12.2,7.5,21.6,7.5c9.8,0,19.6-2.9,22.6-6.2
		c2-2.6,3-5.4,3-8V204.3z M539.4,229.8c-17.6,0-31.3-8.8-31.3-19.9v-85.4c0-11.2,13.8-19.9,31.3-19.9c17.6,0,31.3,8.8,31.3,19.9
		v85.4C570.8,221,557,229.8,539.4,229.8z M539.4,110.2c-13.9,0-25.6,6.5-25.6,14.2c0,7.7,11.7,14.2,25.6,14.2
		c13.9,0,25.6-6.5,25.6-14.2C565.1,116.8,553.3,110.2,539.4,110.2z M565.1,136c-5.2,5.1-14.9,8.4-25.6,8.4c-10.7,0-20-3.3-25.6-8.4
		v5.5c0,2.9,1,5.7,4.3,7c3.2,4.3,11.9,7.3,21.3,7.3c10.2,0,19.9-2.9,22.6-7.2c2-1.3,3-4.1,3-7.1V136z M565.1,153
		c-5.8,5.3-15.2,8.4-25.6,8.4c-10.4,0-19.8-3.2-25.6-8.4v5.6c0,2.8,1,5.7,4.3,6.8c3.2,4.5,11.9,7.4,21.3,7.4
		c10.2,0,19.9-2.9,22.6-7.3c2-1.3,3-4.1,3-6.9V153z M565.1,170.1c-5.8,5.3-15.2,8.4-25.6,8.4c-10.4,0-19.8-3.2-25.6-8.4v5.6
		c0,2.8,1,5.6,4.3,6.8c3.2,4.5,11.9,7.5,21.3,7.5c10.2,0,19.9-2.9,22.6-7.3c2-1.3,3-4.1,3-6.9V170.1z M565.1,187.2
		c-5.8,5.3-15.2,8.4-25.6,8.4c-10.4,0-19.8-3.2-25.6-8.4v5.6c0,2.7,1,5.5,4.3,8l-3.4,0.5l3.5-1.8c3.1,4.5,11.8,7.4,21.2,7.4
		c10.2,0,19.9-2.9,22.6-7.4l2,1.8l-2-0.5c2-2.6,3-5.4,3-8V187.2z M565.1,204.3c-5.8,5.3-15.2,8.4-25.6,8.4
		c-10.4,0-19.8-3.2-25.6-8.4v5.6c0,7.7,11.7,14.2,25.6,14.2c13.9,0,25.6-6.5,25.6-14.2V204.3z"/>
	<text transform="matrix(1 0 0 1 506.6427 313.84)" class="st2 st3 st4">경제성</text>
	<polygon class="st5" points="994.1,224.2 1093.2,395.3 994.7,566.7 796.9,567.1 697.7,396 796.3,224.5 	"/>
	<text transform="matrix(1 0 0 1 836.1404 506.3617)" class="st2 st3 st4">안정성</text>
	<polygon class="st6" points="994.6,597.5 1093.8,768.6 995.2,940 797.5,940.4 698.3,769.3 796.9,597.9 	"/>
	<text transform="matrix(1 0 0 1 836.7125 879.6661)" class="st2 st3 st4">편의성</text>
	<polygon class="st7" points="670.4,787.9 769.6,959 671,1130.4 473.2,1130.7 374.1,959.7 472.6,788.2 	"/>
	<text transform="matrix(1 0 0 1 532.2446 1070.0428)" class="st2 st3 st4">해썹</text>
	<polygon class="st8" points="341.2,599.9 440.4,771 341.8,942.4 144.1,942.8 44.9,771.7 143.5,600.3 	"/>
	<text transform="matrix(1 0 0 1 128.9105 882.0863)" class="st2 st3 st9">차별성·경쟁력</text>
	<polygon class="st10" points="341.9,225.3 441.1,396.4 342.5,567.9 144.7,568.2 45.6,397.1 144.1,225.7 	"/>
	<text transform="matrix(1 0 0 1 184.1505 507.5059)" class="st2 st3 st4">수익성</text>
	<path class="st1" d="M304.9,426.8h-27c-1.5,0-2.7-1.2-2.7-2.7V300.6c0-2.4,1.2-3.6,2.7-3.6h27c1.5,0,3.8,1.2,3.8,3.6v123.4
		C308.7,425.6,306.4,426.8,304.9,426.8z M302.2,302.5h-21.6v118.9h21.6V302.5z M256.3,426.8h-26.1c-2.5,0-3.7-1.2-3.7-2.7v-89.2
		c0-1.5,1.2-2.7,3.7-2.7h26.1c1.5,0,2.7,1.2,2.7,2.7v89.2C259,425.6,257.8,426.8,256.3,426.8z M253.6,337.6H232v83.8h21.6V337.6z
		 M207.6,426.8h-27c-1.5,0-2.7-1.2-2.7-2.7v-59.5c0-1.5,1.2-2.7,2.7-2.7h27c2.2,0,2.7,1.2,2.7,2.7v59.5
		C210.3,425.6,209.8,426.8,207.6,426.8z M204.9,367.3h-21.6v54.1h21.6V367.3z"/>
	<path class="st1" d="M289.7,783c0.3,0.8-1.6,1.2-1.7,1.1l-15.7-2.1l-6.6,16.4c-0.4,1-1.3,1.6-2.4,1.7c0,0-0.1,0-0.1,0
		c-1,0-1.9-0.6-2.4-1.5l-17.9-35.7c-0.1,0-0.3,0-0.4,0l-18.2,35.7c-0.5,0.9-1.4,1.5-2.4,1.5c0,0-0.1,0-0.1,0c-1.1-0.1-2-0.7-2.4-1.7
		L213,782l-14.8,2.1c-1,0.1-2-0.3-2.6-1.1c-0.6-0.8-0.7-1.9-0.2-2.7l15-29.7c-8.8-8.2-14.4-19.8-14.4-32.7c0-24.8,20.5-45.1,46-45.1
		c24.7,0,45.2,20.2,45.2,45.1c0,13.6-5,23.4-13.1,31.5l15.6,30.9C290.3,781.2,290.2,782.2,289.7,783z M202.5,778.1l11.9-1.7
		c1.2-0.1,2.4,0.5,2.9,1.7l4.9,12.7l14.4-28.2c-8.1-0.9-15.6-3.9-21.9-8.5L202.5,778.1z M282,717.8c0-21.9-18-39.8-39.8-39.8
		c-22.6,0-40.7,17.8-40.7,39.8c0,21.9,18.1,40.2,40.7,40.2C263.9,758.1,282,739.8,282,717.8z M270.1,753.1
		c-6.1,4.8-13.5,8.1-21.5,9.3l14.3,28.5l5.1-12.8c0.5-1.1,1.7-1.8,2.9-1.6l11.9,1.7L270.1,753.1z M217.6,717.8
		c0-13.2,10.8-23.9,24.6-23.9c12.9,0,23.7,10.7,23.7,23.9c0,13.2-10.8,23.9-23.7,23.9C228.4,741.7,217.6,731,217.6,717.8z
		 M260.5,717.8c0-10.2-8.4-18.6-18.3-18.6c-10.8,0-19.2,8.3-19.2,18.6c0,10.9,8.4,18.6,19.2,18.6
		C252.1,736.4,260.5,728.8,260.5,717.8z"/>
	<g>
		<path class="st2" d="M502.3,941.8c0,0-6.9,4.5-5.7,12.5c0.9,6,12,13.6,22.5,18c10.9,4.7,32.6,8.9,53.8,8.9
			c21.2,0,33.6-2.5,46.8-7.2c13.1-4.6,27.5-10.9,27.6-21.4c0.1-8.7-6.6-10.6-6.6-10.6s1.3,8-6,12.5c-12.7,6.8-35.3,13.5-62.4,13.2
			c-29-0.4-47.8-4.5-61-12.5C501.5,949.3,501.9,944.1,502.3,941.8z"/>
		<polygon class="st2" points="509.8,943.3 509.8,910.9 516,910.9 516,923.6 528,923.6 528,910.9 534.2,910.9 534.2,943.3 
			528,943.3 528,929.1 516,929.1 516,943.3 		"/>
		<path class="st2" d="M564.7,943.3H558l-2.7-7.4h-12.2l-2.5,7.4h-6.5l11.9-32.4h6.5L564.7,943.3L564.7,943.3z M553.4,930.5l-4.2-12
			l-4.1,12H553.4z"/>
		<path class="st2" d="M584.1,931.4l6,2c-0.9,3.5-2.4,6.2-4.6,7.9c-2.1,1.7-4.8,2.6-8.1,2.6c-4,0-7.4-1.5-10-4.4
			c-2.6-2.9-3.9-7-3.9-12.1c0-5.4,1.3-9.6,3.9-12.6c2.6-3,6.1-4.5,10.3-4.5c3.7,0,6.7,1.2,9.1,3.5c1.4,1.4,2.4,3.4,3.1,6l-6.1,1.5
			c-0.4-1.7-1.1-3-2.3-4c-1.1-1-2.5-1.5-4.2-1.5c-2.3,0-4.1,0.9-5.5,2.6c-1.4,1.7-2.1,4.5-2.1,8.4c0,4.1,0.7,7,2.1,8.8
			c1.4,1.7,3.2,2.6,5.4,2.6c1.6,0,3-0.6,4.2-1.7C582.7,935.5,583.6,933.7,584.1,931.4z"/>
		<path class="st2" d="M611.5,931.4l6,2c-0.9,3.5-2.4,6.2-4.6,7.9c-2.1,1.7-4.8,2.6-8.1,2.6c-4,0-7.4-1.5-10-4.4
			c-2.6-2.9-3.9-7-3.9-12.1c0-5.4,1.3-9.6,3.9-12.6c2.6-3,6.1-4.5,10.3-4.5c3.7,0,6.7,1.2,9.1,3.5c1.4,1.4,2.4,3.4,3.1,6l-6.1,1.5
			c-0.4-1.7-1.1-3-2.3-4c-1.1-1-2.5-1.5-4.2-1.5c-2.3,0-4.1,0.9-5.5,2.6c-1.4,1.7-2.1,4.5-2.1,8.4c0,4.1,0.7,7,2.1,8.8
			c1.4,1.7,3.2,2.6,5.4,2.6c1.6,0,3-0.6,4.2-1.7C610.1,935.5,611,933.7,611.5,931.4z"/>
		<path class="st2" d="M619.4,943.3v-32.4h9.9c3.7,0,6.2,0.2,7.3,0.5c1.7,0.5,3.2,1.5,4.4,3.2c1.2,1.6,1.8,3.7,1.8,6.3
			c0,2-0.3,3.7-1,5c-0.7,1.4-1.5,2.4-2.6,3.2c-1,0.8-2.1,1.3-3.2,1.5c-1.5,0.3-3.6,0.5-6.4,0.5h-4v12.2H619.4L619.4,943.3z
			 M625.5,916.4v9.2h3.4c2.4,0,4-0.2,4.9-0.5c0.8-0.3,1.5-0.9,1.9-1.6c0.5-0.7,0.7-1.6,0.7-2.5c0-1.2-0.3-2.2-1-2.9
			c-0.6-0.8-1.5-1.2-2.5-1.4c-0.7-0.2-2.2-0.2-4.4-0.2H625.5z"/>
	</g>
	<path class="st1" d="M950.2,740.9c2.1,2.1,3.5,5.1,3.5,8.3c0,3.5-1.6,6.6-4,8.7c-0.1,0.1-0.3,0.2,0.9,0.3c-2.2,0.7-3.2,1.4-4.3,1.8
		c1.7,2,2.8,4.6,2.8,7.5c0,4.8-2.9,8.8-7,10.7c1.4,1.8,2.3,4.1,2.3,6.5c0,5.1-3.7,9.4-8.6,10.4c1.2,0.1-0.7,0.2-1.1,0.2h-1.2h-3.5
		h-27.9c-7.1,0-17.9-2.5-23.7-6.9v1.1c0,4.3-3.6,7.9-8,7.9H844c-4.4,0-8-3.5-8-7.9v-63c0-4.3,3.6-7.9,8-7.9h26.5c4.4,0,8,3.5,8,7.9
		v1.7c15.1-5.5,30.3-24.5,30.3-48.3c0-3.7,2.8-5.8,7-7.2c5.2-0.7,12.1,2.4,14.5,11.1c3.6,12.8-1,23.9-5.5,34.6l-0.1,0.3h19.3
		c6.6,0,12,6.4,12,11.8C956,735.1,953.7,738.8,950.2,740.9z M873.9,726.7c0-1.4-1.9-2.6-3.4-2.6H844c-1.5,0-2.7,1.2-2.7,2.6v63
		c0,3.3,1.2,2.6,2.7,2.6h26.5c1.5,0,3.4,0.7,3.4-2.6V726.7z M944.1,724.8h-23.3c-0.9,0-1.7-1-2.2-1.8c-0.5-0.7-0.6-1.6-0.3-2.4
		l1.6-3.9c4.1-9.9,8.4-19.5,5.3-31.2c-1.6-5.6-5.7-7.7-8.7-6.3c-0.6,0.8-2.4-0.6-2.4,1c0,27-18.1,48.4-35.6,53.8v48.9
		c4.2,2,16.6,7.5,23.7,7.5h27.9h3.5c3,0,5.5-2.4,5.5-5.4c0-1.8-2.5-5.2-5.5-5.2h-1.2c-1.5,0-2.7-1.4-2.7-2.9c0-1.5,1.2-2.6,2.7-2.6
		h1.2c0.3,0,0.5,0.1,0.8,0.1c0.1,0,0.2-0.1,0.4-0.1h2.3c3.7,0,6.7-3,6.7-6.6c0-3.6-3-6.3-6.7-6.3c-1.5,0-2.7-1.4-2.7-2.9
		c0-1.4,1.2-2.6,2.7-2.6h2.3h2.3c3.7,0,6.7-2.9,6.7-6.6c0-3.6-3-6.1-6.7-6.1c-1.5,0-2.7-1.6-2.7-3.1c0-1.4,1.2-2.6,2.7-2.6h2.3
		c3.7,0,6.7-3,6.7-6.6C950.7,727.1,947.7,724.8,944.1,724.8z M865,788.6c-2.7,0-5-1.5-5-4.9c0-2.7,2.2-4.9,5-4.9c2.7,0,5,2.2,5,4.9
		C869.9,787.1,867.7,788.6,865,788.6z M865,783.4l-0.3,0.3c0,0.2,0.1,0.3,0.3,0.3V783.4z"/>
	<path class="st1" d="M941.6,421.4h-92.2c-0.6,0-2.7-1.2-2.7-1.8V304.8c0,0.1,2.1-2.7,2.7-2.7h19.3c1.3-6.2,6.7-10.9,13.3-10.9H909
		c6.6,0,12.2,4.7,13.3,10.9h19.3c1.5,0,2.7,2.8,2.7,2.7v114.8C944.3,420.2,943.1,421.4,941.6,421.4z M917.2,304.8
		c0-4.5-3.7-6.3-8.1-6.3h-27.1c-4.5,0-8.1,1.8-8.1,6.3v2.7h43.4V304.8z M939.3,307.5h-16.7v2.7c0,1.5-1.2,2.7-2.7,2.7h-48.8
		c-1.5,0-2.7-1.2-2.7-2.7v-2.7h-16.3V416h87.2V307.5z M871.1,351.6l14.4-16.1l3.8,3.8L873,355.6c-0.5,0.5-1.2,0.8-1.9,0.8
		c-0.7,0-1.4-0.3-1.9-0.8l-10.8-10.9l3.8-3.8L871.1,351.6z M871.1,382.4l14.4-14.4l3.8,3.8L873,388.1c-0.5,0.5-1.2,0.8-1.9,0.8
		c-0.7,0-1.4-0.3-1.9-0.8l-10.8-10.9l3.8-3.8L871.1,382.4z M900.9,346.9H928c1.5,0,2.7-0.2,2.7,1.3c0,1.5-1.2,2.7-2.7,2.7h-27.1
		c-1.5,0-2.7-1.2-2.7-2.7C898.2,346.7,899.4,346.9,900.9,346.9z M900.9,378H928c1.5,0,2.7,1.2,2.7,2.7c0,1.5-1.2,2.7-2.7,2.7h-27.1
		c-1.5,0-2.7-1.2-2.7-2.7C898.2,379.3,899.4,378,900.9,378z"/>
</g>
<g id="레이어_2">
</g>
</svg>
