<?xml version="1.0" encoding="iso-8859-1"?>
<!-- Generator: Adobe Illustrator 25.4.1, SVG Export Plug-In . SVG Version: 6.00 Build 0)  -->
<svg version="1.1" id="&#xB808;&#xC774;&#xC5B4;_1" xmlns="http://www.w3.org/2000/svg" xmlns:xlink="http://www.w3.org/1999/xlink"
	 x="0px" y="0px" viewBox="0 0 50 50" style="enable-background:new 0 0 50 50;" xml:space="preserve">
<path style="fill:#FFFFFF;stroke:#FFFFFF;stroke-width:0.25;stroke-miterlimit:10;" d="M10.643,44.514h27.954
	c1.053,0,1.906-0.853,1.906-1.906v-21.44l0.226,0.149c0.414,0.286,0.928,0.39,1.421,0.286c0.507-0.105,0.95-0.412,1.225-0.851
	l0.004-0.007c0.558-0.899,0.314-2.078-0.556-2.682L25.666,6.713c-0.63-0.427-1.457-0.427-2.087,0L6.412,18.071
	c-0.868,0.605-1.109,1.785-0.549,2.682c0.272,0.438,0.712,0.746,1.217,0.851c0.127,0.026,0.256,0.038,0.385,0.038
	c0.37,0,0.732-0.11,1.039-0.318l0.232-0.156v21.439C8.737,43.661,9.59,44.514,10.643,44.514L10.643,44.514z M39.232,42.608
	c0,0.351-0.284,0.635-0.635,0.635H10.643c-0.351,0-0.636-0.284-0.636-0.635V20.329l14.612-9.657l14.612,9.657V42.608z M7.798,20.267
	c-0.133,0.092-0.298,0.125-0.456,0.092c-0.167-0.035-0.312-0.137-0.401-0.282c-0.201-0.314-0.123-0.73,0.178-0.949L24.285,7.768
	c0.099-0.067,0.216-0.103,0.335-0.103c0.122,0.001,0.24,0.038,0.341,0.106l17.155,11.353c0.304,0.217,0.385,0.634,0.186,0.949
	c-0.092,0.147-0.239,0.25-0.409,0.286c-0.159,0.032-0.325-0.003-0.457-0.096L24.971,9.381c-0.212-0.139-0.486-0.139-0.699,0
	L7.798,20.267z M7.798,20.267"/>
<polyline style="fill:none;" points="5.559,6.392 5.559,44.514 43.681,44.514 43.681,6.392 "/>
<path style="fill:#FFFFFF;stroke:#FFFFFF;stroke-width:0.25;stroke-miterlimit:10;" d="M19.313,18.381
	c-0.738-0.734-1.931-0.734-2.668,0l-3.543,3.542c-0.735,0.738-0.735,1.931,0,2.668l5.749,5.754l-3.536,3.537
	c-0.077,0.076-0.133,0.17-0.162,0.274l-1.481,5.185c-0.105,0.368-0.032,0.764,0.199,1.07c0.231,0.306,0.591,0.485,0.974,0.485
	c0.113,0,0.226-0.016,0.335-0.047l5.185-1.482c0.104-0.029,0.199-0.085,0.275-0.162l3.537-3.535l5.75,5.751
	c0.738,0.734,1.931,0.734,2.668,0l3.543-3.542c0.735-0.738,0.735-1.931,0-2.668l-5.747-5.754l4.864-4.865
	c0.472-0.472,0.738-1.111,0.738-1.779c0-0.667-0.266-1.307-0.738-1.779l-1.771-1.771c-0.471-0.473-1.111-0.739-1.779-0.736
	c-0.667-0.002-1.308,0.263-1.779,0.736l-4.86,4.869L19.313,18.381z M17.095,37.427c-0.374-0.37-0.821-0.658-1.313-0.845l0.395-1.384
	l2.203,0.944l0.944,2.203L17.94,38.74C17.753,38.248,17.465,37.801,17.095,37.427L17.095,37.427z M19.617,35.803l9.432-9.431
	l1.316,1.316l-9.958,9.957L19.617,35.803z M27.734,23.259l1.315-1.316l3.53,3.53l-1.317,1.315L27.734,23.259z M28.151,25.474
	l-9.432,9.431l-1.842-0.789l9.958-9.958L28.151,25.474z M14,23.694c-0.241-0.241-0.241-0.632,0-0.873l3.543-3.542
	c0.241-0.241,0.632-0.241,0.873,0l1.322,1.322l-1.322,1.322c-0.165,0.159-0.231,0.396-0.173,0.618
	c0.058,0.222,0.232,0.396,0.454,0.454c0.222,0.058,0.458-0.008,0.618-0.173l1.322-1.322l1.316,1.317l-0.879,0.88
	c-0.165,0.159-0.232,0.396-0.173,0.618c0.058,0.222,0.232,0.396,0.454,0.454c0.222,0.058,0.458-0.008,0.618-0.173l0.88-0.879
	l1.316,1.316l-4.416,4.415L14,23.694z M14.919,39.603l0.508-1.792c0.577,0.244,1.037,0.703,1.28,1.28L14.919,39.603z M30.807,31.673
	l-0.879,0.879c-0.165,0.16-0.231,0.396-0.173,0.618c0.058,0.222,0.232,0.396,0.454,0.454c0.222,0.058,0.458-0.008,0.618-0.173
	l0.879-0.881l1.316,1.316l-1.322,1.322c-0.165,0.16-0.232,0.396-0.173,0.618c0.058,0.222,0.232,0.396,0.454,0.454
	c0.222,0.058,0.458-0.008,0.618-0.173l1.322-1.322l1.321,1.322c0.241,0.241,0.241,0.632,0,0.873l-3.542,3.542
	c-0.241,0.241-0.632,0.241-0.873,0l-5.75-5.75l4.415-4.415L30.807,31.673z M31.705,19.8c0.33-0.001,0.647,0.13,0.88,0.364
	l1.771,1.771c0.485,0.486,0.485,1.272,0,1.758l-0.878,0.882l-3.53-3.53l0.88-0.88C31.058,19.932,31.375,19.8,31.705,19.8
	L31.705,19.8z M31.705,19.8"/>
</svg>
