<?xml version="1.0" encoding="iso-8859-1"?>
<!-- Generator: Adobe Illustrator 25.4.1, SVG Export Plug-In . SVG Version: 6.00 Build 0)  -->
<svg version="1.1" id="Capa_1" xmlns="http://www.w3.org/2000/svg" xmlns:xlink="http://www.w3.org/1999/xlink" x="0px" y="0px"
	 viewBox="182 372 50 50" style="enable-background:new 182 372 50 50;" xml:space="preserve">
<path style="fill:#FFFFFF;" d="M218.635,382.121c2.376,0,4.309-1.932,4.309-4.309c0-0.476-0.385-0.862-0.862-0.862h-29.299
	c-0.476,0-0.862,0.385-0.862,0.862c0,2.377,1.933,4.309,4.309,4.309h0.862v18.958h-0.862c-0.476,0-0.862,0.385-0.862,0.862
	c0,0.007,0.004,0.012,0.004,0.019c-1.042,0.787-1.727,2.024-1.727,3.428c0,2.377,1.933,4.309,4.309,4.309
	c2.376,0,4.309-1.932,4.309-4.309c0-1.404-0.685-2.641-1.727-3.428c0-0.007,0.004-0.012,0.004-0.019
	c0-0.476-0.385-0.862-0.862-0.862h-0.862v-18.958h7.756v27.576h-0.862c-0.476,0-0.862,0.385-0.862,0.862
	c0,0.007,0.004,0.012,0.004,0.019c-1.042,0.787-1.727,2.024-1.727,3.428c0,2.377,1.933,4.309,4.309,4.309
	c2.376,0,4.309-1.932,4.309-4.309c0-1.404-0.685-2.641-1.727-3.428c0-0.007,0.004-0.012,0.004-0.019
	c0-0.476-0.385-0.862-0.862-0.862h-0.862v-27.576h7.756v22.405h-0.862c-0.476,0-0.862,0.385-0.862,0.862
	c0,0.007,0.004,0.012,0.004,0.019c-1.042,0.787-1.727,2.024-1.727,3.428c0,2.377,1.933,4.309,4.309,4.309
	c2.376,0,4.309-1.932,4.309-4.309c0-1.404-0.685-2.641-1.727-3.428c0-0.007,0.004-0.012,0.004-0.019
	c0-0.476-0.385-0.862-0.862-0.862h-0.862v-22.405H218.635z M197.953,407.973c-1.426,0-2.585-1.16-2.585-2.585
	s1.16-2.585,2.585-2.585c1.426,0,2.585,1.16,2.585,2.585S199.379,407.973,197.953,407.973z M207.432,416.591
	c-1.426,0-2.585-1.16-2.585-2.585c0-1.426,1.16-2.585,2.585-2.585c1.426,0,2.585,1.16,2.585,2.585
	C210.018,415.431,208.858,416.591,207.432,416.591z M216.911,411.42c-1.426,0-2.585-1.16-2.585-2.585s1.16-2.585,2.585-2.585
	c1.426,0,2.585,1.16,2.585,2.585S218.337,411.42,216.911,411.42z M193.792,378.674h27.281c-0.356,1.003-1.314,1.723-2.438,1.723
	H196.23C195.106,380.398,194.148,379.677,193.792,378.674z"/>
</svg>
