<?xml version="1.0" encoding="iso-8859-1"?>
<!-- Generator: Adobe Illustrator 25.4.1, SVG Export Plug-In . SVG Version: 6.00 Build 0)  -->
<svg version="1.1" id="Capa_1" xmlns="http://www.w3.org/2000/svg" xmlns:xlink="http://www.w3.org/1999/xlink" x="0px" y="0px"
	 viewBox="411 603 52 50" style="enable-background:new 411 603 52 50;" xml:space="preserve">
<path style="fill:#FFFFFF;stroke:#FFFFFF;stroke-width:0.5;stroke-miterlimit:10;" d="M454.111,636.581
	c-0.225-0.093-0.485-0.042-0.657,0.131l-6.59,6.59c-0.172,0.172-0.224,0.432-0.131,0.657c0.093,0.225,0.313,0.372,0.557,0.372h6.59
	c0.333,0,0.603-0.27,0.603-0.603v-6.59C454.483,636.894,454.336,636.674,454.111,636.581z M453.277,643.125h-4.531l4.531-4.531
	L453.277,643.125L453.277,643.125z"/>
<path style="fill:#FFFFFF;stroke:#FFFFFF;stroke-width:0.5;stroke-miterlimit:10;" d="M458.47,626.915
	c-0.225-0.093-0.485-0.042-0.657,0.131l-1.806,1.806v-12.279c0-0.333-0.27-0.603-0.603-0.603h-4.633l1.682-1.682
	c0,0,0-0.001,0.001-0.001l1.621-1.621c0.347-0.347,0.538-0.809,0.538-1.3c0-0.491-0.191-0.953-0.538-1.3l-1.874-1.874
	c-0.347-0.347-0.809-0.538-1.3-0.538c-0.491,0-0.953,0.191-1.3,0.538l-1.621,1.621l-1.959,1.959l-4.197,4.197h-18.718v-5.966
	c0-0.333-0.27-0.603-0.603-0.603c-2.615,0-4.743,2.128-4.743,4.743v25.612c0,0.045,0.005,0.088,0.014,0.13
	c0.083,1.11,0.563,2.141,1.366,2.923c0.858,0.836,1.99,1.297,3.188,1.297h18.426l-3.47,3.47c-0.172,0.173-0.224,0.432-0.131,0.657
	c0.093,0.225,0.313,0.372,0.557,0.372h20.53c0.333,0,0.603-0.27,0.603-0.603v-20.53C458.842,627.229,458.695,627.009,458.47,626.915
	z M448.405,611.093l2.769,2.769l-1.106,1.106l-2.769-2.769L448.405,611.093z M450.452,609.045c0.246-0.247,0.648-0.247,0.895,0
	l1.874,1.874c0.247,0.247,0.247,0.648,0,0.895l-1.195,1.195l-2.769-2.769L450.452,609.045z M439.165,647.399l6.091-6.091
	c0,0,0,0,0,0l0,0l0,0c0.236-0.236,0.236-0.617,0-0.853c-0.027-0.027-0.056-0.051-0.086-0.071c-0.235-0.161-0.558-0.137-0.766,0.071
	l-2.444,2.444h-19.632c-1.829,0-3.301-1.428-3.359-3.253c0.003-0.115,0.012-0.228,0.027-0.341c0-0.001,0-0.001,0-0.002
	c0.007-0.053,0.015-0.106,0.024-0.159c0.001-0.006,0.002-0.012,0.003-0.018c0.008-0.047,0.018-0.094,0.028-0.141
	c0.003-0.013,0.006-0.026,0.009-0.039c0.009-0.039,0.019-0.079,0.03-0.118c0.006-0.021,0.012-0.042,0.018-0.063
	c0.009-0.031,0.018-0.061,0.028-0.091c0.01-0.03,0.02-0.06,0.031-0.09c0.007-0.021,0.015-0.042,0.022-0.063
	c0.015-0.039,0.03-0.079,0.046-0.117c0.005-0.011,0.009-0.022,0.014-0.034c0.021-0.048,0.042-0.096,0.065-0.143
	c0.001-0.002,0.002-0.004,0.003-0.006c0.472-0.976,1.379-1.704,2.467-1.93c0.003-0.001,0.006-0.001,0.009-0.002
	c0.05-0.01,0.1-0.019,0.151-0.027c0.008-0.001,0.017-0.003,0.025-0.004c0.046-0.007,0.092-0.012,0.138-0.018
	c0.013-0.001,0.026-0.003,0.039-0.005c0.045-0.004,0.09-0.007,0.135-0.01c0.014-0.001,0.029-0.002,0.043-0.003
	c0.059-0.003,0.119-0.004,0.178-0.004c0.333,0,0.603-0.27,0.603-0.603v-4.372c0-0.333-0.27-0.603-0.603-0.603
	s-0.603,0.27-0.603,0.603v3.807c-1.018,0.129-1.963,0.583-2.709,1.311c-0.078,0.077-0.153,0.156-0.225,0.237v-22.454
	c0-1.745,1.27-3.198,2.934-3.485v5.914v12.259v0c0,0.333,0.27,0.603,0.603,0.603s0.603-0.27,0.603-0.603v0v-11.656h17.512
	l-3.333,3.334c-0.236,0.236-0.236,0.617,0,0.853c0.235,0.235,0.617,0.235,0.853,0l4.363-4.363c0,0,0,0,0,0l3.947-3.947l2.769,2.769
	l-0.325,0.325c0,0-0.001,0-0.001,0.001l-12.159,12.159l-2.769-2.769l2.397-2.397c0.235-0.236,0.235-0.617,0-0.853
	c-0.236-0.235-0.617-0.235-0.853,0l-2.823,2.823c-0.015,0.015-0.029,0.031-0.042,0.047c-0.004,0.005-0.008,0.011-0.013,0.017
	c-0.009,0.011-0.017,0.023-0.025,0.035c-0.004,0.007-0.008,0.014-0.013,0.021c-0.007,0.011-0.013,0.023-0.019,0.034
	c-0.004,0.008-0.007,0.015-0.011,0.023c-0.005,0.012-0.01,0.024-0.015,0.036c-0.002,0.004-0.004,0.008-0.005,0.013l-1.175,3.328
	l-0.801,2.269c-0.011,0.03-0.018,0.061-0.024,0.092h-2.005c-0.333,0-0.603,0.27-0.603,0.603s0.27,0.603,0.603,0.603h16.699
	c0.333,0,0.603-0.27,0.603-0.603s-0.27-0.603-0.603-0.603h-11.981l3.677-1.298c0.003-0.001,0.006-0.003,0.009-0.004
	c0.014-0.005,0.028-0.011,0.042-0.018c0.006-0.003,0.011-0.005,0.016-0.008c0.014-0.007,0.029-0.015,0.043-0.024
	c0.005-0.003,0.009-0.005,0.014-0.008c0.015-0.009,0.029-0.02,0.043-0.03c0.003-0.003,0.007-0.005,0.01-0.008
	c0.017-0.014,0.033-0.028,0.049-0.044l12.409-12.409h5.236v12.882l-8.626,8.626c-0.235,0.236-0.235,0.617,0,0.853
	c0.015,0.015,0.03,0.029,0.046,0.041c0.111,0.09,0.246,0.135,0.381,0.135c0.135,0,0.27-0.045,0.381-0.135
	c0.016-0.013,0.031-0.027,0.046-0.041l0,0c0,0,0,0,0,0l10.608-10.608v5.32h-1.113c-0.333,0-0.603,0.27-0.603,0.603
	c0,0.333,0.27,0.603,0.603,0.603h1.113v1.817h-1.113c-0.333,0-0.603,0.27-0.603,0.603c0,0.333,0.27,0.603,0.603,0.603h1.113v1.817
	h-1.113c-0.333,0-0.603,0.27-0.603,0.603s0.27,0.603,0.603,0.603h1.113v1.817h-1.113c-0.333,0-0.603,0.27-0.603,0.603
	c0,0.333,0.27,0.603,0.603,0.603h1.113v2.876H439.165z M433.9,629.517l-1.151-1.151l0.61-1.727l2.268,2.268L433.9,629.517z"/>
</svg>
