<?xml version="1.0" encoding="iso-8859-1"?>
<!-- Generator: Adobe Illustrator 25.4.1, SVG Export Plug-In . SVG Version: 6.00 Build 0)  -->
<svg version="1.1" id="&#xB808;&#xC774;&#xC5B4;_1" xmlns="http://www.w3.org/2000/svg" xmlns:xlink="http://www.w3.org/1999/xlink"
	 x="0px" y="0px" viewBox="0 0 50.174 50.174" style="enable-background:new 0 0 50.174 50.174;" xml:space="preserve">
<g>
	<path style="fill:#FFFFFF;" d="M35.552,18.444H22.176c-0.5,0-0.905,0.405-0.905,0.905s0.405,0.905,0.905,0.905h13.376
		c0.5,0,0.905-0.405,0.905-0.905S36.053,18.444,35.552,18.444L35.552,18.444z M35.552,18.444"/>
	<path style="fill:#FFFFFF;" d="M13.267,19.61l1.797,1.464c0.217,0.177,0.486,0.265,0.755,0.265c0.282,0,0.563-0.096,0.784-0.288
		l2.537-2.194c0.378-0.327,0.42-0.899,0.092-1.277c-0.327-0.378-0.899-0.42-1.277-0.092l-2.147,1.857l-1.397-1.139
		c-0.388-0.316-0.958-0.257-1.274,0.13C12.821,18.723,12.879,19.294,13.267,19.61L13.267,19.61z M13.267,19.61"/>
	<path style="fill:#FFFFFF;" d="M35.552,26.613H22.176c-0.5,0-0.905,0.405-0.905,0.905c0,0.5,0.405,0.905,0.905,0.905h13.376
		c0.5,0,0.905-0.405,0.905-0.905C36.458,27.018,36.053,26.613,35.552,26.613L35.552,26.613z M35.552,26.613"/>
	<path style="fill:#FFFFFF;" d="M17.955,25.656l-2.147,1.858l-1.397-1.139c-0.388-0.316-0.958-0.258-1.274,0.13
		c-0.316,0.388-0.257,0.958,0.13,1.274l1.797,1.464c0.217,0.177,0.486,0.265,0.755,0.265c0.282,0,0.563-0.096,0.784-0.288
		l2.537-2.194c0.378-0.327,0.42-0.899,0.092-1.277C18.905,25.371,18.333,25.329,17.955,25.656L17.955,25.656z M17.955,25.656"/>
	<path style="fill:#FFFFFF;" d="M35.552,34.782H22.176c-0.5,0-0.905,0.405-0.905,0.905c0,0.5,0.405,0.905,0.905,0.905h13.376
		c0.5,0,0.905-0.405,0.905-0.905C36.458,35.187,36.053,34.782,35.552,34.782L35.552,34.782z M35.552,34.782"/>
	<path style="fill:#FFFFFF;" d="M17.955,33.826l-2.147,1.857l-1.397-1.139c-0.388-0.316-0.958-0.258-1.274,0.13
		c-0.316,0.388-0.257,0.958,0.13,1.274l1.797,1.464c0.218,0.177,0.487,0.265,0.756,0.265c0.281,0,0.562-0.096,0.784-0.288
		l2.537-2.194c0.378-0.327,0.42-0.899,0.092-1.277C18.905,33.54,18.333,33.498,17.955,33.826L17.955,33.826z M17.955,33.826"/>
	<path style="fill:#FFFFFF;" d="M37.551,8.889H33.24c-0.226,0-0.212-0.257-0.212-0.257v-0.76c0-1.096-0.891-1.987-1.987-1.987H18.35
		c-1.095,0-1.987,0.891-1.987,1.987v0.794c0,0,0.019,0.223-0.23,0.223H11.84c-1.294,0-2.347,1.053-2.347,2.348v30.704
		c0,1.294,1.053,2.348,2.347,2.348h25.711c1.295,0,2.348-1.053,2.348-2.348V11.237C39.899,9.942,38.845,8.889,37.551,8.889
		L37.551,8.889z M18.174,7.872c0-0.096,0.081-0.176,0.176-0.176h12.691c0.096,0,0.176,0.081,0.176,0.176v3.666
		c0,0.096-0.081,0.176-0.176,0.176H18.35c-0.096,0-0.176-0.081-0.176-0.176V7.872z M38.088,41.942c0,0.291-0.246,0.537-0.537,0.537
		H11.84c-0.291,0-0.537-0.246-0.537-0.537V11.237c0-0.291,0.246-0.537,0.537-0.537h4.38c0.166,0,0.143,0.15,0.143,0.15v0.688
		c0,0.458,0.156,0.879,0.416,1.215c0.263,0.34,0.634,0.592,1.061,0.706c0.017,0.004,0.034,0.008,0.052,0.012
		c0.115,0.027,0.234,0.045,0.355,0.051c0.034,0.002,0.068,0.003,0.102,0.003h12.691c0.137,0,0.271-0.014,0.4-0.04
		c0.129-0.027,0.254-0.066,0.373-0.116c0.03-0.012,0.059-0.026,0.088-0.04c0.666-0.321,1.126-1.003,1.126-1.791v-0.671
		c0,0,0.001-0.168,0.193-0.168h4.33c0.291,0,0.537,0.246,0.537,0.537V41.942z M38.088,41.942"/>
</g>
</svg>
