<?xml version="1.0" encoding="iso-8859-1"?>
<!-- Generator: Adobe Illustrator 25.4.1, SVG Export Plug-In . SVG Version: 6.00 Build 0)  -->
<svg version="1.1" id="Capa_1" xmlns="http://www.w3.org/2000/svg" xmlns:xlink="http://www.w3.org/1999/xlink" x="0px" y="0px"
	 viewBox="182 372 50 50" style="enable-background:new 182 372 50 50;" xml:space="preserve">
<path style="fill:#FFFFFF;stroke:#FFFFFF;stroke-width:0.35;stroke-miterlimit:10;" d="M221.201,383.798h-3.127v-3.126
	c0-0.983-0.804-1.787-1.786-1.787h-22.779c-0.983,0-1.787,0.804-1.787,1.787v28.585c0,0.983,0.804,1.787,1.787,1.787h3.127v3.127
	c0,0.983,0.804,1.787,1.787,1.787h15.185c0.982,0,2.372-0.551,3.087-1.224l4.991-4.698c0.716-0.673,1.301-2.028,1.301-3.011
	l0.001-21.439C222.987,384.602,222.183,383.798,221.201,383.798z M193.509,409.703c-0.242,0-0.447-0.205-0.447-0.447v-28.585
	c0-0.242,0.205-0.447,0.447-0.447h22.779c0.242,0,0.447,0.205,0.447,0.447v3.127h-18.313c-0.983,0-1.787,0.804-1.787,1.787v24.119
	H193.509z M198.422,414.616c-0.243,0-0.447-0.205-0.447-0.447v-28.585c0-0.242,0.204-0.447,0.447-0.447h22.779
	c0.242,0,0.447,0.205,0.447,0.447l-0.001,21.439c0,0.133-0.024,0.286-0.061,0.447h-5.075c-1.356,0.003-2.454,1.101-2.457,2.457
	v4.636c-0.159,0.032-0.313,0.054-0.447,0.054L198.422,414.616L198.422,414.616z M215.776,413.756
	c-0.102,0.096-0.235,0.19-0.382,0.28v-4.11c0-0.307,0.124-0.583,0.328-0.788c0.206-0.204,0.482-0.328,0.789-0.328h4.469
	c-0.069,0.094-0.14,0.181-0.212,0.249L215.776,413.756z"/>
<path style="fill:#FFFFFF;stroke:#FFFFFF;stroke-width:0.35;stroke-miterlimit:10;" d="M203.336,391.391h12.953
	c0.37,0,0.67-0.3,0.67-0.67s-0.3-0.67-0.67-0.67h-12.953c-0.37,0-0.67,0.3-0.67,0.67S202.965,391.391,203.336,391.391z"/>
<path style="fill:#FFFFFF;stroke:#FFFFFF;stroke-width:0.35;stroke-miterlimit:10;" d="M203.336,400.324h12.953
	c0.37,0,0.67-0.3,0.67-0.67s-0.3-0.67-0.67-0.67h-12.953c-0.37,0-0.67,0.3-0.67,0.67S202.965,400.324,203.336,400.324z"/>
<path style="fill:#FFFFFF;stroke:#FFFFFF;stroke-width:0.35;stroke-miterlimit:10;" d="M210.482,403.451h-7.146
	c-0.37,0-0.67,0.3-0.67,0.67s0.3,0.67,0.67,0.67h7.146c0.37,0,0.669-0.3,0.669-0.67S210.852,403.451,210.482,403.451z"/>
<path style="fill:#FFFFFF;stroke:#FFFFFF;stroke-width:0.35;stroke-miterlimit:10;" d="M203.336,395.858h12.953
	c0.37,0,0.67-0.3,0.67-0.67s-0.3-0.67-0.67-0.67h-12.953c-0.37,0-0.67,0.3-0.67,0.67S202.965,395.858,203.336,395.858z"/>
</svg>
