<?xml version="1.0" encoding="iso-8859-1"?>
<!-- Generator: Adobe Illustrator 25.4.1, SVG Export Plug-In . SVG Version: 6.00 Build 0)  -->
<svg version="1.1" id="&#xB808;&#xC774;&#xC5B4;_1" xmlns="http://www.w3.org/2000/svg" xmlns:xlink="http://www.w3.org/1999/xlink"
	 x="0px" y="0px" viewBox="0 0 50 50" style="enable-background:new 0 0 50 50;" xml:space="preserve">
<g>
	<path style="fill:#FEFEFE;" d="M14.516,14.044c-2.64,0-4.866,1.673-4.866,3.65c0,1.976,2.226,3.649,4.866,3.649
		c2.639,0,4.866-1.673,4.866-3.649C19.382,15.717,17.156,14.044,14.516,14.044L14.516,14.044z M14.516,20.126
		c-1.946,0-3.65-1.138-3.65-2.433c0-1.296,1.703-2.433,3.65-2.433c1.946,0,3.649,1.138,3.649,2.433
		C18.166,18.989,16.463,20.126,14.516,20.126L14.516,20.126z M14.516,20.126"/>
	<g>
		<defs>
			<rect id="SVGID_1_" x="7.217" y="6.137" width="36.495" height="36.495"/>
		</defs>
		<clipPath id="SVGID_00000034081197113120492580000017606854153222407046_">
			<use xlink:href="#SVGID_1_"  style="overflow:visible;"/>
		</clipPath>
		<path style="clip-path:url(#SVGID_00000034081197113120492580000017606854153222407046_);fill:#FEFEFE;" d="M24.248,24.384
			c0,0.336-0.272,0.608-0.608,0.608c-0.336,0-0.609-0.272-0.609-0.608c0-0.336,0.273-0.608,0.609-0.608
			C23.976,23.776,24.248,24.048,24.248,24.384L24.248,24.384z M24.248,24.384"/>
		<path style="clip-path:url(#SVGID_00000034081197113120492580000017606854153222407046_);fill:#FFFFFF;" d="M7.217,31.075
			c0,3.352,3.273,6.082,7.299,6.082c5.364,0,8.844-4.653,6.624-8.637l2.433-1.271l5.474,2.993
			c-2.597,2.214-4.458,5.091-4.769,11.015c-0.027,0.447,0.194,0.873,0.576,1.109c0.382,0.235,0.861,0.242,1.249,0.017l1.795-1.046
			l1.825,1.113c0.362,0.211,0.807,0.22,1.178,0.025c0.371-0.195,0.615-0.568,0.646-0.986c0.039-1.468,0.363-2.914,0.955-4.258
			c0.651-1.217,2.36-2.311,3.838-3.388c1.63,0.554,4.221,1.265,5.821,0.651c0.973-0.377,1.162-0.985,1.46-1.648
			c0.131-0.291,0.014-0.634-0.268-0.784l-3.169-1.703c1.624-1.916,2.397-3.929,2.311-5.973c0.027-2.154-0.747-4.241-2.171-5.857
			l3.09-1.855c0.264-0.16,0.365-0.492,0.237-0.773l-0.249-0.547c-0.718-1.63-3.041-1.77-7.013-0.438
			c-1.527-1.107-3.206-2.208-3.856-3.4c-0.591-1.343-0.916-2.79-0.955-4.257c-0.032-0.424-0.283-0.801-0.662-0.994
			c-0.379-0.193-0.832-0.173-1.193,0.051l-1.825,1.125l-1.776-1.052c-0.385-0.224-0.862-0.218-1.243,0.014
			c-0.381,0.232-0.604,0.654-0.582,1.099c0.31,5.894,2.171,8.813,4.763,11.021l-5.474,2.998l-2.433-1.265
			c2.226-4.021-1.314-8.643-6.636-8.643c-4.026,0-7.299,2.731-7.299,6.082c0,4.215,4.981,7.037,9.513,5.79l1.642,0.9l-1.642,0.9
			C12.169,24.032,7.217,26.878,7.217,31.075L7.217,31.075z M33.627,22.067c1.496,1.332,1.569,1.916,1.569,2.086v0.481
			c0,0.176-0.085,0.754-1.654,2.135l-4.428-2.385L33.627,22.067z M31.468,36.665c-0.821,1.515-1.04,3.838-1.095,4.763l-1.825-1.113
			c-0.386-0.232-0.868-0.232-1.253,0l-1.77,1.04c0.058-2.428,0.637-4.815,1.697-7.001c0.761-1.338,1.78-2.513,2.999-3.455
			c3.862,2.123,3.345,1.88,4.811,2.464c-1.271,0.876-2.822,1.971-3.564,3.284V36.665z M41.76,33.374
			c-1.666,0.608-5.328-0.791-5.389-0.803c-2.232-0.803-1.673-0.609-11.472-5.973l2.913-1.508l14.488,7.81
			c-0.111,0.219-0.306,0.384-0.541,0.456V33.374z M42.325,15.948l-2.804,1.685c-0.611-0.628-1.261-1.217-1.946-1.764
			c1.271-0.414,4.203-1.162,4.75,0.061V15.948z M27.198,14.446c-1.06-2.19-1.639-4.581-1.697-7.013l1.788,1.058
			c0.376,0.217,0.84,0.217,1.217,0l1.825-1.125c0.061,0.93,0.28,3.254,1.101,4.769c0.681,1.216,1.989,2.19,3.382,3.193
			c3.242,2.311,6.624,5.067,6.466,9.057c0.073,1.825-0.608,3.601-2.159,5.359l-4.44-2.384c1.934-1.758,1.733-2.476,1.733-3.139
			c0.11-1.661-2.786-3.771-4.16-4.769C30.239,17.986,28.409,16.678,27.198,14.446L27.198,14.446z M17.32,22.42
			c-0.277-0.151-0.602-0.188-0.906-0.104c-3.777,1.022-7.98-1.228-7.98-4.622c0-2.683,2.731-4.866,6.082-4.866
			c3.351,0,6.082,2.184,6.082,4.866c0,1.715-0.906,1.976-0.609,2.907c0.093,0.32,0.313,0.588,0.609,0.742l1.727,0.894l-2.67,1.466
			L17.32,22.42z M30.093,19.348c1.004,0.766,1.655,1.217,2.53,1.88l-12.025,6.198c-0.295,0.152-0.514,0.418-0.609,0.736
			c-0.274,0.931,0.609,1.18,0.609,2.902c0,2.682-2.731,4.866-6.082,4.866c-3.352,0-6.082-2.171-6.082-4.854
			c0-3.442,4.258-5.638,7.974-4.622c0.303,0.086,0.628,0.051,0.906-0.098c23.722-12.992,5.718-3.138,12.761-7.007H30.093z
			 M30.093,19.348"/>
	</g>
	<path style="fill:#FEFEFE;" d="M9.651,31.075c0,1.977,2.226,3.65,4.866,3.65c2.639,0,4.866-1.673,4.866-3.65
		c0-1.49-1.217-2.652-2.567-3.211C13.44,26.495,9.651,28.49,9.651,31.075L9.651,31.075z M17.618,29.859
		c1.593,1.679-0.535,3.649-3.102,3.649c-1.946,0-3.65-1.138-3.65-2.433c0-1.295,1.703-2.433,3.65-2.433
		C15.673,28.609,16.793,29.049,17.618,29.859L17.618,29.859z M17.618,29.859"/>
</g>
</svg>
