<?xml version="1.0" encoding="iso-8859-1"?>
<!-- Generator: Adobe Illustrator 25.4.1, SVG Export Plug-In . SVG Version: 6.00 Build 0)  -->
<svg version="1.1" id="&#xB808;&#xC774;&#xC5B4;_1" xmlns="http://www.w3.org/2000/svg" xmlns:xlink="http://www.w3.org/1999/xlink"
	 x="0px" y="0px" viewBox="0 0 50.304 50.304" style="enable-background:new 0 0 50.304 50.304;" xml:space="preserve">
<g>
	<g>
		<defs>
			<rect id="SVGID_1_" x="3.815" y="3.429" width="43.531" height="42.851"/>
		</defs>
		<clipPath id="SVGID_00000140704280149201368200000012578998889240907412_">
			<use xlink:href="#SVGID_1_"  style="overflow:visible;"/>
		</clipPath>
		<path style="clip-path:url(#SVGID_00000140704280149201368200000012578998889240907412_);fill:#FEFEFE;" d="M27.321,23.549h18.305
			c0.469,0,0.85-0.387,0.85-0.856v-0.016c0-5.121-1.992-9.936-5.61-13.557c-3.618-3.621-8.428-5.616-13.545-5.616
			c-0.469,0-0.85,0.381-0.85,0.85v18.345C26.471,23.168,26.852,23.549,27.321,23.549L27.321,23.549z M28.171,5.225
			c8.956,0.432,16.162,7.651,16.585,16.623H28.171V5.225z M28.171,5.225"/>
		<path style="clip-path:url(#SVGID_00000140704280149201368200000012578998889240907412_);fill:#FEFEFE;" d="M47.097,25.931
			c-0.16-0.16-0.376-0.25-0.601-0.25H28.191c-0.344,0-0.654,0.207-0.785,0.525c-0.132,0.318-0.059,0.683,0.184,0.926l12.933,12.945
			c0.159,0.159,0.375,0.249,0.601,0.249h0c0.225,0,0.442-0.089,0.601-0.248c3.619-3.616,5.615-8.427,5.622-13.545
			C47.347,26.307,47.257,26.09,47.097,25.931L47.097,25.931z M41.11,38.26l-0.946-0.947l1.465-1.465c0.332-0.332,0.332-0.87,0-1.202
			c-0.332-0.332-0.87-0.332-1.202,0l-1.464,1.464l-1.597-1.599l3.873-3.873c0.332-0.332,0.332-0.87,0-1.202
			c-0.332-0.332-0.871-0.332-1.203,0l-3.872,3.872l-1.467-1.468l1.288-1.289c0.332-0.332,0.332-0.871,0-1.202
			c-0.332-0.332-0.87-0.332-1.202,0l-1.288,1.288l-3.252-3.255h15.382C45.427,31.444,43.846,35.252,41.11,38.26L41.11,38.26z
			 M41.11,38.26"/>
	</g>
	<path style="fill:#FEFEFE;" d="M23.821,26.702V8.709c0-0.469-0.381-0.85-0.85-0.85c-5.117,0-9.927,1.994-13.545,5.616
		c-3.618,3.621-5.61,8.436-5.61,13.557c0,5.121,1.992,9.936,5.61,13.557c3.618,3.622,8.428,5.616,13.545,5.616
		c5.11,0,9.916-1.991,13.533-5.604c0.332-0.332,0.332-0.87,0.001-1.203L23.821,26.702z M22.97,44.504
		c-9.625,0-17.455-7.838-17.455-17.472c0-9.349,7.373-17.007,16.605-17.452v17.007l-8.965,5.7c-0.396,0.252-0.513,0.777-0.261,1.174
		c0.162,0.255,0.437,0.394,0.718,0.394c0.156,0,0.314-0.043,0.455-0.133l8.784-5.584l11.835,11.847
		C31.47,42.905,27.342,44.504,22.97,44.504L22.97,44.504z M22.97,44.504"/>
</g>
</svg>
