<?xml version="1.0" encoding="iso-8859-1"?>
<!-- Generator: Adobe Illustrator 25.4.1, SVG Export Plug-In . SVG Version: 6.00 Build 0)  -->
<svg version="1.1" id="&#xB808;&#xC774;&#xC5B4;_1" xmlns="http://www.w3.org/2000/svg" xmlns:xlink="http://www.w3.org/1999/xlink"
	 x="0px" y="0px" viewBox="0 0 50 50" style="enable-background:new 0 0 50 50;" xml:space="preserve">
<g>
	<g>
		<defs>
			<rect id="SVGID_1_" x="7.311" y="5.134" width="37.379" height="41.772"/>
		</defs>
		<clipPath id="SVGID_00000143594648362949925750000015764095000037670545_">
			<use xlink:href="#SVGID_1_"  style="overflow:visible;"/>
		</clipPath>
		
			<path style="clip-path:url(#SVGID_00000143594648362949925750000015764095000037670545_);fill:#FFFFFF;stroke:#FFFFFF;stroke-width:0.75;stroke-miterlimit:10;" d="
			M30.932,35.497c-0.184-0.216-0.509-0.241-0.724-0.057c-0.216,0.184-0.241,0.509-0.057,0.724l2.055,2.406
			c0.181,0.212,0.499,0.241,0.715,0.065l4.787-3.894c0.144-0.116,0.215-0.299,0.186-0.482c-0.029-0.182-0.153-0.335-0.326-0.4
			c-0.172-0.065-0.367-0.033-0.509,0.085l-4.397,3.577L30.932,35.497z M30.932,35.497"/>
		
			<path style="clip-path:url(#SVGID_00000143594648362949925750000015764095000037670545_);fill:#FFFFFF;stroke:#FFFFFF;stroke-width:0.75;stroke-miterlimit:10;" d="
			M9.97,37.999c0.747,0.744,1.76,1.161,2.815,1.158h0.02l12.072-0.068c1.418,4.603,6.054,7.419,10.793,6.554
			c4.738-0.865,8.081-5.137,7.781-9.944c-0.3-4.807-4.149-8.63-8.958-8.899l-0.066-11.96l-0.001-0.147
			c-0.001-0.137-0.056-0.267-0.153-0.363l-8.849-8.746c-0.084-0.083-0.195-0.135-0.312-0.146l-0.184-0.017
			c-0.017-0.002-0.035-0.002-0.052-0.002L12.642,5.478c-2.209,0.011-3.99,1.81-3.98,4.018l0.123,25.681
			C8.787,36.238,9.214,37.254,9.97,37.999L9.97,37.999z M42.44,36.29c0,4.682-3.796,8.477-8.478,8.477s-8.478-3.796-8.478-8.477
			c0-4.682,3.796-8.478,8.478-8.478C38.642,27.818,42.435,31.61,42.44,36.29L42.44,36.29z M32.685,14.206l-4.115,0.02
			c-1.642,0.008-2.978-1.316-2.986-2.958l-0.02-4.1L32.685,14.206z M10.55,7.385c0.554-0.562,1.309-0.879,2.097-0.881l11.885-0.057
			l0.023,4.825c0.01,2.202,1.798,3.98,3.999,3.981h0.02l4.825-0.023l0.064,11.568c-2.74,0.145-5.284,1.467-6.978,3.625
			c-1.694,2.159-2.373,4.944-1.863,7.64l-11.824,0.067h-0.015c-1.636,0-2.963-1.322-2.971-2.958L9.689,9.491
			C9.683,8.702,9.993,7.944,10.55,7.385L10.55,7.385z M10.55,7.385"/>
	</g>
	<path style="fill:#FFFFFF;stroke:#FFFFFF;stroke-width:0.75;stroke-miterlimit:10;" d="M14.358,21.058h14.467
		c0.284,0,0.514-0.23,0.514-0.514c0-0.284-0.23-0.514-0.514-0.514H14.358c-0.284,0-0.514,0.23-0.514,0.514
		C13.844,20.828,14.075,21.058,14.358,21.058L14.358,21.058z M14.358,21.058"/>
	<path style="fill:#FFFFFF;stroke:#FFFFFF;stroke-width:0.75;stroke-miterlimit:10;" d="M14.358,25.416h7.233
		c0.284,0,0.514-0.23,0.514-0.514c0-0.284-0.23-0.514-0.514-0.514h-7.233c-0.284,0-0.514,0.23-0.514,0.514
		C13.844,25.186,14.075,25.416,14.358,25.416L14.358,25.416z M14.358,25.416"/>
</g>
</svg>
