<?xml version="1.0" encoding="iso-8859-1"?>
<!-- Generator: Adobe Illustrator 25.4.1, SVG Export Plug-In . SVG Version: 6.00 Build 0)  -->
<svg version="1.1" id="&#xB808;&#xC774;&#xC5B4;_1" xmlns="http://www.w3.org/2000/svg" xmlns:xlink="http://www.w3.org/1999/xlink"
	 x="0px" y="0px" viewBox="0 0 51.877 50.07" style="enable-background:new 0 0 51.877 50.07;" xml:space="preserve">
<g>
	<path style="fill:#FFFFFF;" d="M17.186,36.619c0.56-0.847,0.887-1.861,0.887-2.95c0-2.957-2.406-5.363-5.365-5.363
		c-2.958,0-5.365,2.406-5.365,5.363c0,1.089,0.327,2.103,0.887,2.95c-2.128,0.881-3.609,2.994-3.609,5.37v3.286
		c0,0.454,0.368,0.822,0.822,0.822h14.531c0.454,0,0.822-0.368,0.822-0.822v-3.286C20.795,39.613,19.314,37.5,17.186,36.619
		L17.186,36.619z M12.708,29.949c2.052,0,3.722,1.669,3.722,3.72c0,2.052-1.67,3.722-3.722,3.722s-3.722-1.67-3.722-3.722
		C8.986,31.618,10.656,29.949,12.708,29.949L12.708,29.949z M19.152,44.454H6.264v-2.464c0-1.924,1.354-3.607,3.201-4.05
		c0.901,0.686,2.025,1.095,3.243,1.095s2.341-0.408,3.243-1.095c1.847,0.443,3.201,2.126,3.201,4.05V44.454z M19.152,44.454"/>
	<path style="fill:#FFFFFF;" d="M43.072,36.619c0.56-0.847,0.887-1.861,0.887-2.95c0-2.957-2.406-5.363-5.365-5.363
		c-2.957,0-5.362,2.406-5.362,5.363c0,1.089,0.327,2.103,0.886,2.949c-2.129,0.881-3.611,2.994-3.611,5.371v3.286
		c0,0.454,0.368,0.822,0.822,0.822h14.533c0.454,0,0.822-0.368,0.822-0.822v-3.286C46.683,39.613,45.201,37.5,43.072,36.619
		L43.072,36.619z M38.594,29.949c2.052,0,3.722,1.669,3.722,3.72c0,2.052-1.67,3.722-3.722,3.722c-2.051,0-3.719-1.67-3.719-3.722
		C34.874,31.618,36.543,29.949,38.594,29.949L38.594,29.949z M45.04,44.454H32.15v-2.464c0-1.925,1.355-3.608,3.202-4.051
		c0.901,0.686,2.025,1.095,3.242,1.095c1.218,0,2.341-0.409,3.243-1.095c1.848,0.443,3.203,2.126,3.203,4.05L45.04,44.454
		L45.04,44.454z M45.04,44.454"/>
	<path style="fill:#FFFFFF;" d="M40.067,25.903c0.134,0.086,0.288,0.13,0.443,0.13c0.133,0,0.266-0.033,0.387-0.097
		c0.262-0.14,0.428-0.412,0.434-0.709l0.048-2.479c2.176-0.534,3.79-2.524,3.79-4.821c0-2.404-1.719-4.414-3.991-4.866
		c0.117-0.52,0.177-1.051,0.177-1.589c0-4.012-3.264-7.277-7.277-7.277h-5.605c-0.454,0-0.822,0.368-0.822,0.822
		c0,0.454,0.368,0.822,0.822,0.822h5.605c3.106,0,5.633,2.527,5.633,5.634c0,0.507-0.068,1.008-0.203,1.493H28.286
		c-2.456,0-4.5,1.794-4.892,4.141h-2.208c-0.186,0-0.366,0.063-0.511,0.178l-4.866,3.87l-0.063-3.269
		c-0.008-0.42-0.332-0.766-0.75-0.802c-2.883-0.251-5.141-2.716-5.141-5.611c0-3.107,2.528-5.634,5.636-5.634h14.506
		c0.454,0,0.822-0.368,0.822-0.822c0-0.454-0.368-0.822-0.822-0.822H15.49c-4.014,0-7.279,3.264-7.279,7.277
		c0,1.826,0.685,3.574,1.93,4.925c1.067,1.157,2.457,1.93,3.975,2.221l0.082,4.23c0.006,0.312,0.189,0.594,0.472,0.727
		c0.112,0.053,0.231,0.078,0.35,0.078c0.182,0,0.363-0.061,0.511-0.179l5.942-4.726h1.921c0.393,2.347,2.436,4.141,4.892,4.141
		h7.072L40.067,25.903z M24.967,17.927c0-1.83,1.489-3.319,3.319-3.319h11.92c1.83,0,3.319,1.489,3.319,3.319
		c0,1.706-1.329,3.158-3.027,3.305c-0.419,0.037-0.742,0.383-0.75,0.803l-0.033,1.692l-3.675-2.352
		c-0.132-0.085-0.286-0.13-0.443-0.13h-7.312C26.456,21.246,24.967,19.757,24.967,17.927L24.967,17.927z M24.967,17.927"/>
	<path style="fill:#FFFFFF;" d="M29.136,16.943c-0.454,0-0.822,0.369-0.822,0.823c0,0.454,0.368,0.822,0.822,0.822
		c0.454,0,0.822-0.368,0.822-0.822v-0.003C29.957,17.31,29.59,16.943,29.136,16.943L29.136,16.943z M29.136,16.943"/>
	<path style="fill:#FFFFFF;" d="M33.798,16.943c-0.454,0-0.822,0.369-0.822,0.823c0,0.454,0.368,0.822,0.822,0.822
		c0.454,0,0.822-0.368,0.822-0.822v-0.003C34.619,17.31,34.251,16.943,33.798,16.943L33.798,16.943z M33.798,16.943"/>
	<path style="fill:#FFFFFF;" d="M38.458,18.587c0.454,0,0.822-0.368,0.822-0.822v-0.003c0-0.454-0.368-0.82-0.822-0.82
		c-0.454,0-0.822,0.369-0.822,0.823C37.636,18.219,38.004,18.587,38.458,18.587L38.458,18.587z M38.458,18.587"/>
</g>
</svg>
