<?xml version="1.0" encoding="utf-8"?>
<!-- Generator: Adobe Illustrator 28.0.0, SVG Export Plug-In . SVG Version: 6.00 Build 0)  -->
<svg version="1.1" id="레이어_2_00000129899312101962692770000016223389285295905940_"
	 xmlns="http://www.w3.org/2000/svg" xmlns:xlink="http://www.w3.org/1999/xlink" x="0px" y="0px" viewBox="0 0 91.3 109.9"
	 style="enable-background:new 0 0 91.3 109.9;" xml:space="preserve">
<style type="text/css">
	.st0{fill:url(#SVGID_1_);}
	.st1{fill:none;stroke:#FFFFFF;stroke-width:4;stroke-linecap:round;stroke-linejoin:round;}
	.st2{fill:none;stroke:#FFFFFF;stroke-width:4;}
</style>
<g id="donut--dessert-donut_00000117658400967341737820000007741143473055521428_">
	<linearGradient id="SVGID_1_" gradientUnits="userSpaceOnUse" x1="10.2169" y1="54.95" x2="81.0831" y2="54.95">
		<stop  offset="0.5" style="stop-color:#CCCCCC;stop-opacity:0"/>
		<stop  offset="1" style="stop-color:#CCCCCC"/>
	</linearGradient>
	<path class="st0" d="M45.7,19.5c-19.6,0-35.4,15.9-35.4,35.4c0,19.6,15.9,35.4,35.4,35.4c19.6,0,35.4-15.9,35.4-35.4c0,0,0,0,0,0
		C81.1,35.4,65.2,19.5,45.7,19.5z M56.6,55c0,6-4.9,10.9-10.9,10.9S34.7,61,34.7,54.9c0-6,4.9-10.9,10.9-10.9S56.6,48.9,56.6,55
		C56.6,55,56.6,55,56.6,55z"/>
	<path id="Ellipse_912_00000060748722665800599100000012076025817622085008_" class="st1" d="M10.2,54.9c0,19.6,15.9,35.4,35.4,35.4
		c19.6,0,35.4-15.9,35.4-35.4c0,0,0,0,0,0c0-19.6-15.9-35.4-35.4-35.4S10.2,35.4,10.2,54.9"/>
	<path id="Ellipse_913_00000052808807949127880470000002508859864279161241_" class="st1" d="M34.7,54.9c0,6,4.9,10.9,10.9,10.9
		S56.5,61,56.6,55c0,0,0,0,0,0c0-6-4.9-10.9-10.9-10.9S34.7,48.9,34.7,54.9"/>
	<path id="Vector_2172_00000157283652983863628140000001538292258934624661_" class="st1" d="M70.2,52.2l-2.7,5.5"/>
	<path id="Vector_2173_00000133507040433378088500000014952686863123834018_" class="st1" d="M23.8,65.9l5.5,5.5"/>
	<path id="Vector_2174_00000025422489314085321510000008754438450598113679_" class="st1" d="M51.1,30.4l5.5,5.5"/>
	<g id="Group_11_00000114035128203558732630000013720741811820403389_">
		<path id="Ellipse_1094_00000173845711719307181020000015738445379821489536_" class="st2" d="M26.6,42.7c-0.8,0-1.4-0.6-1.4-1.4
			s0.6-1.4,1.4-1.4"/>
		<path id="Ellipse_1095_00000063610240908956621070000006896055487711042206_" class="st2" d="M26.6,42.7c0.8,0,1.4-0.6,1.4-1.4
			S27.3,40,26.6,40"/>
	</g>
	<g id="Group_20_00000139262596979411916700000012704639541941855391_">
		<path id="Ellipse_1094_x5F_2_00000067201738698878672250000015177203760023844031_" class="st2" d="M53.8,78.1
			c-0.8,0-1.4-0.6-1.4-1.4s0.6-1.4,1.4-1.4"/>
		<path id="Ellipse_1095_x5F_2_00000137841056047226652480000001054229030134129550_" class="st2" d="M53.8,78.1
			c0.8,0,1.4-0.6,1.4-1.4s-0.6-1.4-1.4-1.4"/>
	</g>
</g>
</svg>
