<?xml version="1.0" encoding="utf-8"?>
<!-- Generator: Adobe Illustrator 28.0.0, SVG Export Plug-In . SVG Version: 6.00 Build 0)  -->
<svg version="1.1" id="레이어_2_00000129899312101962692770000016223389285295905940_"
	 xmlns="http://www.w3.org/2000/svg" xmlns:xlink="http://www.w3.org/1999/xlink" x="0px" y="0px" viewBox="0 0 91.3 109.9"
	 style="enable-background:new 0 0 91.3 109.9;" xml:space="preserve">
<style type="text/css">
	.st0{fill:url(#SVGID_1_);}
	.st1{fill:url(#SVGID_00000108989653558269841040000014821525619349233322_);}
	.st2{fill:url(#SVGID_00000043459053878391223160000002318790537311809156_);}
	.st3{fill:url(#SVGID_00000181774004447396560290000005226693157372980155_);}
	.st4{fill:#FFFFFF;}
</style>
<g>
	<linearGradient id="SVGID_1_" gradientUnits="userSpaceOnUse" x1="39.7883" y1="44.3816" x2="39.7883" y2="74.9724">
		<stop  offset="0.3" style="stop-color:#CCCCCC;stop-opacity:0"/>
		<stop  offset="1" style="stop-color:#CCCCCC"/>
	</linearGradient>
	<path class="st0" d="M47.9,66.5c0.6,1.5,1.3,3,1.9,4.4l0.8,1.8c0.2,0.4,0.4,0.8,0.6,1.1c0.6,0.7,1.5,1.1,2.4,1.1
		c0.4,0,0.9-0.1,1.2-0.3c0.1-0.1,0.2-0.1,0.4-0.2c1.4-0.9,1.9-2.5,1.3-4.1c-0.3-0.8-0.7-1.7-1.1-2.5l-0.2-0.5
		c-0.2-0.5-0.4-1-0.7-1.5c-1.5-3.5-0.8-7.1,2-9.6l0.2-0.2c0,0,0.1-0.1,0-0.1s0-0.1-0.1-0.1l-6.6-2.6c-7.7-3-15.3-5.9-23-8.9
		c-0.3-0.1-0.5-0.1-0.6-0.1c-0.1,0-0.2,0-0.3,0.1c-0.1,0.1-0.3,0.2-0.4,0.3c-2.1,2.3-3.1,5-3.2,8.1c0,0.4,0,0.7,0.7,1
		c3.1,1.2,6.2,2.4,9.4,3.6l0.4,0.2c3,1.2,6,2.3,9.1,3.5C45,62.2,46.8,63.9,47.9,66.5z"/>
	
		<linearGradient id="SVGID_00000100379870002750025200000000036827393143886525_" gradientUnits="userSpaceOnUse" x1="26.1483" y1="57.4851" x2="26.1483" y2="72.1335">
		<stop  offset="0.6" style="stop-color:#CCCCCC;stop-opacity:0"/>
		<stop  offset="1" style="stop-color:#CCCCCC"/>
	</linearGradient>
	<path style="fill:url(#SVGID_00000100379870002750025200000000036827393143886525_);" d="M32,61.5c-3.4-1.3-6.8-2.6-10.1-3.9
		c-0.2-0.1-0.3-0.1-0.5-0.1c-0.1,0-0.2,0-0.3,0.1c-0.1,0.1-0.3,0.1-0.4,0.3c-0.7,0.7-1.3,1.5-1.8,2.5c-0.8,1.7-1.6,3.7-1.4,5.8
		c0,0.5,0.2,0.6,0.6,0.8c3.2,1.2,6.3,2.4,9.4,3.6l4,1.5c0,0,0,0,0.1,0c0,0,0.1,0,0.1,0c0,0,0.1-0.1,0-0.1l-0.1-0.3
		c-0.4-1.6-0.4-3.2,0-4.7c0.5-1.5,1.4-3,2.6-4.1l0.2-0.2c0,0,0.1-0.1,0-0.1c0,0,0-0.1-0.1-0.1L32,61.5z"/>
	
		<linearGradient id="SVGID_00000083059023420411376380000007273354494450966719_" gradientUnits="userSpaceOnUse" x1="50.2058" y1="31.2429" x2="50.2058" y2="56.2819">
		<stop  offset="0.4" style="stop-color:#CCCCCC;stop-opacity:0"/>
		<stop  offset="1" style="stop-color:#CCCCCC"/>
	</linearGradient>
	<path style="fill:url(#SVGID_00000083059023420411376380000007273354494450966719_);" d="M72.1,46.9l-3.9-1.5
		C56.1,40.7,44,36,32,31.3c-0.1-0.1-0.2-0.1-0.3-0.1c0,0-0.1,0-0.1,0l-0.1,0c-0.1,0-0.1,0.1-0.2,0.1c-0.8,0.6-1.4,1.4-2,2.6
		c-1.1,2.2-1.5,4-1.5,5.8c0,0.6,0.2,0.8,0.7,1c2.3,0.9,4.7,1.8,7,2.7l2.6,1l9.7,3.8c6.8,2.6,13.7,5.3,20.5,7.9
		c0.2,0.1,0.3,0.1,0.4,0.1c0.2-0.1,0.3-0.1,0.5-0.2l0.1-0.1c0.2-0.2,0.4-0.4,0.6-0.6c1.5-2,2.4-4.3,2.7-6.8c0-0.5,0-1-0.1-1.3
		C72.4,47,72.3,46.9,72.1,46.9z"/>
	
		<linearGradient id="SVGID_00000140006187015677869040000001752718221618697892_" gradientUnits="userSpaceOnUse" x1="55.3004" y1="18.1804" x2="55.3004" y2="43.1882">
		<stop  offset="0.4" style="stop-color:#CCCCCC;stop-opacity:0"/>
		<stop  offset="1" style="stop-color:#CCCCCC"/>
	</linearGradient>
	<path style="fill:url(#SVGID_00000140006187015677869040000001752718221618697892_);" d="M77.5,33.9L77,33.7L66,29.4
		c-9.6-3.7-19.1-7.4-28.7-11.1c-0.3-0.1-0.5-0.1-0.6-0.1c-0.1,0-0.2,0-0.3,0.1c-0.2,0.1-0.3,0.2-0.5,0.4c-2,2.3-3,5-3.1,8
		c0,0.1,0,0.1,0,0.2c0,0.1,0,0.2,0.1,0.3c0,0.3,0.2,0.3,0.4,0.4c13.4,5.2,26.8,10.4,40.2,15.6c0.1,0,0.2,0.1,0.3,0.1
		c0.2,0,0.3-0.1,0.3-0.1c0.4-0.3,0.6-0.5,0.8-0.8c1.5-2,2.4-4.3,2.7-6.9c0-0.3,0-0.7-0.1-1.3C77.6,34,77.5,33.9,77.5,33.9z"/>
	<path class="st4" d="M30.8,95.9c-0.3,0-0.5-0.1-0.8-0.2c-0.9-0.4-1.4-1.2-1.2-2.2c0-0.3,0.1-0.5,0.2-0.7l0.3-0.8
		c2.3-5.9,3.2-8.1,5.5-14.1l0.1-0.1c0,0,0-0.1,0-0.1c0,0,0-0.1-0.1-0.1l-0.1-0.1c-2.2-0.8-4.4-1.7-6.6-2.5l-1.1-0.4
		c-3.4-1.3-6.8-2.6-10.1-3.9c-2-0.7-3-2.2-3.2-4.2c-0.2-2.8,0.5-5.5,2.2-8.7c0.6-1.1,1.5-2.4,2.9-3.4c0,0,0.1-0.1,0.1-0.2
		c-0.6-4.6,0.8-8.6,4.2-12.2c0.7-0.7,0.8-1.1,0.8-2.1c-0.2-4,1.4-8.1,4.3-11.1c0.6-0.6,0.8-1.1,0.8-2.1c-0.1-4.8,1.7-8.8,5.2-11.8
		c0.1-0.1,0.4-0.4,0.9-0.6c0.3-0.1,0.5-0.2,0.8-0.2C36.2,14,36.6,14,37,14c0.7,0,1.3,0.1,2,0.4c12.5,4.8,24.9,9.7,37.4,14.5l1.8,0.7
		c1,0.4,2.2,0.9,2.8,2.2c0.6,1.3,0.8,2.6,0.8,4c-0.2,2.8-1.1,5.5-2.9,8.3c-0.7,1-1.4,1.8-2.2,2.3l-0.1,0.1c0,0-0.1,0.1-0.1,0.1
		l0,0.1c0.8,3.9-1.8,10.6-5,12.8l-0.1,0.1c0,0-0.1,0.1-0.1,0.1l0,0.1c0.2,0.7,0.2,1.5,0.1,2.3c-0.4,3.7-1.7,6.9-4,9.5
		c-0.3,0.3-0.6,0.5-0.8,0.7c-0.1,0.1-0.3,0.2-0.4,0.3c0,0-0.1,0.1-0.1,0.2c0,0,0.1,0.3,0.1,0.5c0.1,0.3,0.2,0.7,0.2,1.1
		c-0.1,3.9-1.5,7.4-4,10.2c-0.7,0.8-1.4,1.4-2.2,1.7c-0.5,0.2-1.1,0.3-1.6,0.3c-0.9,0-1.8-0.3-2.4-0.5c-3.5-1.4-7-2.7-10.8-4.2
		l-0.2-0.1c-2.1-0.8-4.2-1.6-6.3-2.5l-0.1-0.1c0,0,0,0-0.1,0c0,0,0,0-0.1,0c0,0-0.1,0-0.1,0.1l-0.1,0.1c-2,5.3-3,7.7-4.8,12.3
		l-0.8,2.1l-0.1,0.3c-0.1,0.3-0.2,0.6-0.4,0.9c-0.2,0.4-0.5,0.7-0.9,0.8C31.3,95.9,31.1,95.9,30.8,95.9z M39.9,64.9
		c-0.6,0-1.1,0.1-1.7,0.3l-0.1,0c-2,0.9-3.1,3.1-2.5,5.2c0.2,0.7,0.5,1.3,0.8,1.9c0.2,0.5,0.5,1,0.7,1.5c0.1,0.3,0.2,0.4,0.6,0.6
		c5.4,2.1,10.7,4.1,16.1,6.2l3.8,1.5c0.5,0.2,0.8,0.3,1.1,0.3c0.3-0.1,0.5-0.3,1-0.8c1.7-2.1,2.6-4.5,2.8-7.2c0-0.4,0-0.7-0.1-1.1
		c0,0-0.1-0.1-0.1-0.1L61,72.7c0,0,0,0-0.1,0c0,0,0,0-0.1,0c0,0-0.1,0.1-0.1,0.1l0,0.2c-0.4,2.4-2,4.4-4.2,5.4
		c-0.9,0.4-1.9,0.6-2.8,0.6c-0.2,0-0.4,0-0.6,0c-2.8-0.2-5-1.8-6.2-4.5c-0.3-0.6-0.6-1.3-0.8-1.9c-0.8-1.8-1.6-3.6-2.4-5.4
		C43,65.8,41.6,64.9,39.9,64.9z M26.5,44.4c-0.1,0-0.2,0-0.3,0.1c-0.1,0.1-0.3,0.2-0.4,0.3c-2.1,2.3-3.1,5-3.2,8.1
		c0,0.4,0,0.7,0.7,1c3.1,1.2,6.2,2.4,9.4,3.6l0.4,0.2c3,1.2,6,2.3,9.1,3.5c2.7,1,4.5,2.8,5.6,5.3c0.6,1.5,1.3,3,1.9,4.4l0.8,1.8
		c0.2,0.4,0.4,0.8,0.6,1.1c0.6,0.7,1.5,1.1,2.4,1.1c0.4,0,0.9-0.1,1.2-0.3c0.1-0.1,0.2-0.1,0.4-0.2c1.4-0.9,1.9-2.5,1.3-4.1
		c-0.3-0.8-0.7-1.7-1.1-2.5l-0.2-0.5c-0.2-0.5-0.4-1-0.7-1.5c-1.5-3.5-0.8-7.1,2-9.6l0.2-0.2c0,0,0.1-0.1,0-0.1s0-0.1-0.1-0.1
		l-6.6-2.6c-7.7-3-15.3-5.9-23-8.9C26.8,44.4,26.7,44.4,26.5,44.4z M21.5,57.5c-0.1,0-0.2,0-0.3,0.1c-0.1,0.1-0.3,0.1-0.4,0.3
		c-0.7,0.7-1.3,1.5-1.8,2.5c-0.8,1.7-1.6,3.7-1.4,5.8c0,0.5,0.2,0.6,0.6,0.8c3.2,1.2,6.3,2.4,9.4,3.6l4,1.5c0,0,0,0,0.1,0
		c0,0,0.1,0,0.1,0c0,0,0.1-0.1,0-0.1l-0.1-0.3c-0.4-1.6-0.4-3.2,0-4.7c0.5-1.5,1.4-3,2.6-4.1l0.2-0.2c0,0,0.1-0.1,0-0.1
		c0,0,0-0.1-0.1-0.1l-2.5-1c-3.4-1.3-6.8-2.6-10.1-3.9C21.8,57.5,21.6,57.5,21.5,57.5z M61.9,58.3c-0.5,0-1.1,0.1-1.6,0.3
		c-1.7,0.7-2.7,2.6-2.4,4.4c0.1,0.6,0.4,1.2,0.7,1.9c0.2,0.4,0.3,0.6,0.4,0.8c0.1,0.3,0.2,0.6,0.3,0.9c0.2,0.5,0.4,1.1,0.7,1.3
		c0.2,0.2,0.8,0.4,1.3,0.6c0.3,0.1,0.6,0.2,0.9,0.3l0.8,0.3c0.5,0.2,0.7,0.3,0.9,0.3c0.2,0,0.3-0.1,0.8-0.7c1.8-2.1,2.8-4.7,2.9-7.5
		c0-0.3-0.1-0.6-0.1-0.9c0-0.1-0.1-0.2-0.1-0.2c-0.5-0.1-0.9-0.3-1.3-0.5c-1-0.4-2-0.8-3-1.1C62.7,58.4,62.3,58.3,61.9,58.3z
		 M31.5,31.2L31.5,31.2c-0.2,0.1-0.2,0.1-0.3,0.2c-0.8,0.6-1.4,1.4-2,2.6c-1.1,2.2-1.5,4-1.5,5.8c0,0.6,0.2,0.8,0.7,1
		c2.3,0.9,4.7,1.8,7,2.7l2.6,1l9.7,3.8c6.8,2.6,13.7,5.3,20.5,7.9c0.2,0.1,0.3,0.1,0.4,0.1c0.2-0.1,0.3-0.1,0.5-0.2l0.1-0.1
		c0.2-0.2,0.4-0.4,0.6-0.6c1.5-2,2.4-4.3,2.7-6.8c0-0.5,0-1-0.1-1.3c-0.1-0.2-0.2-0.3-0.4-0.4l-3.9-1.5C56.1,40.7,44,36,32,31.3
		C31.8,31.3,31.7,31.2,31.5,31.2C31.6,31.2,31.6,31.2,31.5,31.2z M36.7,18.2c-0.1,0-0.2,0-0.3,0.1c-0.2,0.1-0.3,0.2-0.5,0.4
		c-2,2.3-3,5-3.1,8c0,0.1,0,0.1,0,0.2c0,0.1,0,0.2,0.1,0.3c0,0.3,0.2,0.3,0.4,0.4c13.4,5.2,26.8,10.4,40.2,15.6
		c0.1,0,0.2,0.1,0.3,0.1c0.2,0,0.3-0.1,0.3-0.1c0.4-0.3,0.6-0.5,0.8-0.8c1.5-2,2.4-4.3,2.7-6.9c0-0.3,0-0.7-0.1-1.3
		c0,0-0.1-0.2-0.1-0.2L77,33.7L66,29.4c-9.6-3.7-19.1-7.4-28.7-11.1C37.1,18.2,36.9,18.2,36.7,18.2z"/>
</g>
</svg>
