<?xml version="1.0" encoding="utf-8"?>
<!-- Generator: Adobe Illustrator 28.0.0, SVG Export Plug-In . SVG Version: 6.00 Build 0)  -->
<svg version="1.1" id="레이어_2_00000129899312101962692770000016223389285295905940_"
	 xmlns="http://www.w3.org/2000/svg" xmlns:xlink="http://www.w3.org/1999/xlink" x="0px" y="0px" viewBox="0 0 91.3 109.9"
	 style="enable-background:new 0 0 91.3 109.9;" xml:space="preserve">
<style type="text/css">
	.st0{fill:url(#SVGID_1_);}
	.st1{fill:url(#SVGID_00000091698820921446623860000016119492861674842241_);}
	.st2{fill:url(#SVGID_00000142897880366659948840000012320798122365450120_);}
	.st3{fill:url(#SVGID_00000085211044986049506080000011252758624922721971_);}
	.st4{fill:url(#SVGID_00000078740058464152967360000009088958916724790949_);}
</style>
<g>
	<linearGradient id="SVGID_1_" gradientUnits="userSpaceOnUse" x1="62.9041" y1="70.2977" x2="62.9041" y2="38.2897">
		<stop  offset="0" style="stop-color:#CE7600"/>
		<stop  offset="0.7" style="stop-color:#CE7600;stop-opacity:0"/>
	</linearGradient>
	<path class="st0" d="M73.1,59.1c0.3-0.8,0.8-2.1,0.9-3.8c0-0.3,0-0.7,0-1v0c0,0,0,0,0,0c0-0.4-0.1-0.9-0.1-1.3c0,0,0,0,0,0
		c-0.1-0.4-0.2-0.9-0.3-1.3c0,0,0,0,0,0c-0.1-0.4-0.2-0.9-0.4-1.3c0,0,0,0,0,0c-0.2-0.4-0.3-0.8-0.5-1.2c0,0,0,0,0,0
		c-0.2-0.4-0.4-0.8-0.6-1.2c0,0,0,0,0,0c-0.2-0.4-0.4-0.8-0.7-1.2c0,0,0,0,0,0c-0.2-0.4-0.5-0.7-0.7-1.1c0,0,0,0,0,0
		c-0.3-0.4-0.5-0.7-0.8-1c0,0,0,0-0.1-0.1c-0.3-0.3-0.5-0.6-0.8-1c0,0-0.1-0.1-0.1-0.1c-0.3-0.3-0.5-0.6-0.8-0.9
		c0,0-0.1-0.1-0.1-0.1c-0.3-0.3-0.5-0.5-0.8-0.8c-0.1-0.1-0.1-0.1-0.2-0.2c-0.2-0.2-0.5-0.4-0.7-0.7c-0.1-0.1-0.2-0.2-0.3-0.2
		c-0.2-0.2-0.4-0.4-0.6-0.5c-0.1-0.1-0.2-0.2-0.4-0.3c-0.2-0.1-0.3-0.3-0.5-0.4c-0.2-0.1-0.3-0.2-0.5-0.3c-0.1-0.1-0.2-0.2-0.4-0.3
		c-0.3-0.2-0.5-0.4-0.8-0.5c0,0.3,0,0.7-0.1,1c0,0.3,0,0.7-0.1,1c0,0.4-0.1,0.8-0.1,1.2c0,0.3-0.1,0.6-0.1,1
		c-0.1,0.4-0.2,0.8-0.2,1.2c-0.1,0.3-0.1,0.6-0.2,0.9c-0.1,0.4-0.2,0.9-0.3,1.3c-0.1,0.3-0.1,0.6-0.2,0.9c-0.1,0.5-0.3,0.9-0.4,1.4
		c-0.1,0.3-0.2,0.5-0.3,0.8c-0.2,0.5-0.4,1-0.5,1.5c-0.1,0.2-0.2,0.5-0.3,0.7c-0.2,0.6-0.4,1.2-0.7,1.8c-0.1,0.2-0.2,0.4-0.2,0.6
		c-0.3,0.8-0.7,1.7-1,2.5c0,0.1-0.2,0.5-0.5,1.1c0,0,0,0,0,0c-0.1,0.1-0.1,0.3-0.2,0.4c0,0.1,0,0.1-0.1,0.2
		c-0.1,0.1-0.1,0.3-0.2,0.4c0,0.1-0.1,0.2-0.1,0.2c-0.1,0.1-0.1,0.3-0.2,0.4c-0.1,0.1-0.1,0.2-0.2,0.3c-0.1,0.1-0.1,0.3-0.2,0.5
		c-0.1,0.1-0.1,0.3-0.2,0.4c-0.1,0.2-0.2,0.3-0.2,0.5c-0.1,0.1-0.1,0.3-0.2,0.5c-0.1,0.2-0.2,0.3-0.2,0.5c-0.1,0.2-0.2,0.3-0.3,0.5
		c-0.1,0.2-0.2,0.3-0.3,0.5c-0.1,0.2-0.2,0.4-0.3,0.6c-0.1,0.2-0.2,0.3-0.3,0.5c-0.1,0.2-0.2,0.4-0.3,0.6c-0.1,0.2-0.2,0.3-0.3,0.5
		c-0.1,0.2-0.2,0.4-0.4,0.6c-0.1,0.2-0.2,0.3-0.3,0.5c-0.1,0.2-0.3,0.4-0.4,0.7c-0.1,0.2-0.2,0.3-0.3,0.5c-0.1,0.2-0.3,0.5-0.4,0.7
		c-0.1,0.2-0.2,0.3-0.3,0.5c0,0.1-0.1,0.1-0.1,0.2c0.2,0.1,0.5,0.2,0.8,0.4c0,0,0,0,0.1,0c0.3,0.1,0.6,0.2,0.9,0.4c0,0,0.1,0,0.1,0
		c0.3,0.1,0.6,0.2,1,0.3c0,0,0.1,0,0.1,0c0.4,0.1,0.7,0.2,1.1,0.3c0,0,0.1,0,0.1,0c0.4,0.1,0.8,0.2,1.2,0.2c0,0,0,0,0,0
		c1.3,0.2,2.8,0.2,4.4-0.1c0,0,0,0,0,0c0.3-0.1,0.7-0.1,1-0.2C69.2,68.1,72.2,61.8,73.1,59.1z"/>
	
		<linearGradient id="SVGID_00000142174971547789300580000015400029332999565758_" gradientUnits="userSpaceOnUse" x1="45.6499" y1="69.1559" x2="45.6499" y2="30.8659">
		<stop  offset="0" style="stop-color:#CE7600"/>
		<stop  offset="0.7" style="stop-color:#CE7600;stop-opacity:0"/>
	</linearGradient>
	<path style="fill:url(#SVGID_00000142174971547789300580000015400029332999565758_);" d="M59,37.8c0-0.7-0.1-1-0.2-1.3
		c-0.1-0.3-0.1-0.6-0.1-0.8c-1.5-3.1-7.6-4.6-13.1-4.9c-5.4,0.3-11.6,1.7-13.1,4.9c0,0.2-0.1,0.5-0.1,0.8c-0.1,0.3-0.2,0.6-0.2,1.3
		c0.1,5,1.4,9.3,4.5,16.9c0,0.1,2.5,6.2,6.7,12.4c0.4,0.6,1.3,2,2.2,2.1c0.9-0.1,1.8-1.5,2.2-2.1c4.2-6.2,6.6-12.3,6.7-12.4
		C57.6,47.1,59,42.9,59,37.8z"/>
	
		<linearGradient id="SVGID_00000101809680656350078750000000031051279549489078_" gradientUnits="userSpaceOnUse" x1="17.0532" y1="79.0422" x2="17.0532" y2="58.8128">
		<stop  offset="0" style="stop-color:#CE7600"/>
		<stop  offset="0.7" style="stop-color:#CE7600;stop-opacity:0"/>
	</linearGradient>
	<path style="fill:url(#SVGID_00000101809680656350078750000000031051279549489078_);" d="M14.4,60.5c-0.2-0.4-0.4-1-0.6-1.7
		c-1.3,1.6-2.9,4.1-3.7,7.1C9.4,68.7,8.3,76.6,12,78.5c2.3,1.2,5.9,0.3,9.1-2.4l3.6-3.6C18.4,69.6,15.4,63.3,14.4,60.5z"/>
	
		<linearGradient id="SVGID_00000022539639620813380090000011086813708919870870_" gradientUnits="userSpaceOnUse" x1="28.3921" y1="70.3018" x2="28.3921" y2="38.2897">
		<stop  offset="0" style="stop-color:#CE7600"/>
		<stop  offset="0.7" style="stop-color:#CE7600;stop-opacity:0"/>
	</linearGradient>
	<path style="fill:url(#SVGID_00000022539639620813380090000011086813708919870870_);" d="M39.1,67.7c-0.1-0.2-0.3-0.5-0.4-0.7
		c-0.1-0.2-0.2-0.3-0.3-0.5c-0.1-0.2-0.3-0.4-0.4-0.7c-0.1-0.2-0.2-0.3-0.3-0.5c-0.1-0.2-0.2-0.4-0.4-0.6c-0.1-0.2-0.2-0.3-0.3-0.5
		c-0.1-0.2-0.2-0.4-0.3-0.6c-0.1-0.2-0.2-0.3-0.3-0.5c-0.1-0.2-0.2-0.4-0.3-0.6c-0.1-0.2-0.2-0.3-0.3-0.5c-0.1-0.2-0.2-0.3-0.3-0.5
		c-0.1-0.2-0.2-0.3-0.2-0.5c-0.1-0.2-0.2-0.3-0.2-0.5c-0.1-0.2-0.2-0.3-0.2-0.5c-0.1-0.1-0.1-0.3-0.2-0.4c-0.1-0.2-0.1-0.3-0.2-0.5
		c-0.1-0.1-0.1-0.2-0.2-0.3c-0.1-0.2-0.1-0.3-0.2-0.4c0-0.1-0.1-0.2-0.1-0.2c-0.1-0.1-0.1-0.3-0.2-0.4c0-0.1,0-0.1-0.1-0.2
		c-0.1-0.1-0.1-0.3-0.2-0.4c0,0,0,0,0-0.1c-0.3-0.6-0.4-1-0.5-1.1c-0.3-0.9-0.7-1.7-1-2.5c-0.1-0.2-0.1-0.4-0.2-0.6
		c-0.2-0.6-0.5-1.2-0.7-1.8C31,51,31,50.8,30.9,50.5c-0.2-0.5-0.4-1.1-0.5-1.6c-0.1-0.3-0.2-0.5-0.2-0.8c-0.1-0.5-0.3-0.9-0.4-1.4
		c-0.1-0.3-0.1-0.6-0.2-0.8c-0.1-0.4-0.2-0.9-0.3-1.3C29,44.3,29,44,28.9,43.7c-0.1-0.4-0.2-0.8-0.2-1.3c-0.1-0.3-0.1-0.6-0.1-0.9
		c-0.1-0.4-0.1-0.8-0.2-1.2c0-0.3,0-0.7-0.1-1c0-0.3-0.1-0.7-0.1-1c-4,2.5-11.4,9.6-11,17c0.1,1.7,0.6,3,0.9,3.8
		c1,2.6,4,9,10.7,10.7c4.6,1.2,8.6-0.3,10.7-1.4c0-0.1-0.1-0.1-0.1-0.2C39.3,68.1,39.2,67.9,39.1,67.7z"/>
	
		<linearGradient id="SVGID_00000100344751510274050650000013719080117610696383_" gradientUnits="userSpaceOnUse" x1="74.2512" y1="79.0426" x2="74.2512" y2="58.813">
		<stop  offset="0" style="stop-color:#CE7600"/>
		<stop  offset="0.7" style="stop-color:#CE7600;stop-opacity:0"/>
	</linearGradient>
	<path style="fill:url(#SVGID_00000100344751510274050650000013719080117610696383_);" d="M77.5,58.8c-0.2,0.7-0.4,1.3-0.6,1.7
		c-1,2.8-4,9-10.3,12.1l3.6,3.6c3.2,2.6,6.9,3.6,9.1,2.4c3.7-2,2.6-9.8,1.9-12.6C80.4,63,78.8,60.4,77.5,58.8z"/>
</g>
<path d="M85,64.9c-1.3-5-4.6-9.4-7-10.9c-0.4-9.5-9.7-17.5-14.1-19.8c-0.6-0.3-1.2-0.6-1.8-0.7c-2.9-5.1-11.3-6.3-16.3-6.6l-0.1,0
	l-0.1,0c-5,0.3-13.3,1.5-16.3,6.6c-0.6,0.2-1.3,0.4-1.8,0.7C23,36.5,13.7,44.5,13.3,54c-2.4,1.5-5.7,5.9-7,10.9
	C5.9,66.2,3,78.3,10.1,82.1c1.2,0.7,2.6,1,4.1,1c3.1,0,6.5-1.3,9.5-3.8l4.6-4.6c0.1-0.1,0.3-0.3,0.6-0.6c1.1,0.2,2.2,0.3,3.3,0.3
	c4.5,0,8.1-1.7,9.8-2.7c0.9,0.8,2.1,1.5,3.5,1.5l0.1,0l0.1,0c1.5-0.1,2.6-0.7,3.5-1.5c1.8,1,5.4,2.7,9.8,2.7c1,0,2.1-0.1,3.3-0.3
	c0.2,0.3,0.4,0.5,0.6,0.6l4.5,4.5l0.1,0.1c3,2.5,6.4,3.8,9.5,3.8c1.5,0,2.9-0.3,4.1-1C88.3,78.3,85.4,66.2,85,64.9z M21.1,76.2
	c-3.2,2.6-6.9,3.6-9.1,2.4c-3.7-2-2.6-9.8-1.9-12.6c0.8-2.9,2.4-5.5,3.7-7.1c0.2,0.7,0.4,1.3,0.6,1.7c1,2.8,4,9,10.3,12.1L21.1,76.2
	z M28.8,69.9c-6.7-1.7-9.7-8.1-10.7-10.7c-0.3-0.8-0.8-2.1-0.9-3.8c-0.4-7.4,7-14.5,11-17c0,0.3,0,0.7,0.1,1c0,0.3,0,0.7,0.1,1
	c0,0.4,0.1,0.8,0.2,1.2c0,0.3,0.1,0.6,0.1,0.9c0.1,0.4,0.2,0.8,0.2,1.3c0.1,0.3,0.1,0.6,0.2,0.9c0.1,0.4,0.2,0.9,0.3,1.3
	c0.1,0.3,0.1,0.6,0.2,0.8c0.1,0.5,0.3,0.9,0.4,1.4c0.1,0.3,0.2,0.5,0.2,0.8c0.2,0.5,0.4,1,0.5,1.6c0.1,0.2,0.2,0.5,0.2,0.7
	c0.2,0.6,0.4,1.2,0.7,1.8c0.1,0.2,0.1,0.4,0.2,0.6c0.3,0.8,0.7,1.7,1,2.5c0,0.1,0.2,0.5,0.5,1.1c0,0,0,0,0,0.1
	c0.1,0.1,0.1,0.3,0.2,0.4c0,0.1,0,0.1,0.1,0.2c0.1,0.1,0.1,0.3,0.2,0.4c0,0.1,0.1,0.2,0.1,0.2c0.1,0.1,0.1,0.3,0.2,0.4
	c0.1,0.1,0.1,0.2,0.2,0.3c0.1,0.1,0.1,0.3,0.2,0.5c0.1,0.1,0.1,0.3,0.2,0.4c0.1,0.2,0.2,0.3,0.2,0.5c0.1,0.1,0.1,0.3,0.2,0.5
	c0.1,0.2,0.2,0.3,0.2,0.5c0.1,0.2,0.2,0.3,0.3,0.5c0.1,0.2,0.2,0.3,0.3,0.5c0.1,0.2,0.2,0.4,0.3,0.6c0.1,0.2,0.2,0.3,0.3,0.5
	c0.1,0.2,0.2,0.4,0.3,0.6c0.1,0.2,0.2,0.3,0.3,0.5c0.1,0.2,0.2,0.4,0.4,0.6c0.1,0.2,0.2,0.3,0.3,0.5c0.1,0.2,0.3,0.4,0.4,0.7
	c0.1,0.2,0.2,0.3,0.3,0.5c0.1,0.2,0.3,0.5,0.4,0.7c0.1,0.2,0.2,0.3,0.3,0.5c0,0.1,0.1,0.1,0.1,0.2C37.4,69.5,33.4,71.1,28.8,69.9z
	 M47.9,67.1c-0.4,0.6-1.3,2-2.2,2.1c-0.9-0.1-1.8-1.5-2.2-2.1c-4.1-6.2-6.6-12.3-6.7-12.4c-3-7.6-4.4-11.8-4.5-16.9
	c0-0.7,0.1-1,0.2-1.3c0.1-0.3,0.1-0.6,0.1-0.8c1.5-3.1,7.6-4.6,13.1-4.9c5.4,0.3,11.6,1.7,13.1,4.9c0,0.2,0.1,0.5,0.1,0.8
	c0.1,0.3,0.2,0.6,0.2,1.3c-0.1,5-1.4,9.3-4.5,16.9C54.5,54.7,52.1,60.9,47.9,67.1z M62.5,69.9c-0.3,0.1-0.7,0.2-1,0.2c0,0,0,0,0,0
	c-1.6,0.3-3,0.3-4.4,0.1c0,0,0,0,0,0c-0.4-0.1-0.8-0.1-1.2-0.2c0,0-0.1,0-0.1,0c-0.4-0.1-0.8-0.2-1.1-0.3c0,0-0.1,0-0.1,0
	c-0.3-0.1-0.7-0.2-1-0.3c0,0-0.1,0-0.1,0c-0.3-0.1-0.6-0.2-0.9-0.4c0,0,0,0-0.1,0c-0.3-0.1-0.5-0.2-0.8-0.4c0-0.1,0.1-0.1,0.1-0.2
	c0.1-0.2,0.2-0.3,0.3-0.5c0.1-0.2,0.3-0.5,0.4-0.7c0.1-0.2,0.2-0.3,0.3-0.5c0.1-0.2,0.3-0.4,0.4-0.7c0.1-0.2,0.2-0.3,0.3-0.5
	c0.1-0.2,0.2-0.4,0.4-0.6c0.1-0.2,0.2-0.3,0.3-0.5c0.1-0.2,0.2-0.4,0.3-0.6c0.1-0.2,0.2-0.3,0.3-0.5c0.1-0.2,0.2-0.4,0.3-0.6
	c0.1-0.2,0.2-0.3,0.3-0.5c0.1-0.2,0.2-0.3,0.3-0.5c0.1-0.2,0.2-0.3,0.2-0.5c0.1-0.2,0.2-0.3,0.2-0.5c0.1-0.2,0.2-0.3,0.2-0.5
	c0.1-0.1,0.1-0.3,0.2-0.4c0.1-0.2,0.1-0.3,0.2-0.5c0.1-0.1,0.1-0.2,0.2-0.3c0.1-0.2,0.1-0.3,0.2-0.4c0-0.1,0.1-0.2,0.1-0.2
	c0.1-0.1,0.1-0.3,0.2-0.4c0-0.1,0-0.1,0.1-0.2c0.1-0.2,0.1-0.3,0.2-0.4c0,0,0,0,0,0c0.3-0.6,0.4-1,0.5-1.1c0.3-0.9,0.7-1.7,1-2.5
	c0.1-0.2,0.2-0.4,0.2-0.6c0.2-0.6,0.5-1.2,0.7-1.8c0.1-0.3,0.2-0.5,0.3-0.7c0.2-0.5,0.4-1,0.5-1.5c0.1-0.3,0.2-0.6,0.3-0.8
	c0.1-0.5,0.3-0.9,0.4-1.4c0.1-0.3,0.2-0.6,0.2-0.9c0.1-0.4,0.2-0.9,0.3-1.3c0.1-0.3,0.1-0.6,0.2-0.9c0.1-0.4,0.2-0.8,0.2-1.2
	c0.1-0.3,0.1-0.6,0.1-1c0.1-0.4,0.1-0.8,0.1-1.2c0-0.3,0-0.7,0.1-1c0-0.3,0.1-0.7,0.1-1c0.2,0.2,0.5,0.3,0.8,0.5
	c0.1,0.1,0.2,0.2,0.4,0.3c0.2,0.1,0.3,0.2,0.5,0.3c0.2,0.1,0.3,0.3,0.5,0.4c0.1,0.1,0.2,0.2,0.4,0.3c0.2,0.2,0.4,0.3,0.6,0.5
	c0.1,0.1,0.2,0.2,0.3,0.2c0.2,0.2,0.5,0.4,0.7,0.7c0.1,0.1,0.1,0.1,0.2,0.2c0.3,0.2,0.5,0.5,0.8,0.8c0,0,0.1,0.1,0.1,0.1
	c0.3,0.3,0.5,0.6,0.8,0.9c0,0,0.1,0.1,0.1,0.1c0.3,0.3,0.5,0.6,0.8,1c0,0,0,0,0.1,0.1c0.3,0.3,0.5,0.7,0.8,1c0,0,0,0,0,0
	c0.3,0.4,0.5,0.7,0.7,1.1c0,0,0,0,0,0c0.2,0.4,0.5,0.8,0.7,1.2c0,0,0,0,0,0c0.2,0.4,0.4,0.8,0.6,1.2c0,0,0,0,0,0
	c0.2,0.4,0.4,0.8,0.5,1.2c0,0,0,0,0,0c0.2,0.4,0.3,0.8,0.4,1.3c0,0,0,0,0,0c0.1,0.4,0.2,0.9,0.3,1.3c0,0,0,0,0,0
	c0.1,0.4,0.1,0.9,0.1,1.3c0,0,0,0,0,0v0c0,0.3,0,0.7,0,1c-0.1,1.7-0.6,3-0.9,3.8C72.2,61.8,69.2,68.1,62.5,69.9z M79.3,78.5
	c-2.3,1.2-5.9,0.3-9.1-2.4l-3.6-3.6c6.3-3,9.3-9.3,10.3-12.1c0.2-0.4,0.4-1,0.6-1.7c1.3,1.6,2.9,4.1,3.7,7.1
	C81.9,68.7,83,76.6,79.3,78.5z"/>
</svg>
