<?xml version="1.0" encoding="utf-8"?>
<!-- Generator: Adobe Illustrator 28.0.0, SVG Export Plug-In . SVG Version: 6.00 Build 0)  -->
<svg version="1.1" id="레이어_1" xmlns="http://www.w3.org/2000/svg" xmlns:xlink="http://www.w3.org/1999/xlink" x="0px"
	 y="0px" viewBox="0 0 91.3 109.9" style="enable-background:new 0 0 91.3 109.9;" xml:space="preserve">
<style type="text/css">
	.st0{fill:url(#SVGID_1_);}
	.st1{fill:url(#SVGID_00000021111049950606331410000015506487509372490143_);}
	.st2{fill:none;stroke:#000000;stroke-width:4;stroke-miterlimit:10;}
</style>
<g>
	<linearGradient id="SVGID_1_" gradientUnits="userSpaceOnUse" x1="66.6775" y1="40.1546" x2="66.6775" y2="17.4774">
		<stop  offset="0" style="stop-color:#FFE82A"/>
		<stop  offset="0.6" style="stop-color:#FFE82A;stop-opacity:0"/>
	</linearGradient>
	<path class="st0" d="M67.9,18.2l2.6,5.3c0.2,0.4,0.6,0.7,1,0.7l5.9,0.9c1.1,0.2,1.5,1.5,0.7,2.3l-4.2,4.1c-0.3,0.3-0.5,0.8-0.4,1.2
		l1,5.8c0.2,1.1-1,1.9-2,1.4l-5.2-2.8c-0.4-0.2-0.9-0.2-1.3,0L60.8,40c-1,0.5-2.1-0.3-2-1.4l1-5.8c0.1-0.4-0.1-0.9-0.4-1.2l-4.2-4.1
		c-0.8-0.8-0.4-2.1,0.7-2.3l5.9-0.9c0.4-0.1,0.8-0.3,1-0.7l2.6-5.3C66,17.2,67.4,17.2,67.9,18.2z"/>
	
		<linearGradient id="SVGID_00000002369978462008037560000012768511324167283352_" gradientUnits="userSpaceOnUse" x1="11.6343" y1="70.3668" x2="77.6861" y2="70.3668">
		<stop  offset="0.5" style="stop-color:#FF7FDF;stop-opacity:0"/>
		<stop  offset="1" style="stop-color:#FF7FDF"/>
	</linearGradient>
	<path style="fill:url(#SVGID_00000002369978462008037560000012768511324167283352_);" d="M76.2,48.2H57.1c-0.8,0-1.5,0.7-1.5,1.5
		v11.2c0-0.8-0.7-1.5-1.5-1.5H35.1c-0.8,0-1.5,0.7-1.5,1.5V72c0-0.8-0.7-1.5-1.5-1.5H13.1c-0.8,0-1.5,0.7-1.5,1.5v19.1
		c0,0.8,0.7,1.5,1.5,1.5h19.1c0.8,0,1.5-0.7,1.5-1.5c0,0.8,0.7,1.5,1.5,1.5h19.1c0.8,0,1.5-0.7,1.5-1.5c0,0.8,0.7,1.5,1.5,1.5h19.1
		c0.8,0,1.5-0.7,1.5-1.5V49.7C77.7,48.9,77,48.2,76.2,48.2z"/>
	<path class="st2" d="M32.2,92.5H13.1c-0.8,0-1.5-0.7-1.5-1.5V72c0-0.8,0.7-1.5,1.5-1.5h19.1c0.8,0,1.5,0.7,1.5,1.5v19.1
		C33.7,91.9,33,92.5,32.2,92.5z"/>
	<path class="st2" d="M54.2,92.5H35.1c-0.8,0-1.5-0.7-1.5-1.5V60.9c0-0.8,0.7-1.5,1.5-1.5h19.1c0.8,0,1.5,0.7,1.5,1.5v30.2
		C55.7,91.9,55,92.5,54.2,92.5z"/>
	<path class="st2" d="M76.2,92.5H57.1c-0.8,0-1.5-0.7-1.5-1.5V49.7c0-0.8,0.7-1.5,1.5-1.5h19.1c0.8,0,1.5,0.7,1.5,1.5v41.4
		C77.7,91.9,77,92.5,76.2,92.5z"/>
	<path class="st2" d="M67.9,18.2l2.6,5.3c0.2,0.4,0.6,0.7,1,0.7l5.9,0.9c1.1,0.2,1.5,1.5,0.7,2.3l-4.2,4.1c-0.3,0.3-0.5,0.8-0.4,1.2
		l1,5.8c0.2,1.1-1,1.9-2,1.4l-5.2-2.8c-0.4-0.2-0.9-0.2-1.3,0L60.8,40c-1,0.5-2.1-0.3-2-1.4l1-5.8c0.1-0.4-0.1-0.9-0.4-1.2l-4.2-4.1
		c-0.8-0.8-0.4-2.1,0.7-2.3l5.9-0.9c0.4-0.1,0.8-0.3,1-0.7l2.6-5.3C66,17.2,67.4,17.2,67.9,18.2z"/>
</g>
</svg>
