<?xml version="1.0" encoding="utf-8"?>
<!-- Generator: Adobe Illustrator 28.0.0, SVG Export Plug-In . SVG Version: 6.00 Build 0)  -->
<svg version="1.1" id="레이어_2_00000129899312101962692770000016223389285295905940_"
	 xmlns="http://www.w3.org/2000/svg" xmlns:xlink="http://www.w3.org/1999/xlink" x="0px" y="0px" viewBox="0 0 91.3 109.9"
	 style="enable-background:new 0 0 91.3 109.9;" xml:space="preserve">
<style type="text/css">
	.st0{fill:url(#SVGID_1_);}
	.st1{fill:none;}
	.st2{fill:#FFFFFF;}
	.st3{fill:url(#SVGID_00000093145783085599267220000017672431176150893207_);}
</style>
<g>
	<g>
		<linearGradient id="SVGID_1_" gradientUnits="userSpaceOnUse" x1="12.7332" y1="49.507" x2="78.5699" y2="49.507">
			<stop  offset="0.4" style="stop-color:#CCCCCC;stop-opacity:0"/>
			<stop  offset="1" style="stop-color:#CCCCCC"/>
		</linearGradient>
		<rect x="12.7" y="45.4" class="st0" width="65.8" height="8.3"/>
		<path class="st1" d="M62.2,24.8c-0.8-0.8-1.8-1.3-2.9-1.3c-0.5,0-1.1,0.1-1.6,0.3L18,41.1h58.4L62.2,24.8z"/>
		<path class="st2" d="M79.7,57.9h-68c-1.7,0-3-1.4-3-3V41.6c0-0.6,0.4-1.2,0.9-1.4l46.6-20.4c1-0.4,2.1-0.7,3.2-0.7
			c2.3,0,4.5,1,6,2.7l17,19.6c0.2,0.3,0.4,0.6,0.4,1v12.3C82.7,56.5,81.3,57.9,79.7,57.9z M78.6,53.7v-8.3H12.7v8.3H78.6z
			 M76.3,41.1L62.2,24.8c-0.8-0.8-1.8-1.3-2.9-1.3c-0.5,0-1.1,0.1-1.6,0.3L18,41.1H76.3z"/>
	</g>
	<path class="st2" d="M82.2,67.9c-2.5,0-4.9-0.8-6.8-2.4c-0.6-0.5-1.4-0.8-2.3-0.8c-0.8,0-1.7,0.3-2.3,0.8c-1.9,1.5-4.3,2.4-6.8,2.4
		c-2.5,0-4.9-0.8-6.8-2.4c-0.6-0.5-1.4-0.8-2.3-0.8c-0.8,0-1.7,0.3-2.3,0.8c-1.9,1.5-4.3,2.4-6.8,2.4s-4.9-0.8-6.8-2.4
		c-0.6-0.5-1.4-0.8-2.3-0.8c-0.8,0-1.7,0.3-2.3,0.8c-1.9,1.5-4.3,2.4-6.8,2.4c-2.5,0-4.9-0.8-6.8-2.4c-0.6-0.5-1.4-0.8-2.3-0.8
		c-0.9,0-1.7,0.3-2.4,0.9c-1.9,1.6-4.4,2.3-6.9,2.3H8.6v-4.2h0.5c1.6,0,3.1-0.5,4.3-1.5c1.4-1.1,3.1-1.7,4.8-1.7
		c1.8,0,3.5,0.6,4.8,1.7c1.2,1,2.7,1.5,4.3,1.5c1.6,0,3.1-0.5,4.3-1.5c1.4-1.1,3.1-1.7,4.8-1.7c1.8,0,3.5,0.6,4.8,1.7
		c1.2,1,2.7,1.5,4.3,1.5c1.6,0,3.1-0.5,4.3-1.5c1.4-1.1,3.1-1.7,4.8-1.7c1.8,0,3.5,0.6,4.8,1.7c1.2,1,2.7,1.5,4.3,1.5
		c1.6,0,3.1-0.5,4.3-1.5c1.4-1.1,3.1-1.7,4.8-1.7c1.7,0,3.3,0.5,4.7,1.5l0.2,0.1c1.2,1,2.7,1.5,4.3,1.5h0.5v4.2H82.2z"/>
	<g>
		
			<linearGradient id="SVGID_00000114787796015494300800000006244251745595456386_" gradientUnits="userSpaceOnUse" x1="12.7332" y1="78.8692" x2="78.5699" y2="78.8692">
			<stop  offset="0.4" style="stop-color:#CCCCCC;stop-opacity:0"/>
			<stop  offset="1" style="stop-color:#CCCCCC"/>
		</linearGradient>
		<path style="fill:url(#SVGID_00000114787796015494300800000006244251745595456386_);" d="M12.7,78.9c0,2.3,1.8,4.1,4,4.1h57.8
			c2.2,0,4-1.9,4-4.1v-4.1H12.7V78.9z"/>
		<path class="st2" d="M16.7,87.2c-4.5,0-8.2-3.8-8.2-8.4V72c0-0.8,0.7-1.5,1.5-1.5h71.1c0.8,0,1.5,0.7,1.5,1.5v6.9
			c0,4.6-3.7,8.4-8.2,8.4H16.7z M12.7,78.9c0,2.3,1.8,4.1,4,4.1h57.8c2.2,0,4-1.9,4-4.1v-4.1H12.7V78.9z"/>
	</g>
</g>
</svg>
