<?xml version="1.0" encoding="utf-8"?>
<!-- Generator: Adobe Illustrator 28.0.0, SVG Export Plug-In . SVG Version: 6.00 Build 0)  -->
<svg version="1.1" id="레이어_2_00000129899312101962692770000016223389285295905940_"
	 xmlns="http://www.w3.org/2000/svg" xmlns:xlink="http://www.w3.org/1999/xlink" x="0px" y="0px" viewBox="0 0 91.3 109.9"
	 style="enable-background:new 0 0 91.3 109.9;" xml:space="preserve">
<style type="text/css">
	.st0{fill:url(#Vector_00000075841955650375269720000000370311142749203339_);}
	.st1{fill:none;stroke:#000000;stroke-width:4;stroke-linecap:round;stroke-linejoin:round;}
	.st2{fill:url(#Vector_2_00000023998998691669542820000005829338414770237366_);}
</style>
<g id="cake-slice--cherry-cake-birthday-event-special-sweet-bake_00000006702752495100942340000002062077217501244329_">
	
		<linearGradient id="Vector_00000103256936446778135330000016531157242266629509_" gradientUnits="userSpaceOnUse" x1="79.0282" y1="46.85" x2="9.2893" y2="46.85" gradientTransform="matrix(1 0 0 -1 0 112)">
		<stop  offset="0" style="stop-color:#501400;stop-opacity:0.9735"/>
		<stop  offset="0.5" style="stop-color:#501400;stop-opacity:0"/>
	</linearGradient>
	
		<path id="Vector_00000034780643243544184540000000444375389426919811_" style="fill:url(#Vector_00000103256936446778135330000016531157242266629509_);" d="
		M75,46.5H16.3c-2.9,0-5.3,2.4-5.3,5.3v26.7c0,2.9,2.4,5.3,5.3,5.3H75c2.9,0,5.3-2.4,5.3-5.3V51.8C80.3,48.9,77.9,46.5,75,46.5z"/>
	<path id="Vector_00000018202876633721512910000006766381155830181799_" class="st1" d="M75,46.5H16.3c-2.9,0-5.3,2.4-5.3,5.3v26.7
		c0,2.9,2.4,5.3,5.3,5.3H75c2.9,0,5.3-2.4,5.3-5.3V51.8C80.3,48.9,77.9,46.5,75,46.5z"/>
	
		<linearGradient id="Vector_2_00000052798022656263075000000002933324018940866742_" gradientUnits="userSpaceOnUse" x1="16.3" y1="35.85" x2="37.7" y2="35.85">
		<stop  offset="0.4" style="stop-color:#E4442C;stop-opacity:0"/>
		<stop  offset="1" style="stop-color:#E4442C"/>
	</linearGradient>
	
		<path id="Vector_2_00000041273773871474078130000013823017950517540251_" style="fill:url(#Vector_2_00000052798022656263075000000002933324018940866742_);" d="
		M27,46.5c5.9,0,10.7-4.8,10.7-10.7S32.9,25.2,27,25.2S16.3,30,16.3,35.9S21.1,46.5,27,46.5z"/>
	<path id="Vector_2_00000029739358402724368860000015951652572905991052_" class="st1" d="M27,46.5c5.9,0,10.7-4.8,10.7-10.7
		S32.9,25.2,27,25.2S16.3,30,16.3,35.9S21.1,46.5,27,46.5z"/>
	<path id="Vector_3_00000043416988112938555280000011892118350745602239_" class="st1" d="M11,62.5h69.3"/>
	<path id="Vector_4_00000072239797721128983500000004524973018744340617_" class="st1" d="M27,25.2c0,0,0-10.7,8-10.7"/>
</g>
</svg>
