<?xml version="1.0" encoding="utf-8"?>
<!-- Generator: Adobe Illustrator 28.0.0, SVG Export Plug-In . SVG Version: 6.00 Build 0)  -->
<svg version="1.1" id="레이어_2_00000129899312101962692770000016223389285295905940_"
	 xmlns="http://www.w3.org/2000/svg" xmlns:xlink="http://www.w3.org/1999/xlink" x="0px" y="0px" viewBox="0 0 91.3 109.9"
	 style="enable-background:new 0 0 91.3 109.9;" xml:space="preserve">
<style type="text/css">
	.st0{fill:url(#SVGID_1_);}
	.st1{fill:url(#SVGID_00000016068875922448831900000016709099286055370383_);}
	.st2{fill:none;stroke:#000000;stroke-width:4.1739;stroke-linejoin:round;}
	.st3{fill:none;stroke:#000000;stroke-width:4.1739;stroke-linecap:round;stroke-linejoin:round;}
	.st4{fill:none;stroke:#000000;stroke-width:4.1739;stroke-linecap:round;stroke-miterlimit:10;}
</style>
<g>
	<linearGradient id="SVGID_1_" gradientUnits="userSpaceOnUse" x1="13.9043" y1="30.6331" x2="45.5365" y2="62.2653">
		<stop  offset="0.4" style="stop-color:#8ADC00;stop-opacity:0"/>
		<stop  offset="1" style="stop-color:#8ADC00"/>
	</linearGradient>
	<path class="st0" d="M16.9,61.1h20.3c-1.2-7.6-3.7-13.6-8.1-19.3c-0.7-0.9-0.5-2.2,0.4-2.9c0.9-0.7,2.2-0.5,2.9,0.4
		c6.2,8.1,8.2,16.1,9,21.9h5.2c-0.2-1.2-0.3-2.5-0.3-3.9c0-6.5,2.4-11.4,6.8-14.2l0-0.1c-3-4.9-8-7.7-12.5-6.9
		c-1.1,0.2-2.1-0.5-2.4-1.5c-0.3-1-0.6-2-1.1-3c-3.2-6.9-10.2-10.4-15.6-7.9c-2.5,1.2-4.3,3.5-5.1,6.7c-0.8,3.3-0.4,7,1.3,10.4
		c0.5,1,1,1.9,1.6,2.8c0.6,0.9,0.5,2.1-0.3,2.8C15.6,49.3,14.7,55.5,16.9,61.1z"/>
	
		<linearGradient id="SVGID_00000093886155723248197150000005101211541645267094_" gradientUnits="userSpaceOnUse" x1="54.5535" y1="47.0121" x2="71.7276" y2="64.1862">
		<stop  offset="0.4" style="stop-color:#E4442C;stop-opacity:0"/>
		<stop  offset="1" style="stop-color:#E4442C"/>
	</linearGradient>
	<path style="fill:url(#SVGID_00000093886155723248197150000005101211541645267094_);" d="M50.8,60.4h24.7c0.2-1,0.3-2.1,0.3-3.2
		c0-7.7-3.8-12-10.9-12.5c0,0,0,0,0,0c0,0,0,0,0,0c-0.5,0-1.1-0.1-1.7-0.1c-2.4,0-4.5,0.4-6.3,1.1c0,0,0,0,0,0
		c-0.1,0.1-0.2,0.1-0.3,0.1c-4,1.8-6,5.7-6,11.3C50.5,58.3,50.6,59.4,50.8,60.4z"/>
	<g>
		<g>
			<g id="salad-vegetable-diet_00000063613107954665287790000016672903342166481040_">
				<path id="Ellipse_1463_00000140006207382466460510000013588179826688521614_" class="st2" d="M45.7,88.8
					c-29.3,0-38.5-9.1-33.2-25.5h66.3C84.1,79.7,74.9,88.8,45.7,88.8z"/>
				<path id="Vector_2130_00000054964277516441881570000012153674285959466928_" class="st3" d="M30.8,40.5c5.9,7.6,8,15.3,8.8,22.5
					"/>
				<path id="Union_00000001633905602864071380000016507045740697314713_" class="st3" d="M15.5,63.2c-3.2-6.8-2.2-14.7,2.3-18.6
					c-0.7-0.9-1.3-2-1.8-3.1c-3.7-7.9-1.6-16.8,4.8-19.8c6.4-3,14.6,1,18.3,8.9c0.5,1.1,0.9,2.2,1.2,3.4c5.3-0.9,11.2,2.3,14.6,8
					l1,1.9"/>
				<path id="Subtract_00000101797543343672749050000004969209233434371744_" class="st3" d="M49.1,62.5h28.1
					c0.4-1.6,0.7-3.3,0.7-5.3c0-9.4-5.3-14.7-14.7-14.7c-9.4,0-14.7,5.3-14.7,14.7C48.4,59.2,48.7,60.9,49.1,62.5z"/>
			</g>
		</g>
		<path class="st4" d="M67.9,36.4c0,0-2.5,2.3-2.9,6.2"/>
	</g>
</g>
</svg>
