<?xml version="1.0" encoding="utf-8"?>
<!-- Generator: Adobe Illustrator 28.0.0, SVG Export Plug-In . SVG Version: 6.00 Build 0)  -->
<svg version="1.1" id="레이어_2_00000129899312101962692770000016223389285295905940_"
	 xmlns="http://www.w3.org/2000/svg" xmlns:xlink="http://www.w3.org/1999/xlink" x="0px" y="0px" viewBox="0 0 91.3 109.9"
	 style="enable-background:new 0 0 91.3 109.9;" xml:space="preserve">
<style type="text/css">
	.st0{fill:url(#SVGID_1_);}
	.st1{fill:#FFFFFF;}
	.st2{fill:none;stroke:#FFFFFF;stroke-width:4;stroke-linecap:round;stroke-linejoin:round;}
	.st3{fill:none;stroke:#FFFFFF;stroke-width:4;}
	.st4{fill:url(#SVGID_00000101068591182708014670000002003696881383512963_);}
</style>
<linearGradient id="SVGID_1_" gradientUnits="userSpaceOnUse" x1="41.1304" y1="86.8016" x2="83.6859" y2="86.8016">
	<stop  offset="0.5" style="stop-color:#CCCCCC;stop-opacity:0"/>
	<stop  offset="1" style="stop-color:#CCCCCC"/>
</linearGradient>
<path class="st0" d="M62.4,65.5c-11.8,0-21.3,9.5-21.3,21.3s9.5,21.3,21.3,21.3s21.3-9.5,21.3-21.3S74.2,65.5,62.4,65.5z M62.1,93.5
	c-3.7,0-6.8-3-6.8-6.8s3-6.8,6.8-6.8c3.7,0,6.8,3,6.8,6.8S65.8,93.5,62.1,93.5z"/>
<g>
	<path class="st1" d="M37.1,38c-0.4-0.3-0.9-0.6-1.5-0.9c-0.6-0.2-1.2-0.4-2-0.6c-0.4-0.1-0.7-0.2-1.1-0.3c-0.3-0.1-0.6-0.2-0.8-0.4
		s-0.4-0.3-0.5-0.5C31.1,35.2,31,35,31,34.7c0-0.3,0.1-0.5,0.3-0.8c0.2-0.2,0.4-0.4,0.8-0.5c0.3-0.1,0.7-0.2,1.1-0.2
		c0.4,0,0.8,0.1,1.2,0.2s0.7,0.3,1.1,0.6c0.3,0.3,0.6,0.6,0.9,0.9l1.9-1.8c-0.3-0.5-0.7-1-1.2-1.3c-0.5-0.4-1-0.6-1.7-0.8
		c-0.6-0.2-1.4-0.3-2.2-0.3c-0.7,0-1.4,0.1-2,0.3s-1.2,0.5-1.6,0.9c-0.5,0.4-0.8,0.8-1.1,1.3c-0.3,0.5-0.4,1.1-0.4,1.7
		c0,0.6,0.1,1.1,0.3,1.6c0.2,0.5,0.5,0.9,0.8,1.2c0.4,0.4,0.8,0.7,1.4,0.9c0.6,0.2,1.2,0.5,2,0.6c0.3,0.1,0.7,0.1,1,0.2
		c0.3,0.1,0.6,0.2,0.8,0.3s0.4,0.2,0.6,0.4c0.2,0.1,0.3,0.3,0.4,0.5c0.1,0.2,0.1,0.4,0.1,0.6c0,0.3-0.1,0.5-0.3,0.8
		c-0.2,0.2-0.4,0.4-0.8,0.5c-0.3,0.1-0.7,0.2-1.1,0.2c-0.8,0-1.5-0.2-2.1-0.5s-1.3-0.9-1.9-1.9l-1.9,2.1c0.4,0.6,0.9,1.1,1.5,1.5
		s1.2,0.7,1.9,0.9c0.7,0.2,1.5,0.3,2.4,0.3c1.1,0,2-0.2,2.8-0.5c0.8-0.4,1.4-0.9,1.9-1.5c0.5-0.7,0.7-1.5,0.7-2.4
		c0-0.6-0.1-1.1-0.3-1.6S37.5,38.3,37.1,38z"/>
	<polygon class="st1" points="44.1,39.1 49.6,39.1 49.6,36.6 44.1,36.6 44.1,33.6 50.6,33.6 50.6,31 41.1,31 41.1,45 50.7,45 
		50.7,42.4 44.1,42.4 	"/>
	<polygon class="st1" points="52.7,31 52.7,33.7 56.8,33.7 56.8,45 59.8,45 59.8,33.7 64,33.7 64,31 	"/>
</g>
<path id="Ellipse_913_00000178204838758160348860000017957826035732205189_" class="st2" d="M55.8,86.6c0,3.6,2.9,6.5,6.5,6.5
	c3.6,0,6.5-2.9,6.5-6.5c0,0,0,0,0,0c0-3.6-2.9-6.5-6.5-6.5C58.7,80.1,55.8,83,55.8,86.6"/>
<path id="Vector_2172_00000073682930850907265360000017335858379777047990_" class="st2" d="M77,85l-1.6,3.3"/>
<path id="Vector_2173_00000111876646481263523050000015042537593459048323_" class="st2" d="M49.2,93.2l3.3,3.3"/>
<path id="Vector_2174_00000119106741259994894770000001169242165676344975_" class="st2" d="M65.6,71.9l3.3,3.3"/>
<g id="Group_11_00000106868950089529607120000002771414984977951377_">
	<path id="Ellipse_1094_00000038383868753159084970000008600616098052955035_" class="st3" d="M50.8,79.3c-0.5,0-0.8-0.4-0.8-0.8
		c0-0.5,0.4-0.8,0.8-0.8"/>
	<path id="Ellipse_1095_00000016766213881762240170000015010344390151989892_" class="st3" d="M50.8,79.3c0.5,0,0.8-0.4,0.8-0.8
		c0-0.5-0.4-0.8-0.8-0.8"/>
</g>
<g id="Group_20_00000048475597487684744520000013918785921986178487_">
	<path id="Ellipse_1094_x5F_2_00000011719993230907301450000013418743812230006159_" class="st3" d="M67.2,100.5
		c-0.5,0-0.8-0.4-0.8-0.8s0.4-0.8,0.8-0.8"/>
	<path id="Ellipse_1095_x5F_2_00000168096885353725453650000004310478678622243203_" class="st3" d="M67.2,100.5
		c0.5,0,0.8-0.4,0.8-0.8s-0.4-0.8-0.8-0.8"/>
</g>
<path class="st1" d="M62.3,63.4c-2.9,0-5.7,0.5-8.3,1.5c-0.8-1-2-1.8-3.4-2.1L47,53.6c-0.3-0.8-1-1.3-1.9-1.3H16.2
	c-0.8,0-1.6,0.5-1.9,1.3l-3.7,9.2C8,63.4,6,65.8,6,68.7V77c0,2.8,1.8,5.1,4.4,5.9l3.9,25.4c0.1,1,1,1.7,2,1.7h28.9
	c1,0,1.8-0.7,2-1.7l0.5-3.5c4,3.3,9.1,5.2,14.7,5.2c0,0,0,0,0,0c6.2,0,12.1-2.4,16.4-6.8c4.4-4.4,6.8-10.2,6.8-16.5
	C85.6,73.8,75.1,63.4,62.3,63.4z M17.6,56.3h26.2l2.5,6.3H15.1L17.6,56.3z M12.1,79.1c-1.2,0-2.1-1-2.1-2.1v-8.2
	c0-1.2,1-2.1,2.1-2.1h37.1c0.3,0,0.6,0.1,0.9,0.2c-4.6,2.8-8.1,7.1-9.8,12.3H12.1z M43.4,105.9H18l-3.5-22.8h24.9
	c-0.2,1.2-0.3,2.3-0.3,3.5c0,5.5,1.9,10.5,5.1,14.5L43.4,105.9z M62.3,105.9c-0.7,0-1.3,0-2-0.1c-0.2,0-0.3-0.1-0.5-0.1
	c-0.5-0.1-1-0.1-1.5-0.2c-0.1,0-0.3-0.1-0.4-0.1c-0.5-0.1-1-0.2-1.5-0.4c-0.1,0-0.2-0.1-0.3-0.1c-0.5-0.2-1-0.4-1.5-0.6
	c-0.1,0-0.1-0.1-0.2-0.1c-0.5-0.2-1.1-0.5-1.6-0.8c0,0,0,0-0.1,0c-1.7-0.9-3.2-2.1-4.5-3.5c0,0,0,0,0,0l0,0c-1.3-1.4-2.5-3-3.3-4.7
	v0c0,0,0,0,0,0c-0.3-0.6-0.5-1.2-0.8-1.8c0-0.1-0.1-0.2-0.1-0.3c-0.1-0.4-0.3-0.8-0.4-1.2c-0.1-0.3-0.2-0.6-0.2-0.9
	c0-0.2-0.1-0.4-0.1-0.6c-0.1-0.5-0.2-1-0.2-1.5c0-0.1,0-0.2,0-0.4c-0.1-0.6-0.1-1.2-0.1-1.7c0-0.6,0-1.2,0.1-1.8
	c0.2-2,0.7-3.9,1.4-5.7c0.2-0.5,0.4-1,0.7-1.4c0.1-0.2,0.2-0.4,0.3-0.5c0.2-0.3,0.4-0.6,0.6-0.9c0.1-0.2,0.2-0.4,0.4-0.5
	c0.3-0.4,0.5-0.7,0.8-1.1c0.2-0.2,0.4-0.4,0.5-0.6c0.2-0.2,0.4-0.5,0.6-0.7c0.2-0.2,0.4-0.4,0.6-0.6c0.2-0.2,0.4-0.4,0.6-0.5
	c0.2-0.2,0.4-0.4,0.6-0.6c0.4-0.3,0.7-0.6,1.1-0.8l0,0c1.2-0.9,2.6-1.6,4-2.1l0,0c0,0,0,0,0,0c0.5-0.2,1.1-0.4,1.6-0.6c0,0,0,0,0,0
	c0.5-0.2,1.1-0.3,1.7-0.4c0.1,0,0.3,0,0.4-0.1c0.4-0.1,0.9-0.2,1.3-0.2c0.6-0.1,1.2-0.1,1.9-0.1c10.6,0,19.3,8.6,19.3,19.3
	C81.6,97.3,72.9,105.9,62.3,105.9z"/>
<g>
	
		<linearGradient id="SVGID_00000088100846214848071210000012594259199761487035_" gradientUnits="userSpaceOnUse" x1="9.9946" y1="72.8531" x2="50.1346" y2="72.8531">
		<stop  offset="0.5" style="stop-color:#CCCCCC;stop-opacity:0"/>
		<stop  offset="1" style="stop-color:#CCCCCC"/>
	</linearGradient>
	<path style="fill:url(#SVGID_00000088100846214848071210000012594259199761487035_);" d="M12.1,79.1h28.2c1.8-5.1,5.3-9.5,9.8-12.3
		c-0.3-0.1-0.6-0.2-0.9-0.2H12.1c-1.2,0-2.1,1-2.1,2.1V77C10,78.1,10.9,79.1,12.1,79.1z"/>
</g>
</svg>
