<?xml version="1.0" encoding="utf-8"?>
<!-- Generator: Adobe Illustrator 28.0.0, SVG Export Plug-In . SVG Version: 6.00 Build 0)  -->
<svg version="1.1" id="레이어_2_00000129899312101962692770000016223389285295905940_"
	 xmlns="http://www.w3.org/2000/svg" xmlns:xlink="http://www.w3.org/1999/xlink" x="0px" y="0px" viewBox="0 0 91.3 109.9"
	 style="enable-background:new 0 0 91.3 109.9;" xml:space="preserve">
<style type="text/css">
	.st0{fill:url(#SVGID_1_);}
	.st1{fill:#FFFFFF;}
	.st2{fill:none;stroke:#FFFFFF;stroke-width:4;stroke-miterlimit:10;}
	.st3{fill:none;}
	.st4{fill:none;stroke:#FFFFFF;stroke-width:4;stroke-linecap:round;stroke-miterlimit:10;}
</style>
<g>
	<g>
		<linearGradient id="SVGID_1_" gradientUnits="userSpaceOnUse" x1="30.943" y1="41.1257" x2="60.5061" y2="70.6888">
			<stop  offset="0.5" style="stop-color:#CCCCCC;stop-opacity:0"/>
			<stop  offset="1" style="stop-color:#CCCCCC"/>
		</linearGradient>
		<path class="st0" d="M60.1,57.8v-4l2.6-0.6l-7.1-4.4l-7.4,2.1l-1-7.9l-5.4,3.4v-3.5h-1.9l3.6-2.2l-7.7-1.5l-6.9,4.1l2.2,0.5v4
			l-5.1-1l2.6,11.8l8.9,1.8l-0.7-4l-1-5.3h4l0.8,4.3l0.7,3.8l2.7-2.2l-1.3,8l8.2,4.6l1.2-8.2h4l-0.4,2.9l-0.8,5.7l8.4-2.2l2.1-11.3
			L60.1,57.8z M50.7,52.3h-2.3l-0.2-1.4L50.7,52.3z"/>
		<g>
			<path class="st1" d="M40.4,54.5l-1.2-6.6l8-5l0.5,3.9l3.8-1.1l-0.8-6.4c0,0,0,0,0-0.1c0,0,0,0,0,0c0,0,0-0.1,0-0.1
				c0-0.1-0.1-0.2-0.1-0.3c0-0.1-0.1-0.1-0.1-0.2c-0.1-0.1-0.1-0.2-0.2-0.3c0-0.1-0.1-0.1-0.1-0.1c-0.1-0.1-0.2-0.1-0.3-0.2
				c-0.1,0-0.1-0.1-0.2-0.1c0,0,0,0,0,0c-0.2-0.1-0.3-0.1-0.5-0.2c0,0,0,0,0,0l-13.4-2.6c-0.5-0.1-1,0-1.4,0.2l-12,7.1c0,0,0,0,0,0
				c-0.1,0.1-0.3,0.2-0.4,0.3c0,0,0,0,0,0c0,0-0.1,0.1-0.1,0.1c-0.1,0.1-0.1,0.2-0.2,0.3c0,0.1-0.1,0.1-0.1,0.2
				c0,0.1-0.1,0.2-0.1,0.3c0,0.1,0,0.1,0,0.2c0,0.1,0,0.3,0,0.4c0,0,0,0.1,0,0.1c0,0,0,0,0,0c0,0,0,0,0,0.1l3.5,16
				c0.2,0.8,0.8,1.4,1.5,1.5l12.3,2.5L40.4,54.5z M35.8,39.2l7.7,1.5l-6.8,4.2l-7.9-1.6L35.8,39.2z M26,46.7l9.4,1.9l1.4,7.8l0.7,4
				l-8.9-1.8L26,46.7z"/>
			<path class="st1" d="M69.8,54.2c0-0.1,0-0.3,0-0.4c0-0.1,0-0.1,0-0.2c0-0.1-0.1-0.2-0.1-0.3c0-0.1-0.1-0.1-0.1-0.2
				c-0.1-0.1-0.1-0.2-0.2-0.3c0-0.1-0.1-0.1-0.1-0.2c0,0,0-0.1-0.1-0.1c-0.1-0.1-0.2-0.1-0.2-0.2c0,0-0.1-0.1-0.1-0.1L57,44.9
				c-0.5-0.3-1-0.4-1.6-0.2l-12.9,3.6c0,0-0.1,0-0.1,0.1c-0.1,0-0.1,0-0.2,0.1c0,0-0.1,0.1-0.1,0.1c-0.1,0-0.1,0.1-0.2,0.1
				c-0.1,0.1-0.2,0.1-0.3,0.2c0,0-0.1,0.1-0.1,0.1c-0.1,0.1-0.2,0.2-0.2,0.3c0,0,0,0.1-0.1,0.1c-0.1,0.2-0.1,0.3-0.1,0.5l-2.5,15.9
				c-0.1,0.8,0.3,1.6,1,2l11.9,6.7c0,0,0,0,0.1,0c0.1,0.1,0.2,0.1,0.3,0.1c0,0,0.1,0,0.1,0c0.1,0,0.3,0.1,0.4,0.1
				c0.2,0,0.3,0,0.5-0.1c0,0,0,0,0,0l12.5-3.3c0.7-0.2,1.3-0.8,1.4-1.5l2.9-15.5c0,0,0,0,0,0c0,0,0,0,0,0
				C69.8,54.3,69.8,54.3,69.8,54.2z M55.7,48.8l7.1,4.4l-5,1.1l-2.6,0.6l-7-4L55.7,48.8z M44.6,53.3l8.1,4.7L51,69.7l-8.2-4.6
				L44.6,53.3z M63.2,67.9l-8.4,2.2l0.8-5.7l0.9-5.8l8.8-2L63.2,67.9z"/>
		</g>
	</g>
	<circle class="st2" cx="45.7" cy="55" r="34"/>
	<line class="st3" x1="69.7" y1="79" x2="21.6" y2="30.9"/>
	<line class="st4" x1="54.2" y1="46.4" x2="69.7" y2="30.9"/>
	<line class="st4" x1="21.6" y1="79" x2="37.2" y2="63.4"/>
</g>
</svg>
