<?xml version="1.0" encoding="utf-8"?>
<!-- Generator: Adobe Illustrator 28.0.0, SVG Export Plug-In . SVG Version: 6.00 Build 0)  -->
<svg version="1.1" id="레이어_2_00000129899312101962692770000016223389285295905940_"
	 xmlns="http://www.w3.org/2000/svg" xmlns:xlink="http://www.w3.org/1999/xlink" x="0px" y="0px" viewBox="0 0 91.3 109.9"
	 style="enable-background:new 0 0 91.3 109.9;" xml:space="preserve">
<style type="text/css">
	.st0{fill:url(#SVGID_1_);}
	.st1{fill:none;stroke:#000000;stroke-width:4;stroke-miterlimit:10;}
	.st2{fill:none;stroke:#000000;stroke-width:4;stroke-linejoin:round;stroke-miterlimit:10;}
</style>
<g>
	<g>
		<path d="M26.7,109.9V98.6h-4.1v-2.7h11.3v2.7h-4.2v11.3C29.7,109.9,26.7,109.9,26.7,109.9z"/>
		<path d="M43.7,109.9h3.1l-5.5-14h-2.7l-5.5,14h3l1.1-2.9h5.4L43.7,109.9z M38.1,104.6l0.8-2.1c0.1-0.3,0.2-0.6,0.3-0.9
			s0.2-0.7,0.3-1s0.2-0.7,0.3-1c0.1,0.3,0.2,0.6,0.3,1s0.2,0.7,0.3,1.1c0.1,0.3,0.2,0.6,0.3,0.8l0.8,2.2L38.1,104.6L38.1,104.6z"/>
		<path d="M48.1,109.9v-14h3v11.3h6.3v2.7H48.1z"/>
		<path d="M59.6,109.9v-14h3v11.3H69v2.7H59.6z"/>
	</g>
	
		<linearGradient id="SVGID_1_" gradientUnits="userSpaceOnUse" x1="31.1587" y1="40.3" x2="60.3968" y2="40.3" gradientTransform="matrix(1 0 0 -1 0 112)">
		<stop  offset="0.5" style="stop-color:#FF6491;stop-opacity:0"/>
		<stop  offset="1" style="stop-color:#FF6491"/>
	</linearGradient>
	<path class="st0" d="M55.2,88.3H36.3c-1,0-1.8-0.8-1.9-1.7l-3.3-31.5h29.2L57,86.6C57,87.5,56.2,88.3,55.2,88.3z"/>
	<path class="st1" d="M55.2,88.3H36.3c-1,0-1.8-0.8-1.9-1.7l-3.3-31.5h29.2L57,86.6C57,87.5,56.2,88.3,55.2,88.3z"/>
	<path class="st2" d="M57.8,42.9c-0.2-0.6-0.7-1-1.4-1H35.1c-0.6,0-1.2,0.4-1.4,1l-1.1,3.6H31c-1.6,0-2.8,1.3-2.8,2.8V55h35.1v-5.7
		c0-1.6-1.3-2.8-2.8-2.8h-1.6L57.8,42.9z"/>
</g>
</svg>
