<?xml version="1.0" encoding="utf-8"?>
<!-- Generator: Adobe Illustrator 28.0.0, SVG Export Plug-In . SVG Version: 6.00 Build 0)  -->
<svg version="1.1" id="레이어_2_00000129899312101962692770000016223389285295905940_"
	 xmlns="http://www.w3.org/2000/svg" xmlns:xlink="http://www.w3.org/1999/xlink" x="0px" y="0px" viewBox="0 0 91.3 109.9"
	 style="enable-background:new 0 0 91.3 109.9;" xml:space="preserve">
<style type="text/css">
	.st0{fill:url(#SVGID_1_);}
	.st1{fill:#FFFFFF;}
	.st2{fill:none;stroke:#FFFFFF;stroke-width:4;stroke-linecap:round;stroke-linejoin:round;}
	.st3{fill:none;stroke:#FFFFFF;stroke-width:4;stroke-linecap:square;stroke-linejoin:round;}
</style>
<g>
	<linearGradient id="SVGID_1_" gradientUnits="userSpaceOnUse" x1="11.0474" y1="67.9398" x2="81.8523" y2="67.9398">
		<stop  offset="0" style="stop-color:#CCCCCC"/>
		<stop  offset="0.6" style="stop-color:#CCCCCC;stop-opacity:0"/>
	</linearGradient>
	<path class="st0" d="M14,87c-1.7,0-3.1-1.5-2.9-3.2c1.5-19.6,16.8-35,35.4-35s33.9,15.4,35.4,35c0.1,1.7-1.2,3.2-2.9,3.2H14z"/>
	<g>
		<path class="st1" d="M46.4,89c-0.3,0-0.7-0.1-1-0.3L21,74.6c-0.9-0.5-1.4-1.7-0.9-2.6c0.5-1.1,1.8-1.5,2.8-0.9l24.4,14.1
			c0.9,0.5,1.4,1.7,0.9,2.6C47.9,88.6,47.2,89,46.4,89z"/>
	</g>
	<g>
		<path class="st1" d="M29.2,93.7c-1-0.7-2.3-1-3.7-1c-1.4,0-2.7,0.3-3.7,1c-1,0.7-1.8,1.7-2.3,3s-0.8,2.8-0.8,4.6
			c0,1.8,0.3,3.4,0.8,4.6s1.3,2.3,2.3,3c1,0.7,2.2,1,3.7,1c1.4,0,2.7-0.3,3.7-1c1-0.7,1.8-1.7,2.3-3c0.5-1.3,0.8-2.8,0.8-4.6
			c0-1.8-0.3-3.4-0.8-4.6C31,95.3,30.2,94.3,29.2,93.7z M28,105.4c-0.6,1-1.4,1.4-2.5,1.4c-1.1,0-1.9-0.5-2.5-1.4
			c-0.6-1-0.9-2.3-0.9-4.1c0-1.8,0.3-3.2,0.9-4.2c0.6-1,1.4-1.5,2.5-1.5c1.1,0,1.9,0.5,2.5,1.5s0.9,2.4,0.9,4.2
			C28.9,103,28.6,104.4,28,105.4z"/>
		<polygon class="st1" points="46.8,99.1 43.1,99.1 39,103.1 39,94.9 36.2,94.9 36.2,109.7 39,109.7 39,106.3 40,105.4 43.4,109.7 
			46.8,109.7 41.9,103.7 		"/>
		<path class="st1" d="M50.7,101.7c0.4-0.3,0.9-0.4,1.5-0.4c0.3,0,0.7,0.1,1,0.2c0.3,0.1,0.6,0.3,0.9,0.5c0.3,0.2,0.5,0.4,0.7,0.7
			l1.6-1.9c-0.4-0.6-1.1-1.1-1.8-1.4c-0.8-0.3-1.7-0.5-2.6-0.5c-1,0-1.9,0.2-2.7,0.7c-0.8,0.5-1.4,1.1-1.9,2s-0.7,1.8-0.7,2.8
			c0,1.1,0.2,2,0.7,2.8c0.5,0.8,1.1,1.5,1.9,2c0.8,0.5,1.7,0.7,2.7,0.7c0.9,0,1.7-0.2,2.6-0.5c0.8-0.4,1.4-0.8,1.9-1.4l-1.5-1.9
			c-0.2,0.3-0.5,0.5-0.8,0.7c-0.3,0.2-0.6,0.3-0.9,0.4c-0.3,0.1-0.6,0.1-1,0.1c-0.5,0-1-0.1-1.4-0.4c-0.4-0.3-0.8-0.6-1-1.1
			c-0.2-0.5-0.4-1-0.4-1.5c0-0.6,0.1-1.1,0.4-1.6S50.3,102,50.7,101.7z"/>
		<path class="st1" d="M64.9,100.5c-0.2-0.3-0.4-0.5-0.7-0.8c-0.3-0.3-0.7-0.5-1.1-0.6s-0.9-0.2-1.4-0.2c-0.9,0-1.7,0.2-2.5,0.7
			c-0.7,0.5-1.3,1.1-1.7,1.9c-0.4,0.8-0.6,1.8-0.6,2.8c0,1.1,0.2,2,0.6,2.8c0.4,0.8,1,1.5,1.7,2c0.7,0.5,1.5,0.7,2.4,0.7
			c0.5,0,1-0.1,1.4-0.2c0.4-0.2,0.8-0.4,1.2-0.6c0.3-0.2,0.6-0.5,0.8-0.7v1.4h2.9V99.1h-2.8V100.5z M63.7,107
			c-0.4,0.3-0.9,0.4-1.4,0.4c-0.5,0-1-0.1-1.4-0.4c-0.4-0.3-0.7-0.6-0.9-1.1c-0.2-0.5-0.3-1-0.3-1.6c0-0.6,0.1-1.1,0.3-1.6
			c0.2-0.5,0.5-0.8,0.9-1.1c0.4-0.3,0.8-0.4,1.4-0.4c0.5,0,1,0.1,1.4,0.4c0.4,0.3,0.7,0.6,0.9,1.1c0.2,0.5,0.3,1,0.3,1.6
			c0,0.6-0.1,1.2-0.3,1.6C64.4,106.4,64.1,106.8,63.7,107z"/>
		<rect x="70" y="94.9" class="st1" width="2.8" height="14.8"/>
	</g>
	<path class="st2" d="M14,87c-1.7,0-3.1-1.5-2.9-3.2c1.5-19.6,16.8-35,35.4-35s33.9,15.4,35.4,35c0.1,1.7-1.2,3.2-2.9,3.2H14z"/>
	<path class="st2" d="M24.9,87c0-12.8,9.6-23.1,21.5-23.1S68,74.2,68,87H24.9z"/>
	<line class="st3" x1="22.5" y1="59.3" x2="32.6" y2="69.3"/>
	<line class="st3" x1="70.4" y1="59.3" x2="60.3" y2="69.3"/>
</g>
</svg>
