<?xml version="1.0" encoding="utf-8"?>
<!-- Generator: Adobe Illustrator 28.0.0, SVG Export Plug-In . SVG Version: 6.00 Build 0)  -->
<svg version="1.1" id="레이어_2_00000129899312101962692770000016223389285295905940_"
	 xmlns="http://www.w3.org/2000/svg" xmlns:xlink="http://www.w3.org/1999/xlink" x="0px" y="0px" viewBox="0 0 91.3 109.9"
	 style="enable-background:new 0 0 91.3 109.9;" xml:space="preserve">
<style type="text/css">
	.st0{fill:url(#SVGID_1_);}
	.st1{fill:none;stroke:#000000;stroke-width:3.5;stroke-linecap:round;stroke-linejoin:round;}
	.st2{fill:none;stroke:#000000;stroke-width:4;stroke-miterlimit:10;}
	.st3{fill:none;stroke:#000000;stroke-width:4;stroke-linejoin:round;stroke-miterlimit:10;}
	.st4{fill:url(#SVGID_00000121963127486300849030000010130751770766025106_);}
	.st5{fill:none;stroke:#000000;stroke-width:2.5;stroke-linecap:round;stroke-linejoin:round;}
	.st6{fill:none;stroke:#000000;stroke-width:1.5;stroke-linecap:round;stroke-linejoin:round;}
</style>
<linearGradient id="SVGID_1_" gradientUnits="userSpaceOnUse" x1="-532.2535" y1="247.3209" x2="-489.317" y2="247.3209">
	<stop  offset="0.5" style="stop-color:#733A00;stop-opacity:0"/>
	<stop  offset="1" style="stop-color:#733A00"/>
</linearGradient>
<path class="st0" d="M-496.9,271.7h-27.7c-1.5,0-2.7-1.1-2.8-2.6l-4.8-46.3h42.9l-4.8,46.3C-494.3,270.6-495.5,271.7-496.9,271.7z"
	/>
<g id="coffee-bean--cook-cooking-nutrition-coffee-bean_00000132071483783935427070000004708380762225920671_">
	<path id="Rectangle_1097_00000099652773096169174610000016650290432805394604_" class="st1" d="M-505.4,248.6
		c-3.5,3.5-8.7,5.3-12.4,1.9c-0.4-0.3-0.7-0.7-1.1-1.1c-3.4-3.7-1.6-8.9,1.9-12.4c0.3-0.3,0.5-0.5,0.8-0.8c3.5-3.5,8.7-5.3,12.4-1.9
		c0.4,0.3,0.7,0.7,1.1,1.1c3.4,3.7,1.6,8.9-1.9,12.4C-504.9,248.1-505.1,248.3-505.4,248.6z"/>
	<path id="Vector_00000134242374944141304200000009088154408753792935_" class="st1" d="M-502.8,235.2c-3.9,0.4-6.9,2.7-8,7.2
		c-1.2,4.5-4.1,6.7-8,7.2"/>
</g>
<path class="st2" d="M-496.9,271.7h-27.7c-1.5,0-2.7-1.1-2.8-2.6l-4.8-46.3h42.9l-4.8,46.3C-494.3,270.6-495.5,271.7-496.9,271.7z"
	/>
<path class="st3" d="M-493,205.7c-0.4-1.2-1.5-2-2.7-2h-30.1c-1.3,0-2.4,0.8-2.7,2l-1.4,4.7l-2.3,0c-2.4,0-4.3,1.9-4.3,4.3v8.2h51.5
	v-8.2c0-2.4-1.9-4.3-4.3-4.3h-2.3L-493,205.7z"/>
<linearGradient id="SVGID_00000103982462857416774750000001569317630454617473_" gradientUnits="userSpaceOnUse" x1="24.3095" y1="67.3768" x2="67.246" y2="67.3768">
	<stop  offset="0.5" style="stop-color:#FF6491;stop-opacity:0"/>
	<stop  offset="1" style="stop-color:#FF6491"/>
</linearGradient>
<path style="fill:url(#SVGID_00000103982462857416774750000001569317630454617473_);" d="M59.6,91.8H31.9c-1.5,0-2.7-1.1-2.8-2.6
	L24.3,43h42.9l-4.8,46.3C62.3,90.7,61.1,91.8,59.6,91.8z"/>
<g>
	<path class="st2" d="M59.5,91.8H31.8c-1.5,0-2.7-1.1-2.8-2.6L24.2,43h42.9l-4.8,46.3C62.2,90.7,61,91.8,59.5,91.8z"/>
	<path class="st3" d="M63.4,25.8c-0.4-1.2-1.5-2-2.7-2H30.6c-1.3,0-2.4,0.8-2.7,2l-1.4,4.7l-2.3,0c-2.4,0-4.3,1.9-4.3,4.3V43h51.5
		v-8.2c0-2.4-1.9-4.3-4.3-4.3h-2.3L63.4,25.8z"/>
	<g id="strawberry--fruit-sweet-berries-plant-strawberry_00000102541028663233707430000004237320699468022967_">
		<path id="Ellipse_272_00000108285256629059708590000014360054181313549222_" class="st5" d="M36.4,62.2c0-4.4,2.2-7.5,9.2-7.5
			s9.2,3.1,9.2,7.5c0,4.8-5.1,11-9.2,11S36.4,67.1,36.4,62.2z"/>
		<path id="Subtract_00000157994860591131091880000007635714112070197649_" class="st5" d="M39.1,56.3c-0.7-1.1-1.3-2.4-1.6-3.2
			c-0.2-0.5,0.1-1,0.5-1.1c0.1,0,0.1,0,0.2,0c1.4-0.3,4.1-0.5,5.8,0.5c0.8,0.5,1.3,1,1.7,1.5c0.4-0.5,0.9-1,1.7-1.5
			c1.7-1,4.3-0.7,5.8-0.5c0.6,0.1,0.9,0.7,0.7,1.2c-0.3,0.8-0.8,2.1-1.6,3.2"/>
		<path id="Vector_1406_00000008833799751067154030000005176935369001357474_" class="st6" d="M43.1,59.4v-1"/>
		<path id="Vector_1411_00000078009068426465221320000004779449311052531134_" class="st6" d="M43.6,68.6v-1"/>
		<path id="Vector_1410_00000034802267426654642560000005120554179127747758_" class="st6" d="M40.5,64v-1"/>
		<path id="Vector_1407_00000057147527752872012590000009355466257691751557_" class="st6" d="M48.2,59.4v-1"/>
		<path id="Vector_1412_00000168111020490970263500000010373492084351410877_" class="st6" d="M47.7,68.6v-1"/>
		<path id="Vector_1409_00000072257343815741900760000008848757882164786321_" class="st6" d="M50.8,64v-1"/>
		<path id="Vector_1408_00000074433582345721018920000005481705485573956798_" class="st6" d="M45.7,64v-1"/>
	</g>
</g>
</svg>
