<?xml version="1.0" encoding="utf-8"?>
<!-- Generator: Adobe Illustrator 28.0.0, SVG Export Plug-In . SVG Version: 6.00 Build 0)  -->
<svg version="1.1" id="레이어_2_00000129899312101962692770000016223389285295905940_"
	 xmlns="http://www.w3.org/2000/svg" xmlns:xlink="http://www.w3.org/1999/xlink" x="0px" y="0px" viewBox="0 0 91.3 109.9"
	 style="enable-background:new 0 0 91.3 109.9;" xml:space="preserve">
<style type="text/css">
	.st0{fill:url(#SVGID_1_);}
	.st1{fill:none;stroke:#000000;stroke-width:3.5;stroke-linecap:round;stroke-linejoin:round;}
	.st2{fill:none;stroke:#000000;stroke-width:4;stroke-miterlimit:10;}
	.st3{fill:none;stroke:#000000;stroke-width:4;stroke-linejoin:round;stroke-miterlimit:10;}
	.st4{fill:url(#SVGID_00000178191334345288534340000013627193474874304405_);}
	.st5{fill:url(#SVGID_00000152233551378827193330000010903099252418339263_);}
	.st6{fill:url(#SVGID_00000096759188620576751970000007345445712434798014_);stroke:#000000;stroke-width:4;stroke-miterlimit:10;}
</style>
<linearGradient id="SVGID_1_" gradientUnits="userSpaceOnUse" x1="-532.2535" y1="247.3209" x2="-489.317" y2="247.3209">
	<stop  offset="0.5" style="stop-color:#733A00;stop-opacity:0"/>
	<stop  offset="1" style="stop-color:#733A00"/>
</linearGradient>
<path class="st0" d="M-496.9,271.7h-27.7c-1.5,0-2.7-1.1-2.8-2.6l-4.8-46.3h42.9l-4.8,46.3C-494.3,270.6-495.5,271.7-496.9,271.7z"
	/>
<g id="coffee-bean--cook-cooking-nutrition-coffee-bean_00000132071483783935427070000004708380762225920671_">
	<path id="Rectangle_1097_00000099652773096169174610000016650290432805394604_" class="st1" d="M-505.4,248.6
		c-3.5,3.5-8.7,5.3-12.4,1.9c-0.4-0.3-0.7-0.7-1.1-1.1c-3.4-3.7-1.6-8.9,1.9-12.4c0.3-0.3,0.5-0.5,0.8-0.8c3.5-3.5,8.7-5.3,12.4-1.9
		c0.4,0.3,0.7,0.7,1.1,1.1c3.4,3.7,1.6,8.9-1.9,12.4C-504.9,248.1-505.1,248.3-505.4,248.6z"/>
	<path id="Vector_00000134242374944141304200000009088154408753792935_" class="st1" d="M-502.8,235.2c-3.9,0.4-6.9,2.7-8,7.2
		c-1.2,4.5-4.1,6.7-8,7.2"/>
</g>
<path class="st2" d="M-496.9,271.7h-27.7c-1.5,0-2.7-1.1-2.8-2.6l-4.8-46.3h42.9l-4.8,46.3C-494.3,270.6-495.5,271.7-496.9,271.7z"
	/>
<path class="st3" d="M-493,205.7c-0.4-1.2-1.5-2-2.7-2h-30.1c-1.3,0-2.4,0.8-2.7,2l-1.4,4.7l-2.3,0c-2.4,0-4.3,1.9-4.3,4.3v8.2h51.5
	v-8.2c0-2.4-1.9-4.3-4.3-4.3h-2.3L-493,205.7z"/>
<g>
	
		<linearGradient id="SVGID_00000140697148935302668560000014449459382842108802_" gradientUnits="userSpaceOnUse" x1="28.5695" y1="89.1211" x2="28.5695" y2="54.9682">
		<stop  offset="0.3" style="stop-color:#BE6EFA;stop-opacity:0"/>
		<stop  offset="0.9" style="stop-color:#BE6EFA"/>
	</linearGradient>
	<path style="fill:url(#SVGID_00000140697148935302668560000014449459382842108802_);" d="M41.1,68.8c0.9,0.9,1.8,1.8,2.7,2.7
		c2.5,2.5,2.5,6.1,0,8.6c-2.4,2.4-4.8,4.8-7.2,7.2c-2.6,2.6-6.1,2.6-8.7,0c-4.8-4.8-9.7-9.7-14.5-14.5c-2.6-2.6-2.6-6.1,0-8.7
		c2.4-2.4,4.7-4.8,7.1-7.1c2.4-2.4,6.1-2.5,8.6-0.1c1,0.9,1.9,1.9,2.8,2.8L41.1,68.8"/>
</g>
<g>
	
		<linearGradient id="SVGID_00000162339217521642718490000011440214343599873471_" gradientUnits="userSpaceOnUse" x1="62.73" y1="54.9394" x2="62.73" y2="20.7789">
		<stop  offset="0.3" style="stop-color:#BE6EFA;stop-opacity:0"/>
		<stop  offset="0.9" style="stop-color:#BE6EFA"/>
	</linearGradient>
	<path style="fill:url(#SVGID_00000162339217521642718490000011440214343599873471_);" d="M59,49.9c1,1.1,2.1,2.1,3.1,3.2
		c2.5,2.5,6.1,2.5,8.6,0c2.4-2.4,4.8-4.8,7.2-7.2c2.5-2.5,2.5-6.1,0-8.6c-4.9-4.9-9.7-9.8-14.7-14.7c-2.4-2.4-6.1-2.4-8.6,0
		c-2.4,2.4-4.9,4.8-7.3,7.3c-2.5,2.5-2.4,6.1,0,8.6c0.9,0.9,1.9,1.9,2.8,2.8L59,49.9z"/>
</g>
<g>
	<path class="st2" d="M59,49.9c-0.2,0.2-0.3,0.3-0.5,0.4C52.7,56.2,46.9,62,41.1,67.8c-0.4,0.4-0.4,0.6,0,1c0.9,0.9,1.8,1.8,2.7,2.7
		c2.5,2.5,2.5,6.1,0,8.6c-2.4,2.4-4.8,4.8-7.2,7.2c-2.6,2.6-6.1,2.6-8.7,0c-4.8-4.8-9.7-9.7-14.5-14.5c-2.6-2.6-2.6-6.1,0-8.7
		c2.4-2.4,4.7-4.8,7.1-7.1c2.4-2.4,6.1-2.5,8.6-0.1c1,0.9,1.9,1.9,2.8,2.8c0.3,0.3,0.5,0.3,0.8,0c5.9-5.9,11.7-11.8,17.6-17.6
		c0.3-0.3,0.3-0.4,0-0.7c-1-0.9-1.9-1.9-2.8-2.8c-2.5-2.5-2.5-6.1,0-8.6c2.4-2.4,4.8-4.9,7.3-7.3c2.4-2.4,6.1-2.4,8.6,0
		c4.9,4.9,9.8,9.8,14.7,14.7c2.5,2.5,2.5,6.1,0,8.6c-2.4,2.4-4.8,4.8-7.2,7.2c-2.5,2.5-6.1,2.4-8.6,0C61.1,52,60.1,51,59,49.9z"/>
	<line class="st2" x1="31.9" y1="59.6" x2="41.1" y2="68.8"/>
	<line class="st2" x1="49.8" y1="40.7" x2="59.7" y2="50.6"/>
</g>
<linearGradient id="SVGID_00000109031485148006998640000012050440087174574492_" gradientUnits="userSpaceOnUse" x1="51.9584" y1="81.9997" x2="81.6356" y2="81.9997">
	<stop  offset="0" style="stop-color:#FF6946"/>
	<stop  offset="0.5" style="stop-color:#FF6946;stop-opacity:0"/>
</linearGradient>
<path style="fill:url(#SVGID_00000109031485148006998640000012050440087174574492_);stroke:#000000;stroke-width:4;stroke-miterlimit:10;" d="
	M81.6,82L81.6,82c0,3.7-3,6.6-6.6,6.6H58.6c-3.7,0-6.6-3-6.6-6.6v0c0-3.7,3-6.6,6.6-6.6H75C78.7,75.4,81.6,78.3,81.6,82z"/>
<line class="st2" x1="66.8" y1="75.4" x2="66.8" y2="88.6"/>
</svg>
