<?xml version="1.0" encoding="utf-8"?>
<!-- Generator: Adobe Illustrator 28.0.0, SVG Export Plug-In . SVG Version: 6.00 Build 0)  -->
<svg version="1.1" id="레이어_2_00000129899312101962692770000016223389285295905940_"
	 xmlns="http://www.w3.org/2000/svg" xmlns:xlink="http://www.w3.org/1999/xlink" x="0px" y="0px" viewBox="0 0 91.3 109.9"
	 style="enable-background:new 0 0 91.3 109.9;" xml:space="preserve">
<style type="text/css">
	.st0{fill:#FFFFFF;}
	.st1{fill:url(#SVGID_1_);}
	.st2{fill:none;stroke:#FFFFFF;stroke-width:4;stroke-miterlimit:10;}
	.st3{fill:none;stroke:#FFFFFF;stroke-width:4;stroke-linejoin:round;stroke-miterlimit:10;}
</style>
<g>
	<g>
		<path class="st0" d="M26.7,109.9V98.6h-4.1v-2.7h11.3v2.7h-4.2v11.3H26.7z"/>
		<path class="st0" d="M43.7,109.9h3.1l-5.5-14h-2.7l-5.5,14h3l1.1-2.9h5.4L43.7,109.9z M38.1,104.6l0.8-2.1
			c0.1-0.3,0.2-0.6,0.3-0.9c0.1-0.3,0.2-0.7,0.3-1c0.1-0.3,0.2-0.7,0.3-1c0.1,0.3,0.2,0.6,0.3,1c0.1,0.4,0.2,0.7,0.3,1.1
			c0.1,0.3,0.2,0.6,0.3,0.8l0.8,2.2H38.1z"/>
		<path class="st0" d="M48.1,109.9v-14h3v11.3h6.3v2.7H48.1z"/>
		<path class="st0" d="M59.6,109.9v-14h3v11.3H69v2.7H59.6z"/>
	</g>
	<linearGradient id="SVGID_1_" gradientUnits="userSpaceOnUse" x1="31.1587" y1="71.6009" x2="60.3968" y2="71.6009">
		<stop  offset="0.5" style="stop-color:#CCCCCC;stop-opacity:0"/>
		<stop  offset="1" style="stop-color:#CCCCCC"/>
	</linearGradient>
	<path class="st1" d="M55.2,88.2H36.3c-1,0-1.8-0.8-1.9-1.7L31.2,55h29.2l-3.3,31.5C57,87.5,56.2,88.2,55.2,88.2z"/>
	<path class="st2" d="M55.2,88.2H36.3c-1,0-1.8-0.8-1.9-1.7L31.2,55h29.2l-3.3,31.5C57,87.5,56.2,88.2,55.2,88.2z"/>
	<path class="st3" d="M57.8,42.9c-0.2-0.6-0.7-1-1.4-1H35.1c-0.6,0-1.2,0.4-1.4,1l-1.1,3.6l-1.6,0c-1.6,0-2.8,1.3-2.8,2.8V55h35.1
		v-5.7c0-1.6-1.3-2.8-2.8-2.8h-1.6L57.8,42.9z"/>
</g>
</svg>
