<?xml version="1.0" encoding="utf-8"?>
<!-- Generator: Adobe Illustrator 28.0.0, SVG Export Plug-In . SVG Version: 6.00 Build 0)  -->
<svg version="1.1" id="레이어_2_00000129899312101962692770000016223389285295905940_"
	 xmlns="http://www.w3.org/2000/svg" xmlns:xlink="http://www.w3.org/1999/xlink" x="0px" y="0px" viewBox="0 0 91.3 109.9"
	 style="enable-background:new 0 0 91.3 109.9;" xml:space="preserve">
<style type="text/css">
	.st0{fill:url(#SVGID_1_);}
	.st1{fill:none;stroke:#000000;stroke-width:3.5;stroke-linecap:round;stroke-linejoin:round;}
	.st2{fill:none;stroke:#000000;stroke-width:4;stroke-miterlimit:10;}
	.st3{fill:none;stroke:#000000;stroke-width:4;stroke-linejoin:round;stroke-miterlimit:10;}
	.st4{fill:url(#SVGID_00000080184447463033687440000010761109970656768385_);}
	.st5{fill:none;stroke:#000000;stroke-width:4;stroke-linecap:round;stroke-linejoin:round;}
	.st6{fill:none;stroke:#000000;stroke-width:2.6919;stroke-miterlimit:10;}
</style>
<linearGradient id="SVGID_1_" gradientUnits="userSpaceOnUse" x1="-532.2535" y1="247.3209" x2="-489.317" y2="247.3209">
	<stop  offset="0.5" style="stop-color:#733A00;stop-opacity:0"/>
	<stop  offset="1" style="stop-color:#733A00"/>
</linearGradient>
<path class="st0" d="M-496.9,271.7h-27.7c-1.5,0-2.7-1.1-2.8-2.6l-4.8-46.3h42.9l-4.8,46.3C-494.3,270.6-495.5,271.7-496.9,271.7z"
	/>
<g id="coffee-bean--cook-cooking-nutrition-coffee-bean_00000132071483783935427070000004708380762225920671_">
	<path id="Rectangle_1097_00000099652773096169174610000016650290432805394604_" class="st1" d="M-505.4,248.6
		c-3.5,3.5-8.7,5.3-12.4,1.9c-0.4-0.3-0.7-0.7-1.1-1.1c-3.4-3.7-1.6-8.9,1.9-12.4c0.3-0.3,0.5-0.5,0.8-0.8c3.5-3.5,8.7-5.3,12.4-1.9
		c0.4,0.3,0.7,0.7,1.1,1.1c3.4,3.7,1.6,8.9-1.9,12.4C-504.9,248.1-505.1,248.3-505.4,248.6z"/>
	<path id="Vector_00000134242374944141304200000009088154408753792935_" class="st1" d="M-502.8,235.2c-3.9,0.4-6.9,2.7-8,7.2
		c-1.2,4.5-4.1,6.7-8,7.2"/>
</g>
<path class="st2" d="M-496.9,271.7h-27.7c-1.5,0-2.7-1.1-2.8-2.6l-4.8-46.3h42.9l-4.8,46.3C-494.3,270.6-495.5,271.7-496.9,271.7z"
	/>
<path class="st3" d="M-493,205.7c-0.4-1.2-1.5-2-2.7-2h-30.1c-1.3,0-2.4,0.8-2.7,2l-1.4,4.7l-2.3,0c-2.4,0-4.3,1.9-4.3,4.3v8.2h51.5
	v-8.2c0-2.4-1.9-4.3-4.3-4.3h-2.3L-493,205.7z"/>
<linearGradient id="SVGID_00000059297835009162519000000016786411882220040889_" gradientUnits="userSpaceOnUse" x1="24.2811" y1="70.5242" x2="67.0189" y2="70.5242">
	<stop  offset="0.3" style="stop-color:#F5D33C;stop-opacity:0"/>
	<stop  offset="1" style="stop-color:#F5D33C"/>
</linearGradient>
<path style="fill:url(#SVGID_00000059297835009162519000000016786411882220040889_);" d="M27.9,86.2c0.2,3.2,2.9,5.7,6.1,5.7h23.3
	c3.2,0,5.9-2.5,6.1-5.7L67,49.2H24.3L27.9,86.2z"/>
<g id="milkshake--milkshake-drink-takeaway-cup-cold-beverage_00000145049795100836531810000018315920696815674803_">
	<path id="Vector_2077_00000122686433563796358240000008062429997723808938_" class="st5" d="M24.3,49.2v-3.1
		c0-11.8,9.6-21.4,21.4-21.4S67,34.3,67,46.1v3.1l-3.6,37.1c-0.2,3.2-2.9,5.7-6.1,5.7H34c-3.2,0-5.9-2.5-6.1-5.7L24.3,49.2z"/>
	<path id="Vector_2080_00000093174123435565173250000017804906329083776177_" class="st5" d="M18.2,49.2h54.9"/>
	<path id="Vector_00000034066731355277300810000008913311520695902378_" class="st5" d="M56.2,27.5l4.8-15"/>
	<g>
		<path class="st6" d="M55,67.7L47.4,67c-0.6-0.1-1.1-0.6-1-1.2l0.7-7.6c0.1-0.6,0.6-1.1,1.2-1l7.6,0.7c0.6,0.1,1.1,0.6,1,1.2
			l-0.7,7.6C56.2,67.3,55.6,67.7,55,67.7z"/>
		<path class="st6" d="M45.3,73.1l-7.5,1.3c-0.6,0.1-1.2-0.3-1.3-0.9L35.1,66c-0.1-0.6,0.3-1.2,0.9-1.3l7.5-1.3
			c0.6-0.1,1.2,0.3,1.3,0.9l1.3,7.5C46.3,72.4,45.9,73,45.3,73.1z"/>
	</g>
</g>
</svg>
