<?xml version="1.0" encoding="utf-8"?>
<!-- Generator: Adobe Illustrator 28.0.0, SVG Export Plug-In . SVG Version: 6.00 Build 0)  -->
<svg version="1.1" id="레이어_2_00000129899312101962692770000016223389285295905940_"
	 xmlns="http://www.w3.org/2000/svg" xmlns:xlink="http://www.w3.org/1999/xlink" x="0px" y="0px" viewBox="0 0 91.3 109.9"
	 style="enable-background:new 0 0 91.3 109.9;" xml:space="preserve">
<style type="text/css">
	.st0{fill:url(#SVGID_1_);}
	.st1{fill:#FFFFFF;}
</style>
<g>
	<linearGradient id="SVGID_1_" gradientUnits="userSpaceOnUse" x1="22.239" y1="45.1008" x2="74.736" y2="45.1008">
		<stop  offset="0" style="stop-color:#CCCCCC"/>
		<stop  offset="0.6" style="stop-color:#CCCCCC;stop-opacity:0"/>
	</linearGradient>
	<path class="st0" d="M70.7,64.2c0.5,0,1.1-0.1,1.6-0.4c0.6-0.3,1.5-1,1.8-2.4c2.7-13.9-3.8-27.4-15.9-32.9
		c-3.6-1.7-7.6-2.5-11.7-2.5c-9.4,0-18.2,4.4-23.6,11.8c-0.7,0.9-0.9,2.1-0.6,3.2c0,0,0,0,0,0c0.2,0.6,0.6,1.8,2,2.4l45,20.5
		C69.8,64.1,70.2,64.2,70.7,64.2z"/>
</g>
<path class="st1" d="M76.2,87.5c-2.1,0-4.1-0.8-5.9-1.5c-1.6-0.6-3-1.2-4.3-1.2c-1.3,0-2.8,0.6-4.3,1.2c-1.8,0.7-3.8,1.5-5.9,1.5
	s-4.1-0.8-5.9-1.5c-1.6-0.6-3-1.2-4.3-1.2c-1.3,0-2.7,0.6-4.3,1.2c-1.8,0.7-3.8,1.5-5.9,1.5c-2.1,0-4.1-0.8-5.9-1.5
	c-1.6-0.6-3-1.2-4.3-1.2S22.5,85.4,21,86c-1.8,0.7-3.8,1.5-5.9,1.5c-1.1,0-2.1-0.9-2.1-2.1c0-1.1,0.9-2.1,2.1-2.1
	c1.3,0,2.7-0.6,4.3-1.2c1.8-0.7,3.8-1.5,5.9-1.5c1.9,0,3.7,0.7,5.4,1.4c0.1,0,0.2,0.1,0.3,0.1c0.3,0,0.5-0.2,0.6-0.4L42.4,57
	c0.2-0.3,0-0.8-0.3-0.9L23,47.4c-2.1-1-3.6-2.8-4.2-5c-0.6-2.3-0.2-4.8,1.2-6.7c6.1-8.4,15.9-13.3,26.3-13.3c4.6,0,9.1,1,13.4,2.9
	c13.5,6.2,20.9,21.3,17.9,36.8c-0.4,2.3-1.9,4.2-4,5.3c-1.1,0.6-2.3,0.8-3.4,0.8c-1.1,0-2.1-0.2-3.1-0.7l-19.9-9.1
	c-0.1,0-0.2-0.1-0.3-0.1c-0.1,0-0.2,0-0.2,0c-0.2,0.1-0.3,0.2-0.4,0.4L35.8,82.3c-0.1,0.2-0.1,0.5,0.1,0.7c0.1,0.2,0.3,0.3,0.5,0.3
	c0,0,0.1,0,0.1,0c1-0.2,2.1-0.7,3.2-1.1c1.8-0.7,3.8-1.5,5.9-1.5c2.1,0,4.1,0.8,5.9,1.5c1.6,0.6,3,1.2,4.3,1.2
	c1.3,0,2.8-0.6,4.3-1.2c1.8-0.7,3.8-1.5,5.9-1.5c2.1,0,4.1,0.8,5.9,1.5c1.6,0.6,3,1.2,4.3,1.2c1.1,0,2.1,0.9,2.1,2.1
	C78.3,86.6,77.3,87.5,76.2,87.5z M22.9,41.3c0.2,0.6,0.6,1.7,1.9,2.3l44.1,20.1c0.4,0.2,0.9,0.3,1.4,0.3c0.5,0,1.1-0.1,1.5-0.4
	c0.5-0.3,1.5-1,1.8-2.4C76.2,47.7,69.8,34.4,58,29c-3.6-1.6-7.4-2.5-11.4-2.5c-9.2,0-17.9,4.3-23.1,11.6
	C22.8,39.1,22.6,40.2,22.9,41.3C22.8,41.3,22.8,41.3,22.9,41.3z"/>
</svg>
