<?xml version="1.0" encoding="utf-8"?>
<!-- Generator: Adobe Illustrator 28.0.0, SVG Export Plug-In . SVG Version: 6.00 Build 0)  -->
<svg version="1.1" id="레이어_2_00000129899312101962692770000016223389285295905940_"
	 xmlns="http://www.w3.org/2000/svg" xmlns:xlink="http://www.w3.org/1999/xlink" x="0px" y="0px" viewBox="0 0 91.3 109.9"
	 style="enable-background:new 0 0 91.3 109.9;" xml:space="preserve">
<style type="text/css">
	.st0{fill:url(#SVGID_1_);}
	.st1{fill:none;stroke:#000000;stroke-width:3.5;stroke-linecap:round;stroke-linejoin:round;}
	.st2{fill:none;stroke:#000000;stroke-width:4;stroke-miterlimit:10;}
	.st3{fill:none;stroke:#000000;stroke-width:4;stroke-linejoin:round;stroke-miterlimit:10;}
	.st4{fill:url(#Vector_00000052788522898775544460000011231266492287908797_);}
	.st5{fill:none;stroke:#000000;stroke-width:4;stroke-linecap:round;stroke-linejoin:round;}
	.st6{fill:none;stroke:#000000;stroke-width:3;stroke-miterlimit:10;}
</style>
<linearGradient id="SVGID_1_" gradientUnits="userSpaceOnUse" x1="-532.2535" y1="247.3209" x2="-489.317" y2="247.3209">
	<stop  offset="0.5" style="stop-color:#733A00;stop-opacity:0"/>
	<stop  offset="1" style="stop-color:#733A00"/>
</linearGradient>
<path class="st0" d="M-496.9,271.7h-27.7c-1.5,0-2.7-1.1-2.8-2.6l-4.8-46.3h42.9l-4.8,46.3C-494.3,270.6-495.5,271.7-496.9,271.7z"
	/>
<g id="coffee-bean--cook-cooking-nutrition-coffee-bean_00000132071483783935427070000004708380762225920671_">
	<path id="Rectangle_1097_00000099652773096169174610000016650290432805394604_" class="st1" d="M-505.4,248.6
		c-3.5,3.5-8.7,5.3-12.4,1.9c-0.4-0.3-0.7-0.7-1.1-1.1c-3.4-3.7-1.6-8.9,1.9-12.4c0.3-0.3,0.5-0.5,0.8-0.8c3.5-3.5,8.7-5.3,12.4-1.9
		c0.4,0.3,0.7,0.7,1.1,1.1c3.4,3.7,1.6,8.9-1.9,12.4C-504.9,248.1-505.1,248.3-505.4,248.6z"/>
	<path id="Vector_00000134242374944141304200000009088154408753792935_" class="st1" d="M-502.8,235.2c-3.9,0.4-6.9,2.7-8,7.2
		c-1.2,4.5-4.1,6.7-8,7.2"/>
</g>
<path class="st2" d="M-496.9,271.7h-27.7c-1.5,0-2.7-1.1-2.8-2.6l-4.8-46.3h42.9l-4.8,46.3C-494.3,270.6-495.5,271.7-496.9,271.7z"
	/>
<path class="st3" d="M-493,205.7c-0.4-1.2-1.5-2-2.7-2h-30.1c-1.3,0-2.4,0.8-2.7,2l-1.4,4.7l-2.3,0c-2.4,0-4.3,1.9-4.3,4.3v8.2h51.5
	v-8.2c0-2.4-1.9-4.3-4.3-4.3h-2.3L-493,205.7z"/>
<g id="leaf--nature-environment-leaf-ecology-plant-plants-eco_00000044892704823610968050000013983701170093312916_">
	
		<linearGradient id="Vector_00000023968469863313173360000003460701223787683510_" gradientUnits="userSpaceOnUse" x1="43.7518" y1="28.8014" x2="43.7518" y2="85.6349">
		<stop  offset="0.45" style="stop-color:#6ED26E;stop-opacity:0"/>
		<stop  offset="1" style="stop-color:#6ED26E"/>
	</linearGradient>
	
		<path id="Vector_00000003817327520040134980000003908118034067385006_" style="fill:url(#Vector_00000023968469863313173360000003460701223787683510_);" d="
		M64.7,50.2c9.3,12.3,2.2,26.4-1.3,31.9c-0.5,0.8-1.2,1.4-2,1.9c-0.8,0.5-1.7,0.8-2.7,1c-6.7,1.1-23.5,2.3-32.5-10
		c-8.9-11.6-8.5-32-7.7-41.8c0-0.7,0.2-1.4,0.6-2.1c0.4-0.6,0.9-1.2,1.6-1.6c0.6-0.4,1.4-0.7,2.1-0.7s1.5,0,2.3,0.3
		C35.2,31.8,56,38.6,64.7,50.2z"/>
	<path id="Vector_00000003792032977839566010000011491636251555710386_" class="st5" d="M64.7,50.2c9.3,12.3,2.2,26.4-1.3,31.9
		c-0.5,0.8-1.2,1.4-2,1.9c-0.8,0.5-1.7,0.8-2.7,1c-6.7,1.1-23.5,2.3-32.5-10c-8.9-11.6-8.5-32-7.7-41.8c0-0.7,0.2-1.4,0.6-2.1
		c0.4-0.6,0.9-1.2,1.6-1.6c0.6-0.4,1.4-0.7,2.1-0.7s1.5,0,2.3,0.3C35.2,31.8,56,38.6,64.7,50.2z"/>
	<path id="Vector_2_00000032625817542952838230000011007365317092086926_" class="st5" d="M33.4,46.1c10.6,11.8,20,24.6,27.8,38.1"
		/>
</g>
<circle class="st6" cx="58.6" cy="18" r="4.3"/>
<circle class="st2" cx="71.5" cy="34.1" r="7.1"/>
</svg>
